<svg width="445" height="459" viewBox="0 0 445 459" fill="none" xmlns="http://www.w3.org/2000/svg">
<rect width="445" height="459" fill="#10375C"/>
<rect width="363" height="53" transform="translate(40 375)" fill="#FF5722"/>
<path d="M157.879 397.412V401.264H162.757V403.199H157.879V408.5H155.449V395.486H163.657V397.412H157.879ZM168.074 408.5H165.644V395.486H168.074V408.5ZM181.959 395.486V408.5H180.717C180.525 408.5 180.363 408.47 180.231 408.41C180.105 408.344 179.982 408.236 179.862 408.086L173.067 399.41C173.103 399.806 173.121 400.172 173.121 400.508V408.5H170.988V395.486H172.257C172.359 395.486 172.446 395.492 172.518 395.504C172.596 395.51 172.662 395.528 172.716 395.558C172.776 395.582 172.833 395.621 172.887 395.675C172.941 395.723 173.001 395.789 173.067 395.873L179.889 404.585C179.871 404.375 179.856 404.168 179.844 403.964C179.832 403.76 179.826 403.571 179.826 403.397V395.486H181.959ZM196.413 401.993C196.413 402.947 196.254 403.823 195.936 404.621C195.618 405.419 195.171 406.106 194.595 406.682C194.019 407.258 193.326 407.705 192.516 408.023C191.706 408.341 190.806 408.5 189.816 408.5H184.857V395.486H189.816C190.806 395.486 191.706 395.648 192.516 395.972C193.326 396.29 194.019 396.737 194.595 397.313C195.171 397.883 195.618 398.567 195.936 399.365C196.254 400.163 196.413 401.039 196.413 401.993ZM193.929 401.993C193.929 401.279 193.833 400.64 193.641 400.076C193.455 399.506 193.182 399.026 192.822 398.636C192.468 398.24 192.036 397.937 191.526 397.727C191.022 397.517 190.452 397.412 189.816 397.412H187.287V406.574H189.816C190.452 406.574 191.022 406.469 191.526 406.259C192.036 406.049 192.468 405.749 192.822 405.359C193.182 404.963 193.455 404.483 193.641 403.919C193.833 403.349 193.929 402.707 193.929 401.993ZM217.04 395.486V408.5H214.907V400.094C214.907 399.758 214.925 399.395 214.961 399.005L211.028 406.394C210.842 406.748 210.557 406.925 210.173 406.925H209.831C209.447 406.925 209.162 406.748 208.976 406.394L204.998 398.978C205.016 399.176 205.031 399.371 205.043 399.563C205.055 399.755 205.061 399.932 205.061 400.094V408.5H202.928V395.486H204.755C204.863 395.486 204.956 395.489 205.034 395.495C205.112 395.501 205.181 395.516 205.241 395.54C205.307 395.564 205.364 395.603 205.412 395.657C205.466 395.711 205.517 395.783 205.565 395.873L209.462 403.1C209.564 403.292 209.657 403.49 209.741 403.694C209.831 403.898 209.918 404.108 210.002 404.324C210.086 404.102 210.173 403.889 210.263 403.685C210.353 403.475 210.449 403.274 210.551 403.082L214.394 395.873C214.442 395.783 214.493 395.711 214.547 395.657C214.601 395.603 214.658 395.564 214.718 395.54C214.784 395.516 214.856 395.501 214.934 395.495C215.012 395.489 215.105 395.486 215.213 395.486H217.04ZM225.532 403.46V408.5H223.12V403.46L218.377 395.486H220.51C220.72 395.486 220.885 395.537 221.005 395.639C221.131 395.741 221.236 395.87 221.32 396.026L223.696 400.373C223.834 400.631 223.954 400.874 224.056 401.102C224.164 401.33 224.26 401.558 224.344 401.786C224.422 401.558 224.512 401.33 224.614 401.102C224.716 400.874 224.833 400.631 224.965 400.373L227.332 396.026C227.398 395.894 227.497 395.771 227.629 395.657C227.761 395.543 227.929 395.486 228.133 395.486H230.275L225.532 403.46ZM242.184 397.853C242.112 397.979 242.034 398.072 241.95 398.132C241.872 398.186 241.773 398.213 241.653 398.213C241.527 398.213 241.389 398.168 241.239 398.078C241.095 397.982 240.921 397.877 240.717 397.763C240.513 397.649 240.273 397.547 239.997 397.457C239.727 397.361 239.406 397.313 239.034 397.313C238.698 397.313 238.404 397.355 238.152 397.439C237.9 397.517 237.687 397.628 237.513 397.772C237.345 397.916 237.219 398.09 237.135 398.294C237.051 398.492 237.009 398.711 237.009 398.951C237.009 399.257 237.093 399.512 237.261 399.716C237.435 399.92 237.663 400.094 237.945 400.238C238.227 400.382 238.548 400.511 238.908 400.625C239.268 400.739 239.637 400.862 240.015 400.994C240.393 401.12 240.762 401.27 241.122 401.444C241.482 401.612 241.803 401.828 242.085 402.092C242.367 402.35 242.592 402.668 242.76 403.046C242.934 403.424 243.021 403.883 243.021 404.423C243.021 405.011 242.919 405.563 242.715 406.079C242.517 406.589 242.223 407.036 241.833 407.42C241.449 407.798 240.978 408.098 240.42 408.32C239.862 408.536 239.223 408.644 238.503 408.644C238.089 408.644 237.681 408.602 237.279 408.518C236.877 408.44 236.49 408.326 236.118 408.176C235.752 408.026 235.407 407.846 235.083 407.636C234.759 407.426 234.471 407.192 234.219 406.934L234.93 405.773C234.99 405.689 235.068 405.62 235.164 405.566C235.26 405.506 235.362 405.476 235.47 405.476C235.62 405.476 235.782 405.539 235.956 405.665C236.13 405.785 236.337 405.92 236.577 406.07C236.817 406.22 237.096 406.358 237.414 406.484C237.738 406.604 238.125 406.664 238.575 406.664C239.265 406.664 239.799 406.502 240.177 406.178C240.555 405.848 240.744 405.377 240.744 404.765C240.744 404.423 240.657 404.144 240.483 403.928C240.315 403.712 240.09 403.532 239.808 403.388C239.526 403.238 239.205 403.112 238.845 403.01C238.485 402.908 238.119 402.797 237.747 402.677C237.375 402.557 237.009 402.413 236.649 402.245C236.289 402.077 235.968 401.858 235.686 401.588C235.404 401.318 235.176 400.982 235.002 400.58C234.834 400.172 234.75 399.671 234.75 399.077C234.75 398.603 234.843 398.141 235.029 397.691C235.221 397.241 235.497 396.842 235.857 396.494C236.217 396.146 236.661 395.867 237.189 395.657C237.717 395.447 238.323 395.342 239.007 395.342C239.775 395.342 240.483 395.462 241.131 395.702C241.779 395.942 242.331 396.278 242.787 396.71L242.184 397.853ZM249.363 402.029C249.807 402.029 250.194 401.975 250.524 401.867C250.854 401.753 251.127 401.594 251.343 401.39C251.565 401.18 251.73 400.928 251.838 400.634C251.946 400.334 252 400.001 252 399.635C252 399.287 251.946 398.972 251.838 398.69C251.73 398.408 251.568 398.168 251.352 397.97C251.136 397.772 250.863 397.622 250.533 397.52C250.203 397.412 249.813 397.358 249.363 397.358H247.554V402.029H249.363ZM249.363 395.486C250.233 395.486 250.986 395.588 251.622 395.792C252.258 395.996 252.783 396.281 253.197 396.647C253.611 397.013 253.917 397.451 254.115 397.961C254.319 398.471 254.421 399.029 254.421 399.635C254.421 400.265 254.316 400.844 254.106 401.372C253.896 401.894 253.581 402.344 253.161 402.722C252.741 403.1 252.213 403.394 251.577 403.604C250.947 403.814 250.209 403.919 249.363 403.919H247.554V408.5H245.133V395.486H249.363ZM262.239 403.586L260.655 399.257C260.577 399.065 260.496 398.837 260.412 398.573C260.328 398.309 260.244 398.024 260.16 397.718C260.082 398.024 260.001 398.312 259.917 398.582C259.833 398.846 259.752 399.077 259.674 399.275L258.099 403.586H262.239ZM266.514 408.5H264.642C264.432 408.5 264.261 408.449 264.129 408.347C263.997 408.239 263.898 408.107 263.832 407.951L262.86 405.296H257.469L256.497 407.951C256.449 408.089 256.356 408.215 256.218 408.329C256.08 408.443 255.909 408.5 255.705 408.5H253.815L258.936 395.486H261.402L266.514 408.5ZM276.411 405.431C276.543 405.431 276.66 405.482 276.762 405.584L277.716 406.619C277.188 407.273 276.537 407.774 275.763 408.122C274.995 408.47 274.071 408.644 272.991 408.644C272.025 408.644 271.155 408.479 270.381 408.149C269.613 407.819 268.956 407.36 268.41 406.772C267.864 406.184 267.444 405.482 267.15 404.666C266.862 403.85 266.718 402.959 266.718 401.993C266.718 401.015 266.874 400.121 267.186 399.311C267.498 398.495 267.936 397.793 268.5 397.205C269.07 396.617 269.748 396.161 270.534 395.837C271.32 395.507 272.19 395.342 273.144 395.342C274.092 395.342 274.932 395.498 275.664 395.81C276.402 396.122 277.029 396.53 277.545 397.034L276.735 398.159C276.687 398.231 276.624 398.294 276.546 398.348C276.474 398.402 276.372 398.429 276.24 398.429C276.15 398.429 276.057 398.405 275.961 398.357C275.865 398.303 275.76 398.24 275.646 398.168C275.532 398.09 275.4 398.006 275.25 397.916C275.1 397.826 274.926 397.745 274.728 397.673C274.53 397.595 274.299 397.532 274.035 397.484C273.777 397.43 273.477 397.403 273.135 397.403C272.553 397.403 272.019 397.508 271.533 397.718C271.053 397.922 270.639 398.222 270.291 398.618C269.943 399.008 269.673 399.488 269.481 400.058C269.289 400.622 269.193 401.267 269.193 401.993C269.193 402.725 269.295 403.376 269.499 403.946C269.709 404.516 269.991 404.996 270.345 405.386C270.699 405.776 271.116 406.076 271.596 406.286C272.076 406.49 272.592 406.592 273.144 406.592C273.474 406.592 273.771 406.574 274.035 406.538C274.305 406.502 274.551 406.445 274.773 406.367C275.001 406.289 275.214 406.19 275.412 406.07C275.616 405.944 275.817 405.791 276.015 405.611C276.075 405.557 276.138 405.515 276.204 405.485C276.27 405.449 276.339 405.431 276.411 405.431ZM281.805 397.412V401.021H286.359V402.884H281.805V406.565H287.583V408.5H279.375V395.486H287.583V397.412H281.805Z" fill="white"/>
<rect x="40" y="285" width="365" height="68" fill="#0D2C4A"/>
<path d="M58.36 329.904C58.36 330.613 58.552 331.16 58.936 331.544C59.32 331.928 59.8533 332.12 60.536 332.12C60.904 332.12 61.2293 332.061 61.512 331.944C61.7947 331.821 62.032 331.661 62.224 331.464C62.4213 331.261 62.5707 331.029 62.672 330.768C62.7733 330.501 62.824 330.224 62.824 329.936C62.824 329.589 62.768 329.277 62.656 329C62.5493 328.717 62.3973 328.48 62.2 328.288C62.0027 328.091 61.768 327.941 61.496 327.84C61.2293 327.733 60.9333 327.68 60.608 327.68C60.272 327.68 59.9653 327.736 59.688 327.848C59.4107 327.955 59.1733 328.107 58.976 328.304C58.7787 328.501 58.6267 328.736 58.52 329.008C58.4133 329.28 58.36 329.579 58.36 329.904ZM61.512 333.456C61.72 333.184 61.9147 332.917 62.096 332.656C61.808 332.875 61.4853 333.04 61.128 333.152C60.776 333.264 60.4 333.32 60 333.32C59.5787 333.32 59.1733 333.248 58.784 333.104C58.4 332.96 58.0587 332.749 57.76 332.472C57.4667 332.189 57.232 331.843 57.056 331.432C56.88 331.021 56.792 330.549 56.792 330.016C56.792 329.515 56.8853 329.043 57.072 328.6C57.2587 328.157 57.52 327.773 57.856 327.448C58.1973 327.117 58.6027 326.859 59.072 326.672C59.5467 326.48 60.0667 326.384 60.632 326.384C61.192 326.384 61.6987 326.475 62.152 326.656C62.6107 326.837 63 327.093 63.32 327.424C63.64 327.749 63.888 328.141 64.064 328.6C64.24 329.059 64.328 329.563 64.328 330.112C64.328 330.448 64.296 330.768 64.232 331.072C64.1733 331.376 64.0853 331.672 63.968 331.96C63.856 332.248 63.7173 332.533 63.552 332.816C63.392 333.093 63.208 333.379 63 333.672L60.24 337.632C60.1653 337.739 60.056 337.827 59.912 337.896C59.7733 337.965 59.6133 338 59.432 338H58L61.512 333.456ZM76.3169 333.72L74.6129 329.264C74.4902 328.96 74.3675 328.576 74.2449 328.112C74.1862 328.341 74.1249 328.555 74.0609 328.752C74.0022 328.949 73.9435 329.125 73.8849 329.28L72.1889 333.72H76.3169ZM79.6849 338H78.3729C78.2235 338 78.1009 337.963 78.0049 337.888C77.9089 337.813 77.8395 337.717 77.7969 337.6L76.7809 334.936H71.7169L70.7009 337.6C70.6635 337.701 70.5942 337.795 70.4929 337.88C70.3915 337.96 70.2689 338 70.1249 338H68.8129L73.3889 326.512H75.1089L79.6849 338ZM87.3716 329.872V338H86.4356C86.2223 338 86.0836 337.896 86.0196 337.688L85.9076 336.872C85.7316 337.059 85.5476 337.229 85.3556 337.384C85.1636 337.539 84.9583 337.672 84.7396 337.784C84.521 337.891 84.289 337.973 84.0436 338.032C83.7983 338.096 83.5343 338.128 83.2516 338.128C82.8036 338.128 82.409 338.053 82.0676 337.904C81.7316 337.755 81.449 337.547 81.2196 337.28C80.9903 337.008 80.817 336.683 80.6996 336.304C80.5823 335.925 80.5236 335.507 80.5236 335.048V329.872H82.0916V335.048C82.0916 335.629 82.225 336.083 82.4916 336.408C82.7583 336.728 83.1663 336.888 83.7156 336.888C84.1156 336.888 84.489 336.795 84.8356 336.608C85.1823 336.416 85.5076 336.155 85.8116 335.824V329.872H87.3716ZM92.4051 333.944C92.6825 333.944 92.9251 333.907 93.1331 333.832C93.3465 333.757 93.5225 333.653 93.6611 333.52C93.8051 333.381 93.9118 333.216 93.9811 333.024C94.0558 332.832 94.0931 332.621 94.0931 332.392C94.0931 331.923 93.9491 331.549 93.6611 331.272C93.3785 330.989 92.9598 330.848 92.4051 330.848C91.8558 330.848 91.4371 330.989 91.1491 331.272C90.8665 331.549 90.7251 331.923 90.7251 332.392C90.7251 332.621 90.7598 332.832 90.8291 333.024C90.9038 333.211 91.0105 333.373 91.1491 333.512C91.2931 333.645 91.4691 333.752 91.6771 333.832C91.8905 333.907 92.1331 333.944 92.4051 333.944ZM94.8931 338.424C94.8931 338.232 94.8398 338.08 94.7331 337.968C94.6265 337.851 94.4798 337.76 94.2931 337.696C94.1118 337.627 93.8985 337.579 93.6531 337.552C93.4078 337.52 93.1491 337.496 92.8771 337.48C92.6105 337.464 92.3358 337.451 92.0531 337.44C91.7705 337.424 91.4985 337.397 91.2371 337.36C90.9598 337.499 90.7305 337.667 90.5491 337.864C90.3731 338.061 90.2851 338.293 90.2851 338.56C90.2851 338.731 90.3278 338.891 90.4131 339.04C90.5038 339.189 90.6398 339.317 90.8211 339.424C91.0078 339.536 91.2398 339.621 91.5171 339.68C91.7998 339.744 92.1358 339.776 92.5251 339.776C92.9091 339.776 93.2478 339.741 93.5411 339.672C93.8345 339.608 94.0798 339.515 94.2771 339.392C94.4798 339.275 94.6318 339.133 94.7331 338.968C94.8398 338.803 94.8931 338.621 94.8931 338.424ZM96.4771 330.176V330.76C96.4771 330.952 96.3571 331.072 96.1171 331.12L95.2451 331.248C95.3198 331.413 95.3785 331.589 95.4211 331.776C95.4638 331.957 95.4851 332.149 95.4851 332.352C95.4851 332.752 95.4078 333.115 95.2531 333.44C95.0985 333.76 94.8851 334.035 94.6131 334.264C94.3411 334.493 94.0158 334.669 93.6371 334.792C93.2638 334.915 92.8531 334.976 92.4051 334.976C92.0371 334.976 91.6931 334.936 91.3731 334.856C91.2131 334.952 91.0905 335.059 91.0051 335.176C90.9251 335.288 90.8851 335.4 90.8851 335.512C90.8851 335.699 90.9625 335.837 91.1171 335.928C91.2771 336.019 91.4825 336.085 91.7331 336.128C91.9891 336.165 92.2798 336.189 92.6051 336.2C92.9358 336.211 93.2691 336.229 93.6051 336.256C93.9465 336.277 94.2798 336.32 94.6051 336.384C94.9358 336.443 95.2265 336.541 95.4771 336.68C95.7331 336.813 95.9385 337 96.0931 337.24C96.2531 337.475 96.3331 337.781 96.3331 338.16C96.3331 338.512 96.2451 338.853 96.0691 339.184C95.8985 339.515 95.6478 339.808 95.3171 340.064C94.9865 340.32 94.5838 340.525 94.1091 340.68C93.6345 340.835 93.0958 340.912 92.4931 340.912C91.8905 340.912 91.3651 340.853 90.9171 340.736C90.4745 340.619 90.1038 340.461 89.8051 340.264C89.5118 340.067 89.2905 339.837 89.1411 339.576C88.9971 339.315 88.9251 339.043 88.9251 338.76C88.9251 338.365 89.0478 338.032 89.2931 337.76C89.5385 337.483 89.8771 337.267 90.3091 337.112C90.0745 337.005 89.8878 336.861 89.7491 336.68C89.6105 336.493 89.5411 336.248 89.5411 335.944C89.5411 335.827 89.5625 335.707 89.6051 335.584C89.6478 335.456 89.7118 335.331 89.7971 335.208C89.8878 335.08 89.9971 334.96 90.1251 334.848C90.2585 334.736 90.4105 334.635 90.5811 334.544C90.1811 334.32 89.8665 334.024 89.6371 333.656C89.4078 333.283 89.2931 332.848 89.2931 332.352C89.2931 331.952 89.3705 331.592 89.5251 331.272C89.6798 330.952 89.8931 330.677 90.1651 330.448C90.4425 330.219 90.7705 330.043 91.1491 329.92C91.5331 329.797 91.9518 329.736 92.4051 329.736C93.1091 329.736 93.7145 329.883 94.2211 330.176H96.4771ZM108.747 336.52C108.918 336.52 109.051 336.571 109.147 336.672C109.243 336.768 109.291 336.896 109.291 337.056V338H101.579V337.464C101.579 337.357 101.601 337.245 101.643 337.128C101.686 337.005 101.758 336.896 101.859 336.8L105.491 333.16C105.795 332.856 106.07 332.563 106.315 332.28C106.561 331.997 106.769 331.717 106.939 331.44C107.11 331.157 107.241 330.869 107.331 330.576C107.427 330.283 107.475 329.973 107.475 329.648C107.475 329.328 107.425 329.048 107.323 328.808C107.222 328.563 107.083 328.36 106.907 328.2C106.731 328.04 106.523 327.92 106.283 327.84C106.043 327.76 105.785 327.72 105.507 327.72C105.23 327.72 104.974 327.76 104.739 327.84C104.51 327.92 104.305 328.032 104.123 328.176C103.942 328.32 103.79 328.491 103.667 328.688C103.545 328.885 103.457 329.099 103.403 329.328C103.329 329.531 103.233 329.667 103.115 329.736C103.003 329.805 102.838 329.821 102.619 329.784L101.803 329.64C101.878 329.107 102.025 328.637 102.243 328.232C102.462 327.827 102.737 327.488 103.067 327.216C103.398 326.939 103.777 326.731 104.203 326.592C104.635 326.453 105.099 326.384 105.595 326.384C106.097 326.384 106.558 326.459 106.979 326.608C107.406 326.752 107.774 326.963 108.083 327.24C108.393 327.517 108.635 327.856 108.811 328.256C108.987 328.651 109.075 329.099 109.075 329.6C109.075 330.027 109.011 330.424 108.883 330.792C108.761 331.155 108.59 331.501 108.371 331.832C108.158 332.163 107.907 332.485 107.619 332.8C107.337 333.109 107.035 333.424 106.715 333.744L103.803 336.72C104.027 336.661 104.251 336.613 104.475 336.576C104.705 336.539 104.921 336.52 105.123 336.52H108.747ZM118.957 332.256C118.957 333.259 118.847 334.128 118.629 334.864C118.415 335.6 118.119 336.211 117.741 336.696C117.367 337.176 116.925 337.533 116.413 337.768C115.906 338.003 115.359 338.12 114.773 338.12C114.186 338.12 113.637 338.003 113.125 337.768C112.618 337.533 112.178 337.176 111.805 336.696C111.431 336.211 111.138 335.6 110.925 334.864C110.711 334.128 110.605 333.259 110.605 332.256C110.605 331.253 110.711 330.384 110.925 329.648C111.138 328.907 111.431 328.296 111.805 327.816C112.178 327.331 112.618 326.971 113.125 326.736C113.637 326.501 114.186 326.384 114.773 326.384C115.359 326.384 115.906 326.501 116.413 326.736C116.925 326.971 117.367 327.331 117.741 327.816C118.119 328.296 118.415 328.907 118.629 329.648C118.847 330.384 118.957 331.253 118.957 332.256ZM117.341 332.256C117.341 331.392 117.269 330.669 117.125 330.088C116.986 329.507 116.797 329.04 116.557 328.688C116.322 328.331 116.05 328.077 115.741 327.928C115.431 327.779 115.109 327.704 114.773 327.704C114.437 327.704 114.114 327.779 113.805 327.928C113.495 328.077 113.221 328.331 112.981 328.688C112.746 329.04 112.559 329.507 112.421 330.088C112.282 330.669 112.213 331.392 112.213 332.256C112.213 333.12 112.282 333.843 112.421 334.424C112.559 335.005 112.746 335.472 112.981 335.824C113.221 336.176 113.495 336.427 113.805 336.576C114.114 336.725 114.437 336.8 114.773 336.8C115.109 336.8 115.431 336.725 115.741 336.576C116.05 336.427 116.322 336.176 116.557 335.824C116.797 335.472 116.986 335.005 117.125 334.424C117.269 333.843 117.341 333.12 117.341 332.256ZM127.31 336.52C127.481 336.52 127.614 336.571 127.71 336.672C127.806 336.768 127.854 336.896 127.854 337.056V338H120.142V337.464C120.142 337.357 120.163 337.245 120.206 337.128C120.249 337.005 120.321 336.896 120.422 336.8L124.054 333.16C124.358 332.856 124.633 332.563 124.878 332.28C125.123 331.997 125.331 331.717 125.502 331.44C125.673 331.157 125.803 330.869 125.894 330.576C125.99 330.283 126.038 329.973 126.038 329.648C126.038 329.328 125.987 329.048 125.886 328.808C125.785 328.563 125.646 328.36 125.47 328.2C125.294 328.04 125.086 327.92 124.846 327.84C124.606 327.76 124.347 327.72 124.07 327.72C123.793 327.72 123.537 327.76 123.302 327.84C123.073 327.92 122.867 328.032 122.686 328.176C122.505 328.32 122.353 328.491 122.23 328.688C122.107 328.885 122.019 329.099 121.966 329.328C121.891 329.531 121.795 329.667 121.678 329.736C121.566 329.805 121.401 329.821 121.182 329.784L120.366 329.64C120.441 329.107 120.587 328.637 120.806 328.232C121.025 327.827 121.299 327.488 121.63 327.216C121.961 326.939 122.339 326.731 122.766 326.592C123.198 326.453 123.662 326.384 124.158 326.384C124.659 326.384 125.121 326.459 125.542 326.608C125.969 326.752 126.337 326.963 126.646 327.24C126.955 327.517 127.198 327.856 127.374 328.256C127.55 328.651 127.638 329.099 127.638 329.6C127.638 330.027 127.574 330.424 127.446 330.792C127.323 331.155 127.153 331.501 126.934 331.832C126.721 332.163 126.47 332.485 126.182 332.8C125.899 333.109 125.598 333.424 125.278 333.744L122.366 336.72C122.59 336.661 122.814 336.613 123.038 336.576C123.267 336.539 123.483 336.52 123.686 336.52H127.31ZM137.519 332.256C137.519 333.259 137.41 334.128 137.191 334.864C136.978 335.6 136.682 336.211 136.303 336.696C135.93 337.176 135.487 337.533 134.975 337.768C134.468 338.003 133.922 338.12 133.335 338.12C132.748 338.12 132.199 338.003 131.687 337.768C131.18 337.533 130.74 337.176 130.367 336.696C129.994 336.211 129.7 335.6 129.487 334.864C129.274 334.128 129.167 333.259 129.167 332.256C129.167 331.253 129.274 330.384 129.487 329.648C129.7 328.907 129.994 328.296 130.367 327.816C130.74 327.331 131.18 326.971 131.687 326.736C132.199 326.501 132.748 326.384 133.335 326.384C133.922 326.384 134.468 326.501 134.975 326.736C135.487 326.971 135.93 327.331 136.303 327.816C136.682 328.296 136.978 328.907 137.191 329.648C137.41 330.384 137.519 331.253 137.519 332.256ZM135.903 332.256C135.903 331.392 135.831 330.669 135.687 330.088C135.548 329.507 135.359 329.04 135.119 328.688C134.884 328.331 134.612 328.077 134.303 327.928C133.994 327.779 133.671 327.704 133.335 327.704C132.999 327.704 132.676 327.779 132.367 327.928C132.058 328.077 131.783 328.331 131.543 328.688C131.308 329.04 131.122 329.507 130.983 330.088C130.844 330.669 130.775 331.392 130.775 332.256C130.775 333.12 130.844 333.843 130.983 334.424C131.122 335.005 131.308 335.472 131.543 335.824C131.783 336.176 132.058 336.427 132.367 336.576C132.676 336.725 132.999 336.8 133.335 336.8C133.671 336.8 133.994 336.725 134.303 336.576C134.612 336.427 134.884 336.176 135.119 335.824C135.359 335.472 135.548 335.005 135.687 334.424C135.831 333.843 135.903 333.12 135.903 332.256Z" fill="white"/>
<path d="M377.005 322.4C376.785 322.4 376.585 322.32 376.425 322.16L371.425 316.96C371.125 316.64 371.125 316.14 371.445 315.82C371.765 315.52 372.265 315.52 372.585 315.84L377.005 320.44L381.425 315.84C381.725 315.52 382.245 315.52 382.565 315.82C382.885 316.12 382.885 316.64 382.585 316.96L377.585 322.16C377.425 322.32 377.225 322.4 377.005 322.4Z" fill="white"/>
<path opacity="0.35" d="M67.44 306.256C67.44 307.115 67.3013 307.896 67.024 308.6C66.752 309.304 66.3653 309.909 65.864 310.416C65.3627 310.917 64.7627 311.307 64.064 311.584C63.3653 311.861 62.5893 312 61.736 312H57.416V300.512H61.736C62.5893 300.512 63.3653 300.651 64.064 300.928C64.7627 301.205 65.3627 301.597 65.864 302.104C66.3653 302.605 66.752 303.211 67.024 303.92C67.3013 304.624 67.44 305.403 67.44 306.256ZM65.696 306.256C65.696 305.573 65.6027 304.963 65.416 304.424C65.2293 303.88 64.9627 303.421 64.616 303.048C64.2747 302.669 63.8587 302.381 63.368 302.184C62.8827 301.987 62.3387 301.888 61.736 301.888H59.128V310.624H61.736C62.3387 310.624 62.8827 310.525 63.368 310.328C63.8587 310.131 64.2747 309.845 64.616 309.472C64.9627 309.093 65.2293 308.635 65.416 308.096C65.6027 307.557 65.696 306.944 65.696 306.256ZM73.4328 308.392C72.7981 308.413 72.2594 308.464 71.8168 308.544C71.3741 308.619 71.0141 308.72 70.7368 308.848C70.4594 308.976 70.2594 309.128 70.1368 309.304C70.0141 309.475 69.9528 309.667 69.9528 309.88C69.9528 310.083 69.9848 310.259 70.0488 310.408C70.1181 310.552 70.2088 310.672 70.3207 310.768C70.4381 310.859 70.5741 310.925 70.7288 310.968C70.8834 311.011 71.0514 311.032 71.2328 311.032C71.4728 311.032 71.6914 311.008 71.8888 310.96C72.0914 310.912 72.2808 310.845 72.4568 310.76C72.6328 310.669 72.8008 310.56 72.9608 310.432C73.1208 310.304 73.2781 310.157 73.4328 309.992V308.392ZM68.8568 305.008C69.3101 304.576 69.8008 304.253 70.3288 304.04C70.8621 303.827 71.4461 303.72 72.0807 303.72C72.5448 303.72 72.9554 303.797 73.3128 303.952C73.6701 304.101 73.9714 304.312 74.2168 304.584C74.4621 304.856 74.6461 305.181 74.7688 305.56C74.8968 305.939 74.9608 306.357 74.9608 306.816V312H74.2648C74.1101 312 73.9928 311.976 73.9128 311.928C73.8328 311.875 73.7688 311.779 73.7208 311.64L73.5528 310.928C73.3448 311.12 73.1394 311.291 72.9368 311.44C72.7341 311.584 72.5208 311.709 72.2968 311.816C72.0781 311.917 71.8434 311.995 71.5928 312.048C71.3421 312.101 71.0648 312.128 70.7608 312.128C70.4408 312.128 70.1394 312.085 69.8568 312C69.5794 311.909 69.3368 311.773 69.1288 311.592C68.9208 311.411 68.7554 311.184 68.6328 310.912C68.5154 310.64 68.4568 310.323 68.4568 309.96C68.4568 309.64 68.5421 309.333 68.7128 309.04C68.8888 308.741 69.1714 308.475 69.5608 308.24C69.9554 308.005 70.4674 307.813 71.0968 307.664C71.7314 307.515 72.5101 307.429 73.4328 307.408V306.816C73.4328 306.203 73.3021 305.744 73.0408 305.44C72.7794 305.136 72.3954 304.984 71.8888 304.984C71.5474 304.984 71.2594 305.027 71.0248 305.112C70.7954 305.197 70.5954 305.293 70.4248 305.4C70.2594 305.501 70.1128 305.595 69.9848 305.68C69.8621 305.765 69.7341 305.808 69.6008 305.808C69.4941 305.808 69.4008 305.779 69.3208 305.72C69.2461 305.661 69.1848 305.592 69.1368 305.512L68.8568 305.008ZM79.4838 312.128C78.8278 312.128 78.3211 311.944 77.9638 311.576C77.6118 311.208 77.4358 310.683 77.4358 310V305.136H76.4918C76.4011 305.136 76.3238 305.109 76.2598 305.056C76.2011 304.997 76.1718 304.912 76.1718 304.8V304.168L77.4918 303.984L77.8438 301.56C77.8651 301.469 77.9051 301.4 77.9638 301.352C78.0278 301.299 78.1078 301.272 78.2038 301.272H78.9958V304H81.2998V305.136H78.9958V309.896C78.9958 310.216 79.0731 310.456 79.2278 310.616C79.3878 310.771 79.5904 310.848 79.8358 310.848C79.9798 310.848 80.1024 310.829 80.2038 310.792C80.3104 310.755 80.4011 310.715 80.4758 310.672C80.5504 310.624 80.6144 310.581 80.6678 310.544C80.7211 310.507 80.7691 310.488 80.8118 310.488C80.8651 310.488 80.9051 310.501 80.9318 310.528C80.9638 310.549 80.9958 310.587 81.0278 310.64L81.4918 311.392C81.2358 311.627 80.9318 311.808 80.5798 311.936C80.2278 312.064 79.8624 312.128 79.4838 312.128ZM88.0738 307.032C88.0738 306.723 88.0284 306.437 87.9378 306.176C87.8524 305.915 87.7244 305.688 87.5538 305.496C87.3831 305.304 87.1751 305.155 86.9298 305.048C86.6844 304.941 86.4018 304.888 86.0818 304.888C85.4258 304.888 84.9084 305.077 84.5298 305.456C84.1564 305.835 83.9191 306.36 83.8178 307.032H88.0738ZM89.3618 310.84C89.1698 311.064 88.9484 311.259 88.6978 311.424C88.4471 311.584 88.1804 311.715 87.8978 311.816C87.6151 311.917 87.3218 311.992 87.0178 312.04C86.7191 312.088 86.4231 312.112 86.1298 312.112C85.5698 312.112 85.0498 312.019 84.5698 311.832C84.0951 311.64 83.6818 311.363 83.3298 311C82.9831 310.632 82.7111 310.179 82.5138 309.64C82.3218 309.096 82.2258 308.472 82.2258 307.768C82.2258 307.203 82.3138 306.677 82.4898 306.192C82.6658 305.701 82.9164 305.275 83.2418 304.912C83.5724 304.549 83.9751 304.264 84.4498 304.056C84.9244 303.848 85.4578 303.744 86.0498 303.744C86.5458 303.744 87.0018 303.827 87.4178 303.992C87.8391 304.152 88.2018 304.387 88.5058 304.696C88.8098 305.005 89.0471 305.387 89.2178 305.84C89.3938 306.293 89.4818 306.811 89.4818 307.392C89.4818 307.632 89.4551 307.795 89.4018 307.88C89.3484 307.96 89.2498 308 89.1058 308H83.7778C83.7938 308.485 83.8631 308.909 83.9858 309.272C84.1084 309.629 84.2764 309.928 84.4898 310.168C84.7084 310.408 84.9671 310.587 85.2658 310.704C85.5644 310.821 85.8978 310.88 86.2658 310.88C86.6124 310.88 86.9111 310.84 87.1618 310.76C87.4178 310.68 87.6364 310.595 87.8178 310.504C88.0044 310.408 88.1591 310.32 88.2818 310.24C88.4098 310.16 88.5218 310.12 88.6178 310.12C88.7458 310.12 88.8444 310.168 88.9138 310.264L89.3618 310.84Z" fill="white"/>
<rect x="40" y="200" width="365" height="68" fill="#0D2C4A"/>
<path d="M60.896 247.424C61.328 247.424 61.7067 247.368 62.032 247.256C62.3627 247.144 62.6373 246.987 62.856 246.784C63.08 246.576 63.248 246.331 63.36 246.048C63.472 245.76 63.528 245.443 63.528 245.096C63.528 244.397 63.3093 243.848 62.872 243.448C62.44 243.048 61.7813 242.848 60.896 242.848H59.12V247.424H60.896ZM60.896 241.512C61.632 241.512 62.272 241.597 62.816 241.768C63.36 241.939 63.8107 242.181 64.168 242.496C64.5253 242.805 64.7893 243.181 64.96 243.624C65.136 244.067 65.224 244.557 65.224 245.096C65.224 245.635 65.1307 246.131 64.944 246.584C64.7573 247.032 64.4827 247.419 64.12 247.744C63.7573 248.069 63.304 248.323 62.76 248.504C62.2213 248.68 61.6 248.768 60.896 248.768H59.12V253H57.416V241.512H60.896ZM68.1149 246.432C68.3762 245.899 68.6909 245.48 69.0589 245.176C69.4269 244.872 69.8695 244.72 70.3869 244.72C70.5629 244.72 70.7282 244.741 70.8829 244.784C71.0429 244.821 71.1815 244.88 71.2989 244.96L71.1949 246.136C71.1575 246.28 71.0695 246.352 70.9309 246.352C70.8562 246.352 70.7442 246.339 70.5949 246.312C70.4455 246.28 70.2855 246.264 70.1149 246.264C69.8642 246.264 69.6429 246.301 69.4509 246.376C69.2589 246.445 69.0855 246.552 68.9309 246.696C68.7815 246.835 68.6482 247.008 68.5309 247.216C68.4135 247.419 68.3042 247.651 68.2029 247.912V253H66.6429V244.872H67.5389C67.7095 244.872 67.8242 244.904 67.8829 244.968C67.9469 245.027 67.9922 245.133 68.0189 245.288L68.1149 246.432ZM74.1343 244.872V253H72.5743V244.872H74.1343ZM74.4303 242.36C74.4303 242.504 74.4009 242.643 74.3423 242.776C74.2836 242.904 74.2036 243.019 74.1023 243.12C74.0063 243.216 73.8916 243.293 73.7582 243.352C73.6249 243.405 73.4863 243.432 73.3423 243.432C73.1983 243.432 73.0623 243.405 72.9343 243.352C72.8063 243.293 72.6916 243.216 72.5903 243.12C72.4943 243.019 72.4169 242.904 72.3583 242.776C72.3049 242.643 72.2783 242.504 72.2783 242.36C72.2783 242.211 72.3049 242.072 72.3583 241.944C72.4169 241.811 72.4943 241.696 72.5903 241.6C72.6916 241.499 72.8063 241.421 72.9343 241.368C73.0623 241.309 73.1983 241.28 73.3423 241.28C73.4863 241.28 73.6249 241.309 73.7582 241.368C73.8916 241.421 74.0063 241.499 74.1023 241.6C74.2036 241.696 74.2836 241.811 74.3423 241.944C74.4009 242.072 74.4303 242.211 74.4303 242.36ZM83.4489 244.872L80.1529 253H78.7449L75.4489 244.872H76.7369C76.8595 244.872 76.9609 244.901 77.0409 244.96C77.1209 245.019 77.1742 245.093 77.2009 245.184L79.1449 250.176C79.2142 250.384 79.2729 250.592 79.3209 250.8C79.3742 251.003 79.4222 251.205 79.4649 251.408C79.5075 251.205 79.5555 251.003 79.6089 250.8C79.6622 250.597 79.7262 250.389 79.8009 250.176L81.7689 245.184C81.8009 245.093 81.8569 245.019 81.9369 244.96C82.0169 244.901 82.1129 244.872 82.2249 244.872H83.4489ZM88.8703 249.392C88.2356 249.413 87.6969 249.464 87.2543 249.544C86.8116 249.619 86.4516 249.72 86.1743 249.848C85.8969 249.976 85.6969 250.128 85.5743 250.304C85.4516 250.475 85.3903 250.667 85.3903 250.88C85.3903 251.083 85.4223 251.259 85.4863 251.408C85.5556 251.552 85.6463 251.672 85.7582 251.768C85.8756 251.859 86.0116 251.925 86.1663 251.968C86.3209 252.011 86.4889 252.032 86.6703 252.032C86.9103 252.032 87.1289 252.008 87.3263 251.96C87.5289 251.912 87.7183 251.845 87.8943 251.76C88.0703 251.669 88.2383 251.56 88.3983 251.432C88.5583 251.304 88.7156 251.157 88.8703 250.992V249.392ZM84.2943 246.008C84.7476 245.576 85.2383 245.253 85.7663 245.04C86.2996 244.827 86.8836 244.72 87.5182 244.72C87.9823 244.72 88.3929 244.797 88.7503 244.952C89.1076 245.101 89.4089 245.312 89.6543 245.584C89.8996 245.856 90.0836 246.181 90.2063 246.56C90.3343 246.939 90.3983 247.357 90.3983 247.816V253H89.7023C89.5476 253 89.4303 252.976 89.3503 252.928C89.2703 252.875 89.2063 252.779 89.1583 252.64L88.9903 251.928C88.7823 252.12 88.5769 252.291 88.3743 252.44C88.1716 252.584 87.9583 252.709 87.7343 252.816C87.5156 252.917 87.2809 252.995 87.0303 253.048C86.7796 253.101 86.5023 253.128 86.1983 253.128C85.8783 253.128 85.5769 253.085 85.2943 253C85.0169 252.909 84.7743 252.773 84.5663 252.592C84.3583 252.411 84.1929 252.184 84.0703 251.912C83.9529 251.64 83.8943 251.323 83.8943 250.96C83.8943 250.64 83.9796 250.333 84.1503 250.04C84.3263 249.741 84.6089 249.475 84.9983 249.24C85.3929 249.005 85.9049 248.813 86.5343 248.664C87.1689 248.515 87.9476 248.429 88.8703 248.408V247.816C88.8703 247.203 88.7396 246.744 88.4783 246.44C88.2169 246.136 87.8329 245.984 87.3263 245.984C86.9849 245.984 86.6969 246.027 86.4623 246.112C86.2329 246.197 86.0329 246.293 85.8623 246.4C85.6969 246.501 85.5503 246.595 85.4223 246.68C85.2996 246.765 85.1716 246.808 85.0383 246.808C84.9316 246.808 84.8383 246.779 84.7583 246.72C84.6836 246.661 84.6223 246.592 84.5743 246.512L84.2943 246.008ZM94.9213 253.128C94.2653 253.128 93.7586 252.944 93.4013 252.576C93.0493 252.208 92.8733 251.683 92.8733 251V246.136H91.9293C91.8386 246.136 91.7613 246.109 91.6973 246.056C91.6386 245.997 91.6093 245.912 91.6093 245.8V245.168L92.9293 244.984L93.2812 242.56C93.3026 242.469 93.3426 242.4 93.4013 242.352C93.4653 242.299 93.5453 242.272 93.6413 242.272H94.4333V245H96.7373V246.136H94.4333V250.896C94.4333 251.216 94.5106 251.456 94.6653 251.616C94.8253 251.771 95.0279 251.848 95.2733 251.848C95.4173 251.848 95.5399 251.829 95.6413 251.792C95.7479 251.755 95.8386 251.715 95.9133 251.672C95.9879 251.624 96.0519 251.581 96.1053 251.544C96.1586 251.507 96.2066 251.488 96.2493 251.488C96.3026 251.488 96.3426 251.501 96.3693 251.528C96.4013 251.549 96.4333 251.587 96.4653 251.64L96.9293 252.392C96.6733 252.627 96.3693 252.808 96.0173 252.936C95.6653 253.064 95.2999 253.128 94.9213 253.128ZM103.511 248.032C103.511 247.723 103.466 247.437 103.375 247.176C103.29 246.915 103.162 246.688 102.991 246.496C102.821 246.304 102.613 246.155 102.367 246.048C102.122 245.941 101.839 245.888 101.519 245.888C100.863 245.888 100.346 246.077 99.9673 246.456C99.5939 246.835 99.3566 247.36 99.2553 248.032H103.511ZM104.799 251.84C104.607 252.064 104.386 252.259 104.135 252.424C103.885 252.584 103.618 252.715 103.335 252.816C103.053 252.917 102.759 252.992 102.455 253.04C102.157 253.088 101.861 253.112 101.567 253.112C101.007 253.112 100.487 253.019 100.007 252.832C99.5326 252.64 99.1193 252.363 98.7673 252C98.4206 251.632 98.1486 251.179 97.9513 250.64C97.7593 250.096 97.6633 249.472 97.6633 248.768C97.6633 248.203 97.7513 247.677 97.9273 247.192C98.1033 246.701 98.3539 246.275 98.6793 245.912C99.0099 245.549 99.4126 245.264 99.8873 245.056C100.362 244.848 100.895 244.744 101.487 244.744C101.983 244.744 102.439 244.827 102.855 244.992C103.277 245.152 103.639 245.387 103.943 245.696C104.247 246.005 104.485 246.387 104.655 246.84C104.831 247.293 104.919 247.811 104.919 248.392C104.919 248.632 104.893 248.795 104.839 248.88C104.786 248.96 104.687 249 104.543 249H99.2153C99.2313 249.485 99.3006 249.909 99.4233 250.272C99.5459 250.629 99.7139 250.928 99.9273 251.168C100.146 251.408 100.405 251.587 100.703 251.704C101.002 251.821 101.335 251.88 101.703 251.88C102.05 251.88 102.349 251.84 102.599 251.76C102.855 251.68 103.074 251.595 103.255 251.504C103.442 251.408 103.597 251.32 103.719 251.24C103.847 251.16 103.959 251.12 104.055 251.12C104.183 251.12 104.282 251.168 104.351 251.264L104.799 251.84ZM121.667 247.256C121.667 248.115 121.528 248.904 121.251 249.624C120.979 250.339 120.592 250.957 120.091 251.48C119.59 251.997 118.99 252.4 118.291 252.688C117.592 252.976 116.816 253.12 115.963 253.12C115.115 253.12 114.339 252.976 113.635 252.688C112.936 252.4 112.336 251.997 111.835 251.48C111.339 250.957 110.952 250.339 110.675 249.624C110.398 248.904 110.259 248.115 110.259 247.256C110.259 246.403 110.398 245.616 110.675 244.896C110.952 244.176 111.339 243.557 111.835 243.04C112.336 242.517 112.936 242.112 113.635 241.824C114.339 241.531 115.115 241.384 115.963 241.384C116.816 241.384 117.592 241.531 118.291 241.824C118.99 242.112 119.59 242.517 120.091 243.04C120.592 243.557 120.979 244.176 121.251 244.896C121.528 245.616 121.667 246.403 121.667 247.256ZM119.923 247.256C119.923 246.573 119.83 245.96 119.643 245.416C119.456 244.872 119.19 244.411 118.843 244.032C118.502 243.653 118.086 243.363 117.595 243.16C117.11 242.957 116.566 242.856 115.963 242.856C115.36 242.856 114.814 242.957 114.323 243.16C113.838 243.363 113.422 243.653 113.075 244.032C112.728 244.411 112.462 244.872 112.275 245.416C112.088 245.96 111.995 246.573 111.995 247.256C111.995 247.944 112.088 248.56 112.275 249.104C112.462 249.643 112.728 250.101 113.075 250.48C113.422 250.859 113.838 251.149 114.323 251.352C114.814 251.549 115.36 251.648 115.963 251.648C116.566 251.648 117.11 251.549 117.595 251.352C118.086 251.149 118.502 250.859 118.843 250.48C119.19 250.101 119.456 249.643 119.643 249.104C119.83 248.56 119.923 247.944 119.923 247.256ZM123.968 253V246.152L123.12 246.048C122.997 246.021 122.896 245.979 122.816 245.92C122.741 245.856 122.704 245.765 122.704 245.648V245H123.968V244.392C123.968 243.928 124.035 243.515 124.168 243.152C124.301 242.789 124.491 242.483 124.736 242.232C124.987 241.976 125.288 241.784 125.64 241.656C125.992 241.523 126.387 241.456 126.824 241.456C127.181 241.456 127.52 241.509 127.84 241.616L127.8 242.408C127.795 242.472 127.773 242.523 127.736 242.56C127.699 242.592 127.648 242.616 127.584 242.632C127.525 242.648 127.451 242.659 127.36 242.664C127.275 242.664 127.181 242.664 127.08 242.664C126.84 242.664 126.621 242.693 126.424 242.752C126.227 242.811 126.059 242.909 125.92 243.048C125.781 243.187 125.675 243.371 125.6 243.6C125.525 243.824 125.488 244.104 125.488 244.44V245H129.048V244.608C129.048 244.112 129.125 243.656 129.28 243.24C129.44 242.819 129.677 242.456 129.992 242.152C130.307 241.848 130.701 241.613 131.176 241.448C131.651 241.277 132.205 241.192 132.84 241.192C133.043 241.192 133.253 241.205 133.472 241.232C133.696 241.259 133.885 241.299 134.04 241.352L133.984 242.168C133.973 242.275 133.907 242.331 133.784 242.336C133.661 242.341 133.493 242.344 133.28 242.344C132.795 242.344 132.379 242.392 132.032 242.488C131.691 242.584 131.411 242.728 131.192 242.92C130.973 243.112 130.813 243.355 130.712 243.648C130.611 243.936 130.56 244.272 130.56 244.656V245H135.504V253H133.944V246.136H130.608V253H129.048V246.136H125.536V253H123.968ZM143.464 246.392C143.416 246.451 143.368 246.499 143.32 246.536C143.277 246.568 143.213 246.584 143.128 246.584C143.043 246.584 142.952 246.552 142.856 246.488C142.765 246.419 142.648 246.347 142.504 246.272C142.365 246.192 142.195 246.12 141.992 246.056C141.795 245.987 141.549 245.952 141.256 245.952C140.872 245.952 140.533 246.021 140.24 246.16C139.947 246.299 139.701 246.496 139.504 246.752C139.312 247.008 139.165 247.32 139.064 247.688C138.963 248.056 138.912 248.469 138.912 248.928C138.912 249.403 138.965 249.827 139.072 250.2C139.179 250.568 139.331 250.88 139.528 251.136C139.725 251.387 139.965 251.579 140.248 251.712C140.531 251.84 140.845 251.904 141.192 251.904C141.528 251.904 141.805 251.864 142.024 251.784C142.243 251.699 142.424 251.608 142.568 251.512C142.712 251.416 142.832 251.328 142.928 251.248C143.024 251.163 143.123 251.12 143.224 251.12C143.352 251.12 143.451 251.168 143.52 251.264L143.968 251.84C143.781 252.069 143.571 252.264 143.336 252.424C143.107 252.584 142.861 252.715 142.6 252.816C142.339 252.917 142.064 252.992 141.776 253.04C141.493 253.088 141.205 253.112 140.912 253.112C140.405 253.112 139.931 253.019 139.488 252.832C139.051 252.645 138.669 252.373 138.344 252.016C138.024 251.659 137.771 251.221 137.584 250.704C137.397 250.181 137.304 249.589 137.304 248.928C137.304 248.325 137.387 247.768 137.552 247.256C137.723 246.744 137.971 246.304 138.296 245.936C138.627 245.563 139.032 245.272 139.512 245.064C139.992 244.851 140.541 244.744 141.16 244.744C141.741 244.744 142.253 244.837 142.696 245.024C143.139 245.211 143.533 245.475 143.88 245.816L143.464 246.392ZM150.668 248.032C150.668 247.723 150.622 247.437 150.532 247.176C150.446 246.915 150.318 246.688 150.148 246.496C149.977 246.304 149.769 246.155 149.524 246.048C149.278 245.941 148.996 245.888 148.676 245.888C148.02 245.888 147.502 246.077 147.124 246.456C146.75 246.835 146.513 247.36 146.412 248.032H150.668ZM151.956 251.84C151.764 252.064 151.542 252.259 151.292 252.424C151.041 252.584 150.774 252.715 150.492 252.816C150.209 252.917 149.916 252.992 149.612 253.04C149.313 253.088 149.017 253.112 148.724 253.112C148.164 253.112 147.644 253.019 147.164 252.832C146.689 252.64 146.276 252.363 145.924 252C145.577 251.632 145.305 251.179 145.108 250.64C144.916 250.096 144.82 249.472 144.82 248.768C144.82 248.203 144.908 247.677 145.084 247.192C145.26 246.701 145.51 246.275 145.836 245.912C146.166 245.549 146.569 245.264 147.044 245.056C147.518 244.848 148.052 244.744 148.644 244.744C149.14 244.744 149.596 244.827 150.012 244.992C150.433 245.152 150.796 245.387 151.1 245.696C151.404 246.005 151.641 246.387 151.812 246.84C151.988 247.293 152.076 247.811 152.076 248.392C152.076 248.632 152.049 248.795 151.996 248.88C151.942 248.96 151.844 249 151.7 249H146.372C146.388 249.485 146.457 249.909 146.58 250.272C146.702 250.629 146.87 250.928 147.084 251.168C147.302 251.408 147.561 251.587 147.86 251.704C148.158 251.821 148.492 251.88 148.86 251.88C149.206 251.88 149.505 251.84 149.756 251.76C150.012 251.68 150.23 251.595 150.412 251.504C150.598 251.408 150.753 251.32 150.876 251.24C151.004 251.16 151.116 251.12 151.212 251.12C151.34 251.12 151.438 251.168 151.508 251.264L151.956 251.84Z" fill="white"/>
<path d="M377.005 237.4C376.785 237.4 376.585 237.32 376.425 237.16L371.425 231.96C371.125 231.64 371.125 231.14 371.445 230.82C371.765 230.52 372.265 230.52 372.585 230.84L377.005 235.44L381.425 230.84C381.725 230.52 382.245 230.52 382.565 230.82C382.885 231.12 382.885 231.64 382.585 231.96L377.585 237.16C377.425 237.32 377.225 237.4 377.005 237.4Z" fill="white"/>
<path opacity="0.35" d="M65.248 216.936H61.6V227H59.904V216.936H56.24V215.512H65.248V216.936ZM72.3094 218.872L67.7974 229.36C67.7494 229.477 67.6854 229.568 67.6054 229.632C67.5254 229.696 67.408 229.728 67.2534 229.728H66.0934L67.5814 226.488L64.2454 218.872H65.6054C65.7387 218.872 65.8427 218.904 65.9174 218.968C65.992 219.032 66.0454 219.104 66.0774 219.184L68.1414 224.064C68.184 224.187 68.224 224.312 68.2614 224.44C68.304 224.563 68.3387 224.685 68.3654 224.808C68.4027 224.68 68.4427 224.555 68.4854 224.432C68.528 224.304 68.5734 224.179 68.6214 224.056L70.6134 219.184C70.6507 219.093 70.7094 219.019 70.7894 218.96C70.8694 218.901 70.96 218.872 71.0614 218.872H72.3094ZM75.0623 225C75.3183 225.336 75.5929 225.571 75.8863 225.704C76.1849 225.837 76.5183 225.904 76.8863 225.904C77.6009 225.904 78.1529 225.648 78.5423 225.136C78.9369 224.619 79.1343 223.867 79.1343 222.88C79.1343 222.363 79.0889 221.923 78.9983 221.56C78.9129 221.192 78.7849 220.893 78.6143 220.664C78.4489 220.429 78.2436 220.259 77.9983 220.152C77.7529 220.04 77.4756 219.984 77.1663 219.984C76.7129 219.984 76.3183 220.085 75.9823 220.288C75.6516 220.491 75.3449 220.779 75.0623 221.152V225ZM74.9823 220.088C75.1529 219.885 75.3343 219.701 75.5263 219.536C75.7236 219.365 75.9343 219.221 76.1583 219.104C76.3823 218.981 76.6196 218.888 76.8703 218.824C77.1263 218.755 77.3983 218.72 77.6863 218.72C78.1503 218.72 78.5689 218.811 78.9423 218.992C79.3209 219.173 79.6436 219.44 79.9103 219.792C80.1769 220.144 80.3823 220.579 80.5263 221.096C80.6756 221.613 80.7503 222.208 80.7503 222.88C80.7503 223.483 80.6676 224.043 80.5023 224.56C80.3423 225.072 80.1103 225.517 79.8063 225.896C79.5076 226.275 79.1396 226.573 78.7023 226.792C78.2703 227.005 77.7823 227.112 77.2383 227.112C76.7529 227.112 76.3369 227.032 75.9903 226.872C75.6436 226.712 75.3343 226.488 75.0623 226.2V229.728H73.5023V218.872H74.4383C74.6569 218.872 74.7929 218.976 74.8463 219.184L74.9823 220.088ZM87.8863 222.032C87.8863 221.723 87.8409 221.437 87.7503 221.176C87.6649 220.915 87.5369 220.688 87.3663 220.496C87.1956 220.304 86.9876 220.155 86.7423 220.048C86.4969 219.941 86.2143 219.888 85.8943 219.888C85.2383 219.888 84.7209 220.077 84.3423 220.456C83.9689 220.835 83.7316 221.36 83.6303 222.032H87.8863ZM89.1743 225.84C88.9823 226.064 88.7609 226.259 88.5103 226.424C88.2596 226.584 87.9929 226.715 87.7103 226.816C87.4276 226.917 87.1343 226.992 86.8303 227.04C86.5316 227.088 86.2356 227.112 85.9423 227.112C85.3823 227.112 84.8623 227.019 84.3823 226.832C83.9076 226.64 83.4943 226.363 83.1423 226C82.7956 225.632 82.5236 225.179 82.3263 224.64C82.1343 224.096 82.0383 223.472 82.0383 222.768C82.0383 222.203 82.1263 221.677 82.3023 221.192C82.4783 220.701 82.7289 220.275 83.0543 219.912C83.3849 219.549 83.7876 219.264 84.2623 219.056C84.7369 218.848 85.2703 218.744 85.8623 218.744C86.3583 218.744 86.8143 218.827 87.2303 218.992C87.6516 219.152 88.0143 219.387 88.3183 219.696C88.6223 220.005 88.8596 220.387 89.0303 220.84C89.2063 221.293 89.2943 221.811 89.2943 222.392C89.2943 222.632 89.2676 222.795 89.2143 222.88C89.1609 222.96 89.0623 223 88.9183 223H83.5903C83.6063 223.485 83.6756 223.909 83.7983 224.272C83.9209 224.629 84.0889 224.928 84.3023 225.168C84.5209 225.408 84.7796 225.587 85.0783 225.704C85.3769 225.821 85.7103 225.88 86.0783 225.88C86.4249 225.88 86.7236 225.84 86.9743 225.76C87.2303 225.68 87.4489 225.595 87.6303 225.504C87.8169 225.408 87.9716 225.32 88.0943 225.24C88.2223 225.16 88.3343 225.12 88.4303 225.12C88.5583 225.12 88.6569 225.168 88.7263 225.264L89.1743 225.84Z" fill="white"/>
<rect x="40" y="115" width="365" height="68" fill="#0D2C4A"/>
<path d="M69.496 156.512V168H68.008V159.824C68.008 159.701 68.0107 159.571 68.016 159.432C68.0267 159.293 68.0373 159.152 68.048 159.008L64.224 166.024C64.0907 166.285 63.8853 166.416 63.608 166.416H63.368C63.0907 166.416 62.888 166.285 62.76 166.024L58.864 158.984C58.896 159.283 58.912 159.563 58.912 159.824V168H57.416V156.512H58.68C58.8293 156.512 58.944 156.528 59.024 156.56C59.1093 156.587 59.1893 156.667 59.264 156.8L63.104 163.68C63.1787 163.819 63.248 163.965 63.312 164.12C63.376 164.275 63.4373 164.429 63.496 164.584C63.608 164.269 63.7387 163.965 63.888 163.672L67.656 156.8C67.7253 156.667 67.8 156.587 67.88 156.56C67.9653 156.528 68.0827 156.512 68.232 156.512H69.496ZM76.1515 164.392C75.5168 164.413 74.9782 164.464 74.5355 164.544C74.0928 164.619 73.7328 164.72 73.4555 164.848C73.1782 164.976 72.9782 165.128 72.8555 165.304C72.7328 165.475 72.6715 165.667 72.6715 165.88C72.6715 166.083 72.7035 166.259 72.7675 166.408C72.8368 166.552 72.9275 166.672 73.0395 166.768C73.1568 166.859 73.2928 166.925 73.4475 166.968C73.6022 167.011 73.7702 167.032 73.9515 167.032C74.1915 167.032 74.4102 167.008 74.6075 166.96C74.8102 166.912 74.9995 166.845 75.1755 166.76C75.3515 166.669 75.5195 166.56 75.6795 166.432C75.8395 166.304 75.9968 166.157 76.1515 165.992V164.392ZM71.5755 161.008C72.0288 160.576 72.5195 160.253 73.0475 160.04C73.5808 159.827 74.1648 159.72 74.7995 159.72C75.2635 159.72 75.6742 159.797 76.0315 159.952C76.3888 160.101 76.6902 160.312 76.9355 160.584C77.1808 160.856 77.3648 161.181 77.4875 161.56C77.6155 161.939 77.6795 162.357 77.6795 162.816V168H76.9835C76.8288 168 76.7115 167.976 76.6315 167.928C76.5515 167.875 76.4875 167.779 76.4395 167.64L76.2715 166.928C76.0635 167.12 75.8582 167.291 75.6555 167.44C75.4528 167.584 75.2395 167.709 75.0155 167.816C74.7968 167.917 74.5622 167.995 74.3115 168.048C74.0608 168.101 73.7835 168.128 73.4795 168.128C73.1595 168.128 72.8582 168.085 72.5755 168C72.2982 167.909 72.0555 167.773 71.8475 167.592C71.6395 167.411 71.4742 167.184 71.3515 166.912C71.2342 166.64 71.1755 166.323 71.1755 165.96C71.1755 165.64 71.2608 165.333 71.4315 165.04C71.6075 164.741 71.8902 164.475 72.2795 164.24C72.6742 164.005 73.1862 163.813 73.8155 163.664C74.4502 163.515 75.2288 163.429 76.1515 163.408V162.816C76.1515 162.203 76.0208 161.744 75.7595 161.44C75.4982 161.136 75.1142 160.984 74.6075 160.984C74.2662 160.984 73.9782 161.027 73.7435 161.112C73.5142 161.197 73.3142 161.293 73.1435 161.4C72.9782 161.501 72.8315 161.595 72.7035 161.68C72.5808 161.765 72.4528 161.808 72.3195 161.808C72.2128 161.808 72.1195 161.779 72.0395 161.72C71.9648 161.661 71.9035 161.592 71.8555 161.512L71.5755 161.008ZM81.3679 156.192V168H79.7999V156.192H81.3679ZM87.964 164.392C87.3293 164.413 86.7907 164.464 86.348 164.544C85.9053 164.619 85.5453 164.72 85.268 164.848C84.9907 164.976 84.7907 165.128 84.668 165.304C84.5453 165.475 84.484 165.667 84.484 165.88C84.484 166.083 84.516 166.259 84.58 166.408C84.6493 166.552 84.74 166.672 84.852 166.768C84.9693 166.859 85.1053 166.925 85.26 166.968C85.4147 167.011 85.5827 167.032 85.764 167.032C86.004 167.032 86.2227 167.008 86.42 166.96C86.6227 166.912 86.812 166.845 86.988 166.76C87.164 166.669 87.332 166.56 87.492 166.432C87.652 166.304 87.8093 166.157 87.964 165.992V164.392ZM83.388 161.008C83.8413 160.576 84.332 160.253 84.86 160.04C85.3933 159.827 85.9773 159.72 86.612 159.72C87.076 159.72 87.4867 159.797 87.844 159.952C88.2013 160.101 88.5027 160.312 88.748 160.584C88.9933 160.856 89.1773 161.181 89.3 161.56C89.428 161.939 89.492 162.357 89.492 162.816V168H88.796C88.6413 168 88.524 167.976 88.444 167.928C88.364 167.875 88.3 167.779 88.252 167.64L88.084 166.928C87.876 167.12 87.6707 167.291 87.468 167.44C87.2653 167.584 87.052 167.709 86.828 167.816C86.6093 167.917 86.3747 167.995 86.124 168.048C85.8733 168.101 85.596 168.128 85.292 168.128C84.972 168.128 84.6707 168.085 84.388 168C84.1107 167.909 83.868 167.773 83.66 167.592C83.452 167.411 83.2867 167.184 83.164 166.912C83.0467 166.64 82.988 166.323 82.988 165.96C82.988 165.64 83.0733 165.333 83.244 165.04C83.42 164.741 83.7027 164.475 84.092 164.24C84.4867 164.005 84.9987 163.813 85.628 163.664C86.2627 163.515 87.0413 163.429 87.964 163.408V162.816C87.964 162.203 87.8333 161.744 87.572 161.44C87.3107 161.136 86.9267 160.984 86.42 160.984C86.0787 160.984 85.7907 161.027 85.556 161.112C85.3267 161.197 85.1267 161.293 84.956 161.4C84.7907 161.501 84.644 161.595 84.516 161.68C84.3933 161.765 84.2653 161.808 84.132 161.808C84.0253 161.808 83.932 161.779 83.852 161.72C83.7773 161.661 83.716 161.592 83.668 161.512L83.388 161.008ZM93.0444 161C93.2204 160.813 93.4044 160.643 93.5964 160.488C93.7884 160.333 93.991 160.203 94.2044 160.096C94.423 159.984 94.655 159.899 94.9004 159.84C95.151 159.776 95.4177 159.744 95.7004 159.744C96.1484 159.744 96.5404 159.819 96.8764 159.968C97.2177 160.117 97.503 160.328 97.7324 160.6C97.9617 160.867 98.135 161.189 98.2524 161.568C98.3697 161.947 98.4284 162.365 98.4284 162.824V168H96.8604V162.824C96.8604 162.243 96.727 161.792 96.4604 161.472C96.1937 161.147 95.7857 160.984 95.2364 160.984C94.8364 160.984 94.4604 161.08 94.1084 161.272C93.7617 161.459 93.439 161.715 93.1404 162.04V168H91.5804V159.872H92.5164C92.735 159.872 92.871 159.976 92.9244 160.184L93.0444 161ZM103.39 163.944C103.667 163.944 103.91 163.907 104.118 163.832C104.331 163.757 104.507 163.653 104.646 163.52C104.79 163.381 104.896 163.216 104.966 163.024C105.04 162.832 105.078 162.621 105.078 162.392C105.078 161.923 104.934 161.549 104.646 161.272C104.363 160.989 103.944 160.848 103.39 160.848C102.84 160.848 102.422 160.989 102.134 161.272C101.851 161.549 101.71 161.923 101.71 162.392C101.71 162.621 101.744 162.832 101.814 163.024C101.888 163.211 101.995 163.373 102.134 163.512C102.278 163.645 102.454 163.752 102.662 163.832C102.875 163.907 103.118 163.944 103.39 163.944ZM105.878 168.424C105.878 168.232 105.824 168.08 105.718 167.968C105.611 167.851 105.464 167.76 105.278 167.696C105.096 167.627 104.883 167.579 104.638 167.552C104.392 167.52 104.134 167.496 103.862 167.48C103.595 167.464 103.32 167.451 103.038 167.44C102.755 167.424 102.483 167.397 102.222 167.36C101.944 167.499 101.715 167.667 101.534 167.864C101.358 168.061 101.27 168.293 101.27 168.56C101.27 168.731 101.312 168.891 101.398 169.04C101.488 169.189 101.624 169.317 101.806 169.424C101.992 169.536 102.224 169.621 102.502 169.68C102.784 169.744 103.12 169.776 103.51 169.776C103.894 169.776 104.232 169.741 104.526 169.672C104.819 169.608 105.064 169.515 105.262 169.392C105.464 169.275 105.616 169.133 105.718 168.968C105.824 168.803 105.878 168.621 105.878 168.424ZM107.462 160.176V160.76C107.462 160.952 107.342 161.072 107.102 161.12L106.23 161.248C106.304 161.413 106.363 161.589 106.406 161.776C106.448 161.957 106.47 162.149 106.47 162.352C106.47 162.752 106.392 163.115 106.238 163.44C106.083 163.76 105.87 164.035 105.598 164.264C105.326 164.493 105 164.669 104.622 164.792C104.248 164.915 103.838 164.976 103.39 164.976C103.022 164.976 102.678 164.936 102.358 164.856C102.198 164.952 102.075 165.059 101.99 165.176C101.91 165.288 101.87 165.4 101.87 165.512C101.87 165.699 101.947 165.837 102.102 165.928C102.262 166.019 102.467 166.085 102.718 166.128C102.974 166.165 103.264 166.189 103.59 166.2C103.92 166.211 104.254 166.229 104.59 166.256C104.931 166.277 105.264 166.32 105.59 166.384C105.92 166.443 106.211 166.541 106.462 166.68C106.718 166.813 106.923 167 107.078 167.24C107.238 167.475 107.318 167.781 107.318 168.16C107.318 168.512 107.23 168.853 107.054 169.184C106.883 169.515 106.632 169.808 106.302 170.064C105.971 170.32 105.568 170.525 105.094 170.68C104.619 170.835 104.08 170.912 103.477 170.912C102.875 170.912 102.35 170.853 101.902 170.736C101.459 170.619 101.088 170.461 100.79 170.264C100.496 170.067 100.275 169.837 100.126 169.576C99.9815 169.315 99.9095 169.043 99.9095 168.76C99.9095 168.365 100.032 168.032 100.278 167.76C100.523 167.483 100.862 167.267 101.294 167.112C101.059 167.005 100.872 166.861 100.734 166.68C100.595 166.493 100.526 166.248 100.526 165.944C100.526 165.827 100.547 165.707 100.59 165.584C100.632 165.456 100.696 165.331 100.782 165.208C100.872 165.08 100.982 164.96 101.11 164.848C101.243 164.736 101.395 164.635 101.566 164.544C101.166 164.32 100.851 164.024 100.622 163.656C100.392 163.283 100.278 162.848 100.278 162.352C100.278 161.952 100.355 161.592 100.51 161.272C100.664 160.952 100.878 160.677 101.15 160.448C101.427 160.219 101.755 160.043 102.134 159.92C102.518 159.797 102.936 159.736 103.39 159.736C104.094 159.736 104.699 159.883 105.206 160.176H107.462ZM109.597 168C109.453 168 109.32 167.973 109.197 167.92C109.08 167.867 108.976 167.795 108.885 167.704C108.8 167.608 108.733 167.496 108.685 167.368C108.637 167.24 108.613 167.101 108.613 166.952C108.613 166.824 108.637 166.704 108.685 166.592C108.733 166.475 108.8 166.373 108.885 166.288C108.976 166.203 109.082 166.136 109.205 166.088C109.328 166.035 109.464 166.008 109.613 166.008C109.784 166.008 109.933 166.04 110.061 166.104C110.194 166.163 110.304 166.248 110.389 166.36C110.48 166.467 110.546 166.592 110.589 166.736C110.632 166.88 110.653 167.035 110.653 167.2C110.653 167.44 110.618 167.693 110.549 167.96C110.48 168.227 110.378 168.491 110.245 168.752C110.112 169.013 109.946 169.267 109.749 169.512C109.552 169.757 109.328 169.984 109.077 170.192L108.813 169.944C108.733 169.869 108.693 169.787 108.693 169.696C108.693 169.659 108.704 169.619 108.725 169.576C108.752 169.539 108.784 169.501 108.821 169.464C108.874 169.405 108.944 169.328 109.029 169.232C109.114 169.136 109.197 169.024 109.277 168.896C109.362 168.773 109.44 168.635 109.509 168.48C109.584 168.331 109.637 168.171 109.669 168H109.597ZM118.628 168H116.916V156.512H118.628V168ZM122.482 161C122.658 160.813 122.842 160.643 123.034 160.488C123.226 160.333 123.429 160.203 123.642 160.096C123.861 159.984 124.093 159.899 124.338 159.84C124.589 159.776 124.855 159.744 125.138 159.744C125.586 159.744 125.978 159.819 126.314 159.968C126.655 160.117 126.941 160.328 127.17 160.6C127.399 160.867 127.573 161.189 127.69 161.568C127.807 161.947 127.866 162.365 127.866 162.824V168H126.298V162.824C126.298 162.243 126.165 161.792 125.898 161.472C125.631 161.147 125.223 160.984 124.674 160.984C124.274 160.984 123.898 161.08 123.546 161.272C123.199 161.459 122.877 161.715 122.578 162.04V168H121.018V159.872H121.954C122.173 159.872 122.309 159.976 122.362 160.184L122.482 161ZM135.211 161.84C134.955 161.504 134.678 161.269 134.379 161.136C134.086 161.003 133.755 160.936 133.387 160.936C132.672 160.936 132.118 161.195 131.723 161.712C131.334 162.224 131.139 162.973 131.139 163.96C131.139 164.477 131.182 164.92 131.267 165.288C131.358 165.651 131.486 165.949 131.651 166.184C131.822 166.413 132.03 166.584 132.275 166.696C132.52 166.803 132.798 166.856 133.107 166.856C133.56 166.856 133.952 166.755 134.283 166.552C134.614 166.349 134.923 166.064 135.211 165.696V161.84ZM136.779 156.192V168H135.835C135.616 168 135.48 167.896 135.427 167.688L135.291 166.752C134.944 167.163 134.55 167.493 134.107 167.744C133.67 167.989 133.163 168.112 132.587 168.112C132.123 168.112 131.702 168.021 131.323 167.84C130.95 167.659 130.63 167.395 130.363 167.048C130.096 166.696 129.891 166.261 129.747 165.744C129.603 165.227 129.531 164.632 129.531 163.96C129.531 163.357 129.611 162.797 129.771 162.28C129.931 161.763 130.163 161.315 130.467 160.936C130.771 160.557 131.139 160.261 131.571 160.048C132.003 159.829 132.491 159.72 133.035 159.72C133.526 159.72 133.942 159.8 134.283 159.96C134.63 160.12 134.939 160.347 135.211 160.64V156.192H136.779ZM142.419 159.744C143.017 159.744 143.555 159.843 144.035 160.04C144.521 160.232 144.931 160.512 145.267 160.88C145.609 161.243 145.87 161.683 146.051 162.2C146.233 162.712 146.323 163.288 146.323 163.928C146.323 164.568 146.233 165.147 146.051 165.664C145.87 166.181 145.609 166.621 145.267 166.984C144.931 167.347 144.521 167.627 144.035 167.824C143.555 168.016 143.017 168.112 142.419 168.112C141.817 168.112 141.273 168.016 140.787 167.824C140.307 167.627 139.897 167.347 139.555 166.984C139.214 166.621 138.95 166.181 138.763 165.664C138.582 165.147 138.491 164.568 138.491 163.928C138.491 163.288 138.582 162.712 138.763 162.2C138.95 161.683 139.214 161.243 139.555 160.88C139.897 160.512 140.307 160.232 140.787 160.04C141.273 159.843 141.817 159.744 142.419 159.744ZM142.419 166.896C143.187 166.896 143.761 166.637 144.139 166.12C144.518 165.603 144.707 164.875 144.707 163.936C144.707 162.997 144.518 162.269 144.139 161.752C143.761 161.229 143.187 160.968 142.419 160.968C141.641 160.968 141.059 161.229 140.675 161.752C140.297 162.269 140.107 162.997 140.107 163.936C140.107 164.875 140.297 165.603 140.675 166.12C141.059 166.637 141.641 166.896 142.419 166.896ZM149.529 161C149.705 160.813 149.889 160.643 150.081 160.488C150.273 160.333 150.475 160.203 150.689 160.096C150.907 159.984 151.139 159.899 151.385 159.84C151.635 159.776 151.902 159.744 152.185 159.744C152.633 159.744 153.025 159.819 153.361 159.968C153.702 160.117 153.987 160.328 154.217 160.6C154.446 160.867 154.619 161.189 154.737 161.568C154.854 161.947 154.913 162.365 154.913 162.824V168H153.345V162.824C153.345 162.243 153.211 161.792 152.945 161.472C152.678 161.147 152.27 160.984 151.721 160.984C151.321 160.984 150.945 161.08 150.593 161.272C150.246 161.459 149.923 161.715 149.625 162.04V168H148.065V159.872H149.001C149.219 159.872 149.355 159.976 149.409 160.184L149.529 161ZM162.402 163.032C162.402 162.723 162.357 162.437 162.266 162.176C162.181 161.915 162.053 161.688 161.882 161.496C161.711 161.304 161.503 161.155 161.258 161.048C161.013 160.941 160.73 160.888 160.41 160.888C159.754 160.888 159.237 161.077 158.858 161.456C158.485 161.835 158.247 162.36 158.146 163.032H162.402ZM163.69 166.84C163.498 167.064 163.277 167.259 163.026 167.424C162.775 167.584 162.509 167.715 162.226 167.816C161.943 167.917 161.65 167.992 161.346 168.04C161.047 168.088 160.751 168.112 160.458 168.112C159.898 168.112 159.378 168.019 158.898 167.832C158.423 167.64 158.01 167.363 157.658 167C157.311 166.632 157.039 166.179 156.842 165.64C156.65 165.096 156.554 164.472 156.554 163.768C156.554 163.203 156.642 162.677 156.818 162.192C156.994 161.701 157.245 161.275 157.57 160.912C157.901 160.549 158.303 160.264 158.778 160.056C159.253 159.848 159.786 159.744 160.378 159.744C160.874 159.744 161.33 159.827 161.746 159.992C162.167 160.152 162.53 160.387 162.834 160.696C163.138 161.005 163.375 161.387 163.546 161.84C163.722 162.293 163.81 162.811 163.81 163.392C163.81 163.632 163.783 163.795 163.73 163.88C163.677 163.96 163.578 164 163.434 164H158.106C158.122 164.485 158.191 164.909 158.314 165.272C158.437 165.629 158.605 165.928 158.818 166.168C159.037 166.408 159.295 166.587 159.594 166.704C159.893 166.821 160.226 166.88 160.594 166.88C160.941 166.88 161.239 166.84 161.49 166.76C161.746 166.68 161.965 166.595 162.146 166.504C162.333 166.408 162.487 166.32 162.61 166.24C162.738 166.16 162.85 166.12 162.946 166.12C163.074 166.12 163.173 166.168 163.242 166.264L163.69 166.84ZM170.279 161.272C170.236 161.341 170.191 161.392 170.143 161.424C170.095 161.451 170.033 161.464 169.959 161.464C169.873 161.464 169.777 161.435 169.671 161.376C169.569 161.317 169.444 161.253 169.295 161.184C169.151 161.115 168.98 161.051 168.783 160.992C168.585 160.933 168.351 160.904 168.079 160.904C167.855 160.904 167.649 160.933 167.463 160.992C167.281 161.045 167.127 161.123 166.999 161.224C166.871 161.32 166.772 161.437 166.703 161.576C166.633 161.709 166.599 161.853 166.599 162.008C166.599 162.211 166.657 162.379 166.775 162.512C166.897 162.645 167.055 162.76 167.247 162.856C167.444 162.952 167.665 163.04 167.911 163.12C168.161 163.195 168.415 163.275 168.671 163.36C168.932 163.445 169.185 163.544 169.431 163.656C169.681 163.763 169.903 163.899 170.095 164.064C170.292 164.224 170.449 164.419 170.567 164.648C170.689 164.877 170.751 165.157 170.751 165.488C170.751 165.867 170.681 166.219 170.543 166.544C170.409 166.864 170.209 167.141 169.943 167.376C169.681 167.611 169.356 167.795 168.967 167.928C168.577 168.061 168.132 168.128 167.631 168.128C167.071 168.128 166.553 168.035 166.079 167.848C165.604 167.661 165.207 167.424 164.887 167.136L165.255 166.536C165.297 166.461 165.351 166.405 165.415 166.368C165.479 166.325 165.564 166.304 165.671 166.304C165.772 166.304 165.876 166.341 165.983 166.416C166.089 166.491 166.217 166.573 166.367 166.664C166.516 166.749 166.697 166.829 166.911 166.904C167.124 166.973 167.391 167.008 167.711 167.008C167.977 167.008 168.209 166.976 168.407 166.912C168.604 166.843 168.767 166.752 168.895 166.64C169.028 166.523 169.127 166.389 169.191 166.24C169.255 166.091 169.287 165.933 169.287 165.768C169.287 165.555 169.225 165.379 169.103 165.24C168.985 165.096 168.828 164.973 168.631 164.872C168.439 164.771 168.217 164.683 167.967 164.608C167.716 164.533 167.46 164.453 167.199 164.368C166.937 164.283 166.681 164.184 166.431 164.072C166.18 163.96 165.956 163.819 165.759 163.648C165.567 163.477 165.409 163.269 165.287 163.024C165.169 162.779 165.111 162.48 165.111 162.128C165.111 161.813 165.175 161.512 165.303 161.224C165.436 160.936 165.625 160.683 165.871 160.464C166.121 160.245 166.428 160.072 166.791 159.944C167.159 159.811 167.577 159.744 168.047 159.744C168.585 159.744 169.071 159.829 169.503 160C169.94 160.171 170.313 160.405 170.623 160.704L170.279 161.272ZM174.072 159.872V168H172.512V159.872H174.072ZM174.368 157.36C174.368 157.504 174.338 157.643 174.28 157.776C174.221 157.904 174.141 158.019 174.04 158.12C173.944 158.216 173.829 158.293 173.696 158.352C173.562 158.405 173.424 158.432 173.28 158.432C173.136 158.432 173 158.405 172.872 158.352C172.744 158.293 172.629 158.216 172.528 158.12C172.432 158.019 172.354 157.904 172.296 157.776C172.242 157.643 172.216 157.504 172.216 157.36C172.216 157.211 172.242 157.072 172.296 156.944C172.354 156.811 172.432 156.696 172.528 156.6C172.629 156.499 172.744 156.421 172.872 156.368C173 156.309 173.136 156.28 173.28 156.28C173.424 156.28 173.562 156.309 173.696 156.368C173.829 156.421 173.944 156.499 174.04 156.6C174.141 156.696 174.221 156.811 174.28 156.944C174.338 157.072 174.368 157.211 174.368 157.36ZM180.698 164.392C180.064 164.413 179.525 164.464 179.082 164.544C178.64 164.619 178.28 164.72 178.002 164.848C177.725 164.976 177.525 165.128 177.402 165.304C177.28 165.475 177.218 165.667 177.218 165.88C177.218 166.083 177.25 166.259 177.314 166.408C177.384 166.552 177.474 166.672 177.586 166.768C177.704 166.859 177.84 166.925 177.994 166.968C178.149 167.011 178.317 167.032 178.498 167.032C178.738 167.032 178.957 167.008 179.154 166.96C179.357 166.912 179.546 166.845 179.722 166.76C179.898 166.669 180.066 166.56 180.226 166.432C180.386 166.304 180.544 166.157 180.698 165.992V164.392ZM176.122 161.008C176.576 160.576 177.066 160.253 177.594 160.04C178.128 159.827 178.712 159.72 179.346 159.72C179.81 159.72 180.221 159.797 180.578 159.952C180.936 160.101 181.237 160.312 181.482 160.584C181.728 160.856 181.912 161.181 182.034 161.56C182.162 161.939 182.226 162.357 182.226 162.816V168H181.53C181.376 168 181.258 167.976 181.178 167.928C181.098 167.875 181.034 167.779 180.986 167.64L180.818 166.928C180.61 167.12 180.405 167.291 180.202 167.44C180 167.584 179.786 167.709 179.562 167.816C179.344 167.917 179.109 167.995 178.858 168.048C178.608 168.101 178.33 168.128 178.026 168.128C177.706 168.128 177.405 168.085 177.122 168C176.845 167.909 176.602 167.773 176.394 167.592C176.186 167.411 176.021 167.184 175.898 166.912C175.781 166.64 175.722 166.323 175.722 165.96C175.722 165.64 175.808 165.333 175.978 165.04C176.154 164.741 176.437 164.475 176.826 164.24C177.221 164.005 177.733 163.813 178.362 163.664C178.997 163.515 179.776 163.429 180.698 163.408V162.816C180.698 162.203 180.568 161.744 180.306 161.44C180.045 161.136 179.661 160.984 179.154 160.984C178.813 160.984 178.525 161.027 178.29 161.112C178.061 161.197 177.861 161.293 177.69 161.4C177.525 161.501 177.378 161.595 177.25 161.68C177.128 161.765 177 161.808 176.866 161.808C176.76 161.808 176.666 161.779 176.586 161.72C176.512 161.661 176.45 161.592 176.402 161.512L176.122 161.008Z" fill="white"/>
<path d="M377.005 152.4C376.785 152.4 376.585 152.32 376.425 152.16L371.425 146.96C371.125 146.64 371.125 146.14 371.445 145.82C371.765 145.52 372.265 145.52 372.585 145.84L377.005 150.44L381.425 145.84C381.725 145.52 382.245 145.52 382.565 145.82C382.885 146.12 382.885 146.64 382.585 146.96L377.585 152.16C377.425 152.32 377.225 152.4 377.005 152.4Z" fill="white"/>
<path opacity="0.35" d="M63.992 140.568V142H57.416V130.512H59.12V140.568H63.992ZM68.2631 133.744C68.8605 133.744 69.3991 133.843 69.8791 134.04C70.3645 134.232 70.7751 134.512 71.1111 134.88C71.4525 135.243 71.7138 135.683 71.8951 136.2C72.0765 136.712 72.1671 137.288 72.1671 137.928C72.1671 138.568 72.0765 139.147 71.8951 139.664C71.7138 140.181 71.4525 140.621 71.1111 140.984C70.7751 141.347 70.3645 141.627 69.8791 141.824C69.3991 142.016 68.8605 142.112 68.2631 142.112C67.6605 142.112 67.1165 142.016 66.6311 141.824C66.1511 141.627 65.7405 141.347 65.3991 140.984C65.0578 140.621 64.7938 140.181 64.6071 139.664C64.4258 139.147 64.3351 138.568 64.3351 137.928C64.3351 137.288 64.4258 136.712 64.6071 136.2C64.7938 135.683 65.0578 135.243 65.3991 134.88C65.7405 134.512 66.1511 134.232 66.6311 134.04C67.1165 133.843 67.6605 133.744 68.2631 133.744ZM68.2631 140.896C69.0311 140.896 69.6045 140.637 69.9831 140.12C70.3618 139.603 70.5511 138.875 70.5511 137.936C70.5511 136.997 70.3618 136.269 69.9831 135.752C69.6045 135.229 69.0311 134.968 68.2631 134.968C67.4845 134.968 66.9031 135.229 66.5191 135.752C66.1405 136.269 65.9511 136.997 65.9511 137.936C65.9511 138.875 66.1405 139.603 66.5191 140.12C66.9031 140.637 67.4845 140.896 68.2631 140.896ZM79.6045 135.392C79.5565 135.451 79.5085 135.499 79.4605 135.536C79.4178 135.568 79.3538 135.584 79.2685 135.584C79.1832 135.584 79.0925 135.552 78.9965 135.488C78.9058 135.419 78.7885 135.347 78.6445 135.272C78.5058 135.192 78.3352 135.12 78.1325 135.056C77.9352 134.987 77.6898 134.952 77.3965 134.952C77.0125 134.952 76.6738 135.021 76.3805 135.16C76.0872 135.299 75.8418 135.496 75.6445 135.752C75.4525 136.008 75.3058 136.32 75.2045 136.688C75.1032 137.056 75.0525 137.469 75.0525 137.928C75.0525 138.403 75.1058 138.827 75.2125 139.2C75.3192 139.568 75.4712 139.88 75.6685 140.136C75.8658 140.387 76.1058 140.579 76.3885 140.712C76.6712 140.84 76.9858 140.904 77.3325 140.904C77.6685 140.904 77.9458 140.864 78.1645 140.784C78.3832 140.699 78.5645 140.608 78.7085 140.512C78.8525 140.416 78.9725 140.328 79.0685 140.248C79.1645 140.163 79.2632 140.12 79.3645 140.12C79.4925 140.12 79.5912 140.168 79.6605 140.264L80.1085 140.84C79.9218 141.069 79.7112 141.264 79.4765 141.424C79.2472 141.584 79.0018 141.715 78.7405 141.816C78.4792 141.917 78.2045 141.992 77.9165 142.04C77.6338 142.088 77.3458 142.112 77.0525 142.112C76.5458 142.112 76.0712 142.019 75.6285 141.832C75.1912 141.645 74.8098 141.373 74.4845 141.016C74.1645 140.659 73.9112 140.221 73.7245 139.704C73.5378 139.181 73.4445 138.589 73.4445 137.928C73.4445 137.325 73.5272 136.768 73.6925 136.256C73.8632 135.744 74.1112 135.304 74.4365 134.936C74.7672 134.563 75.1725 134.272 75.6525 134.064C76.1325 133.851 76.6818 133.744 77.3005 133.744C77.8818 133.744 78.3938 133.837 78.8365 134.024C79.2792 134.211 79.6738 134.475 80.0205 134.816L79.6045 135.392ZM85.9328 138.392C85.2981 138.413 84.7594 138.464 84.3168 138.544C83.8741 138.619 83.5141 138.72 83.2368 138.848C82.9594 138.976 82.7594 139.128 82.6368 139.304C82.5141 139.475 82.4528 139.667 82.4528 139.88C82.4528 140.083 82.4848 140.259 82.5488 140.408C82.6181 140.552 82.7088 140.672 82.8207 140.768C82.9381 140.859 83.0741 140.925 83.2288 140.968C83.3834 141.011 83.5514 141.032 83.7328 141.032C83.9728 141.032 84.1914 141.008 84.3888 140.96C84.5914 140.912 84.7808 140.845 84.9568 140.76C85.1328 140.669 85.3008 140.56 85.4608 140.432C85.6208 140.304 85.7781 140.157 85.9328 139.992V138.392ZM81.3568 135.008C81.8101 134.576 82.3008 134.253 82.8288 134.04C83.3621 133.827 83.9461 133.72 84.5807 133.72C85.0448 133.72 85.4554 133.797 85.8128 133.952C86.1701 134.101 86.4714 134.312 86.7168 134.584C86.9621 134.856 87.1461 135.181 87.2688 135.56C87.3968 135.939 87.4608 136.357 87.4608 136.816V142H86.7648C86.6101 142 86.4928 141.976 86.4128 141.928C86.3328 141.875 86.2688 141.779 86.2208 141.64L86.0528 140.928C85.8448 141.12 85.6394 141.291 85.4368 141.44C85.2341 141.584 85.0208 141.709 84.7968 141.816C84.5781 141.917 84.3434 141.995 84.0928 142.048C83.8421 142.101 83.5648 142.128 83.2608 142.128C82.9408 142.128 82.6394 142.085 82.3568 142C82.0794 141.909 81.8368 141.773 81.6288 141.592C81.4208 141.411 81.2554 141.184 81.1328 140.912C81.0154 140.64 80.9568 140.323 80.9568 139.96C80.9568 139.64 81.0421 139.333 81.2128 139.04C81.3888 138.741 81.6714 138.475 82.0608 138.24C82.4554 138.005 82.9674 137.813 83.5968 137.664C84.2314 137.515 85.0101 137.429 85.9328 137.408V136.816C85.9328 136.203 85.8021 135.744 85.5408 135.44C85.2794 135.136 84.8954 134.984 84.3888 134.984C84.0474 134.984 83.7594 135.027 83.5248 135.112C83.2954 135.197 83.0954 135.293 82.9248 135.4C82.7594 135.501 82.6128 135.595 82.4848 135.68C82.3621 135.765 82.2341 135.808 82.1008 135.808C81.9941 135.808 81.9008 135.779 81.8208 135.72C81.7461 135.661 81.6848 135.592 81.6368 135.512L81.3568 135.008ZM97.1438 142H95.5758V135.136H91.4958V139.896C91.4958 140.216 91.5731 140.456 91.7278 140.616C91.8878 140.771 92.0904 140.848 92.3358 140.848C92.4798 140.848 92.6024 140.829 92.7038 140.792C92.8104 140.755 92.9011 140.715 92.9758 140.672C93.0504 140.624 93.1144 140.581 93.1678 140.544C93.2211 140.507 93.2691 140.488 93.3118 140.488C93.3651 140.488 93.4051 140.501 93.4318 140.528C93.4638 140.549 93.4958 140.587 93.5278 140.64L93.9918 141.392C93.7358 141.627 93.4318 141.808 93.0798 141.936C92.7278 142.064 92.3624 142.128 91.9838 142.128C91.3278 142.128 90.8211 141.944 90.4638 141.576C90.1118 141.208 89.9358 140.683 89.9358 140V135.136H88.9918C88.9011 135.136 88.8238 135.109 88.7598 135.056C88.7011 134.997 88.6718 134.912 88.6718 134.8V134.168L89.9998 133.984L90.3438 131.56C90.3651 131.469 90.4051 131.4 90.4638 131.352C90.5278 131.299 90.6078 131.272 90.7038 131.272H91.4958V134H97.1438V142ZM97.4958 131.312C97.4958 131.456 97.4664 131.595 97.4078 131.728C97.3491 131.856 97.2691 131.971 97.1678 132.072C97.0718 132.168 96.9571 132.245 96.8238 132.304C96.6904 132.357 96.5518 132.384 96.4078 132.384C96.2638 132.384 96.1278 132.357 95.9998 132.304C95.8718 132.245 95.7571 132.168 95.6558 132.072C95.5598 131.971 95.4824 131.856 95.4238 131.728C95.3704 131.595 95.3438 131.456 95.3438 131.312C95.3438 131.163 95.3704 131.021 95.4238 130.888C95.4824 130.755 95.5598 130.64 95.6558 130.544C95.7571 130.443 95.8718 130.365 95.9998 130.312C96.1278 130.253 96.2638 130.224 96.4078 130.224C96.5518 130.224 96.6904 130.253 96.8238 130.312C96.9571 130.365 97.0718 130.443 97.1678 130.544C97.2691 130.64 97.3491 130.755 97.4078 130.888C97.4664 131.021 97.4958 131.163 97.4958 131.312ZM102.873 133.744C103.47 133.744 104.009 133.843 104.489 134.04C104.974 134.232 105.385 134.512 105.721 134.88C106.062 135.243 106.323 135.683 106.505 136.2C106.686 136.712 106.777 137.288 106.777 137.928C106.777 138.568 106.686 139.147 106.505 139.664C106.323 140.181 106.062 140.621 105.721 140.984C105.385 141.347 104.974 141.627 104.489 141.824C104.009 142.016 103.47 142.112 102.873 142.112C102.27 142.112 101.726 142.016 101.241 141.824C100.761 141.627 100.35 141.347 100.009 140.984C99.6672 140.621 99.4032 140.181 99.2165 139.664C99.0352 139.147 98.9445 138.568 98.9445 137.928C98.9445 137.288 99.0352 136.712 99.2165 136.2C99.4032 135.683 99.6672 135.243 100.009 134.88C100.35 134.512 100.761 134.232 101.241 134.04C101.726 133.843 102.27 133.744 102.873 133.744ZM102.873 140.896C103.641 140.896 104.214 140.637 104.593 140.12C104.971 139.603 105.161 138.875 105.161 137.936C105.161 136.997 104.971 136.269 104.593 135.752C104.214 135.229 103.641 134.968 102.873 134.968C102.094 134.968 101.513 135.229 101.129 135.752C100.75 136.269 100.561 136.997 100.561 137.936C100.561 138.875 100.75 139.603 101.129 140.12C101.513 140.637 102.094 140.896 102.873 140.896ZM109.982 135C110.158 134.813 110.342 134.643 110.534 134.488C110.726 134.333 110.929 134.203 111.142 134.096C111.361 133.984 111.593 133.899 111.838 133.84C112.089 133.776 112.355 133.744 112.638 133.744C113.086 133.744 113.478 133.819 113.814 133.968C114.155 134.117 114.441 134.328 114.67 134.6C114.899 134.867 115.073 135.189 115.19 135.568C115.307 135.947 115.366 136.365 115.366 136.824V142H113.798V136.824C113.798 136.243 113.665 135.792 113.398 135.472C113.131 135.147 112.723 134.984 112.174 134.984C111.774 134.984 111.398 135.08 111.046 135.272C110.699 135.459 110.377 135.715 110.078 136.04V142H108.518V133.872H109.454C109.673 133.872 109.809 133.976 109.862 134.184L109.982 135Z" fill="white"/>
<path d="M41.7 73.756C42.312 73.7333 42.7767 73.6653 43.094 73.552C43.4113 73.416 43.6607 73.144 43.842 72.736C44.0233 72.328 44.114 71.682 44.114 70.798V57.776C44.114 56.5067 44.1593 55.4867 44.25 54.716L41.7 54.818V52.2H58.7L58.904 58.796H56.66C56.66 57.1187 56.252 55.9627 55.436 55.328C54.6427 54.6707 53.6793 54.3647 52.546 54.41L51.322 54.444C50.778 54.4667 50.3473 54.546 50.03 54.682C49.7127 54.7953 49.4633 55.0673 49.282 55.498C49.1233 55.9287 49.044 56.5633 49.044 57.402V63.318H52.546C52.5233 63.0233 52.478 62.0487 52.41 60.394H55.028V68.656H52.784C52.784 67.7493 52.6367 67.0807 52.342 66.65C52.07 66.1967 51.696 65.9133 51.22 65.8C50.7667 65.6867 50.1773 65.6413 49.452 65.664H49.044V70.424C49.044 71.6933 48.9987 72.7133 48.908 73.484C49.6333 73.416 50.642 73.382 51.934 73.382V76H41.7V73.756ZM65.2466 55.634C64.4759 55.634 63.8413 55.3733 63.3426 54.852C62.8439 54.308 62.5946 53.6507 62.5946 52.88C62.5946 52.1093 62.8553 51.452 63.3766 50.908C63.8979 50.3413 64.5099 50.058 65.2126 50.058C65.9379 50.058 66.5386 50.33 67.0146 50.874C67.5133 51.418 67.7626 52.0867 67.7626 52.88C67.7626 53.6733 67.5246 54.3307 67.0486 54.852C66.5953 55.3733 65.9946 55.634 65.2466 55.634ZM60.4526 73.79C61.3139 73.79 61.8579 73.552 62.0846 73.076C62.3339 72.6 62.4586 71.8293 62.4586 70.764V65.12C62.4586 64.0547 62.5039 63.0687 62.5946 62.162L60.2146 62.264V59.68C61.6426 59.68 62.7986 59.578 63.6826 59.374C64.5666 59.17 65.1559 58.932 65.4506 58.66H67.2866V70.526C67.2866 71.614 67.2413 72.6113 67.1506 73.518C67.8759 73.45 68.6126 73.416 69.3606 73.416V76H60.4526V73.79ZM71.5756 73.79C72.437 73.79 72.981 73.552 73.2076 73.076C73.457 72.6 73.5816 71.8293 73.5816 70.764V65.052C73.5816 64.032 73.627 63.0687 73.7176 62.162L71.3376 62.264V59.68C72.7656 59.68 73.9216 59.578 74.8056 59.374C75.6896 59.17 76.279 58.932 76.5736 58.66H78.2396C78.2396 58.7053 78.285 59.272 78.3756 60.36H78.4436C79.101 59.8387 79.9056 59.3967 80.8576 59.034C81.8323 58.6487 82.6596 58.456 83.3396 58.456C85.4023 58.456 86.8756 59.0453 87.7596 60.224C88.6436 61.4027 89.0856 63.318 89.0856 65.97V70.526C89.0856 71.614 89.0403 72.6113 88.9496 73.518C89.6976 73.45 90.4343 73.416 91.1596 73.416V76H82.2516V73.79C83.113 73.79 83.6683 73.552 83.9176 73.076C84.167 72.6 84.2916 71.8293 84.2916 70.764L84.2576 65.936C84.2576 64.44 84.0423 63.3407 83.6116 62.638C83.2036 61.9353 82.501 61.584 81.5036 61.584C80.9596 61.584 80.4043 61.7087 79.8376 61.958C79.271 62.1847 78.795 62.4793 78.4096 62.842V70.526C78.4096 71.614 78.3643 72.6113 78.2736 73.518C78.999 73.45 79.7356 73.416 80.4836 73.416V76H71.5756V73.79ZM99.7529 76.544C98.3929 76.544 97.1915 76.1927 96.1489 75.49C95.1289 74.7873 94.3242 73.79 93.7349 72.498C93.1682 71.1833 92.8849 69.6647 92.8849 67.942C92.8849 66.1287 93.2362 64.508 93.9389 63.08C94.6415 61.6293 95.6275 60.496 96.8969 59.68C98.1889 58.864 99.6622 58.456 101.317 58.456C102.201 58.456 103.21 58.66 104.343 59.068V56.824C104.343 55.736 104.388 54.7387 104.479 53.832C103.731 53.9 102.926 53.934 102.065 53.934V51.35C103.493 51.35 104.649 51.248 105.533 51.044C106.417 50.84 107.006 50.602 107.301 50.33H109.137V70.526C109.137 71.614 109.092 72.6113 109.001 73.518C109.749 73.45 110.486 73.416 111.211 73.416V76H104.751L104.581 74.436H104.547C103.21 75.8413 101.612 76.544 99.7529 76.544ZM101.521 73.45C102.088 73.45 102.62 73.3027 103.119 73.008C103.618 72.7133 104.026 72.3167 104.343 71.818V61.618C104.094 61.4367 103.742 61.2893 103.289 61.176C102.836 61.04 102.382 60.972 101.929 60.972C100.478 60.9947 99.4355 61.618 98.8009 62.842C98.1889 64.066 97.8829 65.596 97.8829 67.432C97.8829 69.064 98.1775 70.4807 98.7669 71.682C99.3789 72.8607 100.297 73.45 101.521 73.45ZM126.014 85.214C125.13 85.214 124.394 84.9533 123.804 84.432C123.215 83.9107 122.92 83.242 122.92 82.426C122.92 81.7913 123.124 81.236 123.532 80.76C123.963 80.3067 124.496 80.08 125.13 80.08C125.629 80.08 126.037 80.25 126.354 80.59C126.694 80.9527 126.864 81.4173 126.864 81.984C126.864 82.1653 126.853 82.3127 126.83 82.426V82.46C127.261 82.46 127.737 81.916 128.258 80.828C128.802 79.74 129.29 78.4253 129.72 76.884L124.348 66.106C123.759 64.9727 123.362 64.0887 123.158 63.454C122.954 62.7967 122.807 62.1507 122.716 61.516L121.152 61.584V59H129.618V61.176C128.666 61.2893 128.19 61.7313 128.19 62.502C128.19 62.8873 128.304 63.3293 128.53 63.828L131.862 71.444H131.896L132.61 69.166C132.86 68.3047 133.336 66.8087 134.038 64.678C134.537 63.0913 135.013 62.026 135.466 61.482V61.448L133.528 61.584V59H139.58V61.176C138.923 61.3347 138.356 61.7427 137.88 62.4C137.404 63.0573 136.974 63.9413 136.588 65.052L132.338 77.19C131.658 79.2073 131.035 80.7713 130.468 81.882C129.902 82.9927 129.267 83.82 128.564 84.364C127.884 84.9307 127.034 85.214 126.014 85.214ZM149.134 76.544C147.479 76.544 145.995 76.1927 144.68 75.49C143.365 74.7873 142.334 73.7787 141.586 72.464C140.838 71.1493 140.464 69.6193 140.464 67.874C140.464 66.038 140.849 64.406 141.62 62.978C142.391 61.55 143.422 60.4393 144.714 59.646C146.029 58.8527 147.468 58.456 149.032 58.456C150.664 58.456 152.126 58.8073 153.418 59.51C154.71 60.2127 155.73 61.2327 156.478 62.57C157.226 63.8847 157.6 65.426 157.6 67.194C157.6 69.0753 157.237 70.7187 156.512 72.124C155.809 73.5293 154.812 74.6173 153.52 75.388C152.251 76.1587 150.789 76.544 149.134 76.544ZM149.202 74.13C150.449 74.13 151.321 73.552 151.82 72.396C152.319 71.24 152.568 69.7893 152.568 68.044C152.568 66.0947 152.285 64.406 151.718 62.978C151.151 61.55 150.256 60.836 149.032 60.836C147.785 60.836 146.879 61.4253 146.312 62.604C145.745 63.7827 145.462 65.2333 145.462 66.956C145.462 68.928 145.768 70.6167 146.38 72.022C146.992 73.4273 147.933 74.13 149.202 74.13ZM167.1 76.544C165.083 76.544 163.632 75.9547 162.748 74.776C161.887 73.5973 161.456 71.682 161.456 69.03V65.12C161.456 64.168 161.49 63.182 161.558 62.162L159.178 62.264V59.68C160.606 59.68 161.762 59.578 162.646 59.374C163.53 59.17 164.119 58.932 164.414 58.66H166.284V69.064C166.284 70.56 166.477 71.6593 166.862 72.362C167.247 73.0647 167.859 73.416 168.698 73.416C169.265 73.416 169.843 73.2573 170.432 72.94C171.044 72.6227 171.554 72.2373 171.962 71.784V65.12C171.962 64.0547 172.007 63.0687 172.098 62.162L169.718 62.264V59.68C171.146 59.68 172.291 59.578 173.152 59.374C174.036 59.17 174.625 58.932 174.92 58.66H176.79V70.526C176.79 71.614 176.745 72.6113 176.654 73.518C177.379 73.45 178.116 73.416 178.864 73.416V76H172.404L172.2 74.232H172.166C171.327 74.9573 170.511 75.524 169.718 75.932C168.947 76.34 168.075 76.544 167.1 76.544ZM181.08 73.79C181.941 73.79 182.485 73.552 182.712 73.076C182.961 72.6 183.086 71.8293 183.086 70.764V65.052C183.086 64.032 183.131 63.0687 183.222 62.162L180.842 62.264V59.68C182.27 59.68 183.426 59.578 184.31 59.374C185.194 59.17 185.783 58.932 186.078 58.66H187.744C187.789 59 187.823 59.442 187.846 59.986C187.868 60.53 187.88 61.0627 187.88 61.584H187.948C189.489 59.4987 191.121 58.456 192.844 58.456C193.705 58.456 194.408 58.694 194.952 59.17C195.518 59.646 195.802 60.3487 195.802 61.278C195.802 61.8673 195.609 62.4113 195.224 62.91C194.838 63.4087 194.26 63.658 193.49 63.658C192.923 63.658 192.413 63.5107 191.96 63.216C191.529 62.9213 191.28 62.4113 191.212 61.686C190.577 61.686 189.92 62.06 189.24 62.808C188.582 63.5333 188.14 64.2587 187.914 64.984V70.526C187.914 71.614 187.868 72.6113 187.778 73.518C188.503 73.45 189.24 73.416 189.988 73.416V76H181.08V73.79ZM214.167 76.544C213.192 76.544 212.24 76.4193 211.311 76.17C210.382 75.9207 209.656 75.6033 209.135 75.218H209.101L209.203 76.238H206.619L206.483 70.39H208.693C208.806 71.4327 209.35 72.3167 210.325 73.042C211.322 73.7447 212.535 74.096 213.963 74.096C214.598 74.096 215.142 73.9487 215.595 73.654C216.071 73.3593 216.309 72.94 216.309 72.396C216.309 71.988 216.162 71.648 215.867 71.376C215.572 71.104 215.221 70.8773 214.813 70.696C214.405 70.5147 213.589 70.186 212.365 69.71C210.914 69.1433 209.826 68.6787 209.101 68.316C208.376 67.9533 207.718 67.4207 207.129 66.718C206.562 65.9927 206.279 65.0633 206.279 63.93C206.279 63.0007 206.506 62.128 206.959 61.312C207.435 60.4733 208.149 59.7933 209.101 59.272C210.076 58.728 211.266 58.456 212.671 58.456C213.328 58.456 214.042 58.558 214.813 58.762C215.584 58.966 216.23 59.2493 216.751 59.612H216.785L216.751 58.626H219.335V64.644H217.125C216.921 63.4653 216.4 62.536 215.561 61.856C214.722 61.176 213.691 60.836 212.467 60.836C211.832 60.836 211.3 60.9833 210.869 61.278C210.438 61.5727 210.223 62.026 210.223 62.638C210.223 63.2727 210.472 63.7487 210.971 64.066C211.47 64.3607 212.308 64.7007 213.487 65.086C213.623 65.1087 213.918 65.1993 214.371 65.358C216.298 66.038 217.771 66.8313 218.791 67.738C219.834 68.6447 220.355 69.8347 220.355 71.308C220.355 72.4413 220.06 73.4047 219.471 74.198C218.904 74.9687 218.145 75.558 217.193 75.966C216.264 76.3513 215.255 76.544 214.167 76.544ZM222.509 82.46C223.37 82.46 223.926 82.222 224.175 81.746C224.424 81.27 224.549 80.4993 224.549 79.434V65.052C224.549 64.032 224.594 63.0687 224.685 62.162L222.271 62.264V59.68C223.699 59.68 224.855 59.578 225.739 59.374C226.623 59.17 227.212 58.932 227.507 58.66H229.173C229.218 59.0453 229.275 59.5893 229.343 60.292H229.377C230.782 59.068 232.301 58.456 233.933 58.456C235.293 58.456 236.483 58.8073 237.503 59.51C238.546 60.2127 239.35 61.2213 239.917 62.536C240.506 63.828 240.801 65.3353 240.801 67.058C240.801 68.8713 240.45 70.5033 239.747 71.954C239.044 73.382 238.047 74.504 236.755 75.32C235.486 76.136 234.024 76.544 232.369 76.544C231.485 76.544 230.476 76.34 229.343 75.932V79.196C229.343 80.1707 229.309 81.168 229.241 82.188C229.944 82.12 230.669 82.086 231.417 82.086V84.67H222.509V82.46ZM231.689 73.994C234.432 73.994 235.803 71.852 235.803 67.568C235.803 65.8907 235.497 64.4627 234.885 63.284C234.296 62.1053 233.4 61.516 232.199 61.516C231.632 61.516 231.088 61.652 230.567 61.924C230.068 62.196 229.66 62.5587 229.343 63.012V73.382C229.57 73.5407 229.898 73.688 230.329 73.824C230.782 73.9373 231.236 73.994 231.689 73.994ZM247.519 76.544C246.091 76.544 244.958 76.1247 244.119 75.286C243.303 74.4247 242.895 73.3367 242.895 72.022C242.895 70.0273 243.824 68.52 245.683 67.5C247.542 66.4573 249.774 65.8793 252.381 65.766V63.998C252.381 61.9353 251.61 60.904 250.069 60.904C249.072 60.904 248.256 61.2213 247.621 61.856C247.893 62.1733 248.029 62.604 248.029 63.148C248.029 63.692 247.836 64.1793 247.451 64.61C247.088 65.0407 246.544 65.256 245.819 65.256C245.139 65.256 244.606 65.0407 244.221 64.61C243.836 64.1567 243.643 63.6013 243.643 62.944C243.643 62.06 243.96 61.278 244.595 60.598C245.23 59.918 246.091 59.3967 247.179 59.034C248.29 58.6487 249.502 58.456 250.817 58.456C255.01 58.456 257.107 60.6207 257.107 64.95L257.073 70.526C257.073 71.614 257.028 72.6113 256.937 73.518C257.685 73.45 258.422 73.416 259.147 73.416V76H252.721C252.676 75.7053 252.63 75.184 252.585 74.436H252.551C251.168 75.8413 249.491 76.544 247.519 76.544ZM249.661 73.212C250.681 73.212 251.576 72.804 252.347 71.988V68.18C251.01 68.316 249.899 68.656 249.015 69.2C248.154 69.744 247.723 70.4807 247.723 71.41C247.723 72.022 247.904 72.4753 248.267 72.77C248.652 73.0647 249.117 73.212 249.661 73.212ZM269.123 76.544C267.582 76.544 266.176 76.204 264.907 75.524C263.638 74.8213 262.629 73.824 261.881 72.532C261.133 71.2173 260.759 69.6647 260.759 67.874C260.759 66.174 261.133 64.61 261.881 63.182C262.629 61.7313 263.672 60.5867 265.009 59.748C266.369 58.8867 267.899 58.456 269.599 58.456C270.982 58.456 272.16 58.6713 273.135 59.102C274.132 59.5327 274.88 60.1107 275.379 60.836C275.878 61.5387 276.127 62.298 276.127 63.114C276.127 63.8167 275.912 64.4173 275.481 64.916C275.073 65.4147 274.506 65.664 273.781 65.664C273.033 65.664 272.466 65.4373 272.081 64.984C271.718 64.5307 271.537 64.0207 271.537 63.454C271.537 62.9327 271.673 62.434 271.945 61.958C271.741 61.55 271.412 61.2667 270.959 61.108C270.506 60.9267 270.052 60.836 269.599 60.836C268.443 60.836 267.502 61.3687 266.777 62.434C266.074 63.4767 265.723 64.9613 265.723 66.888C265.723 68.8147 266.097 70.4013 266.845 71.648C267.593 72.8947 268.772 73.518 270.381 73.518C271.288 73.518 272.183 73.28 273.067 72.804C273.951 72.328 274.699 71.6933 275.311 70.9L276.875 72.43C275.742 73.994 274.529 75.0707 273.237 75.66C271.945 76.2493 270.574 76.544 269.123 76.544ZM286.755 76.544C285.1 76.544 283.638 76.1813 282.369 75.456C281.099 74.708 280.113 73.654 279.411 72.294C278.708 70.934 278.357 69.3473 278.357 67.534C278.357 65.9473 278.708 64.4627 279.411 63.08C280.136 61.6747 281.145 60.5527 282.437 59.714C283.729 58.8753 285.202 58.456 286.857 58.456C289.055 58.456 290.88 59.102 292.331 60.394C293.804 61.686 294.529 63.8393 294.507 66.854L283.355 67.058C283.355 69.0527 283.729 70.628 284.477 71.784C285.247 72.94 286.471 73.518 288.149 73.518C288.942 73.518 289.792 73.314 290.699 72.906C291.605 72.498 292.421 71.852 293.147 70.968L294.677 72.396C292.75 75.1613 290.109 76.544 286.755 76.544ZM289.815 64.678C289.747 62.1167 288.817 60.836 287.027 60.836C286.052 60.836 285.27 61.1873 284.681 61.89C284.114 62.57 283.74 63.4993 283.559 64.678H289.815ZM305.923 73.79C306.785 73.79 307.329 73.552 307.555 73.076C307.805 72.6 307.929 71.8293 307.929 70.764V65.052C307.929 64.032 307.975 63.0687 308.065 62.162L305.685 62.264V59.68C307.113 59.68 308.269 59.578 309.153 59.374C310.037 59.17 310.627 58.932 310.921 58.66H312.587C312.587 58.7053 312.633 59.272 312.723 60.36H312.791C313.449 59.8387 314.253 59.3967 315.205 59.034C316.18 58.6487 317.007 58.456 317.687 58.456C319.75 58.456 321.223 59.0453 322.107 60.224C322.991 61.4027 323.433 63.318 323.433 65.97V70.526C323.433 71.614 323.388 72.6113 323.297 73.518C324.045 73.45 324.782 73.416 325.507 73.416V76H316.599V73.79C317.461 73.79 318.016 73.552 318.265 73.076C318.515 72.6 318.639 71.8293 318.639 70.764L318.605 65.936C318.605 64.44 318.39 63.3407 317.959 62.638C317.551 61.9353 316.849 61.584 315.851 61.584C315.307 61.584 314.752 61.7087 314.185 61.958C313.619 62.1847 313.143 62.4793 312.757 62.842V70.526C312.757 71.614 312.712 72.6113 312.621 73.518C313.347 73.45 314.083 73.416 314.831 73.416V76H305.923V73.79ZM335.869 76.544C334.214 76.544 332.729 76.1927 331.415 75.49C330.1 74.7873 329.069 73.7787 328.321 72.464C327.573 71.1493 327.199 69.6193 327.199 67.874C327.199 66.038 327.584 64.406 328.355 62.978C329.125 61.55 330.157 60.4393 331.449 59.646C332.763 58.8527 334.203 58.456 335.767 58.456C337.399 58.456 338.861 58.8073 340.153 59.51C341.445 60.2127 342.465 61.2327 343.213 62.57C343.961 63.8847 344.335 65.426 344.335 67.194C344.335 69.0753 343.972 70.7187 343.247 72.124C342.544 73.5293 341.547 74.6173 340.255 75.388C338.985 76.1587 337.523 76.544 335.869 76.544ZM335.937 74.13C337.183 74.13 338.056 73.552 338.555 72.396C339.053 71.24 339.303 69.7893 339.303 68.044C339.303 66.0947 339.019 64.406 338.453 62.978C337.886 61.55 336.991 60.836 335.767 60.836C334.52 60.836 333.613 61.4253 333.047 62.604C332.48 63.7827 332.197 65.2333 332.197 66.956C332.197 68.928 332.503 70.6167 333.115 72.022C333.727 73.4273 334.667 74.13 335.937 74.13ZM347.618 64.304C347.369 63.6013 347.187 63.0687 347.074 62.706C346.961 62.3207 346.859 61.924 346.768 61.516L345.442 61.584V59H353.602V61.176C352.718 61.1987 352.276 61.6747 352.276 62.604C352.276 62.8307 352.344 63.2387 352.48 63.828L353.636 67.976C353.953 69.132 354.191 70.2087 354.35 71.206H354.384C354.429 71.0247 354.52 70.594 354.656 69.914C354.792 69.234 354.996 68.4407 355.268 67.534L357.75 59H361.456L364.176 68.384C364.335 68.9507 364.607 69.9707 364.992 71.444H365.026C365.117 70.7867 365.377 69.8007 365.808 68.486L367.134 64.168C367.293 63.624 367.451 63.1367 367.61 62.706C367.769 62.2527 367.939 61.8447 368.12 61.482V61.448L366.182 61.584V59H372.642V61.176C371.441 61.176 370.421 62.4 369.582 64.848L365.706 76.102H362.102L359.756 68.86C359.393 67.7267 358.997 66.3327 358.566 64.678H358.532C358.283 66.038 357.761 67.976 356.968 70.492L355.098 76.102H351.732L347.618 64.304Z" fill="white"/>
</svg>
