<svg width="419" height="552" viewBox="0 0 419 552" fill="none" xmlns="http://www.w3.org/2000/svg">
<rect x="34" y="28" width="350" height="467" fill="#10375C"/>
<g filter="url(#filter0_f)">
<rect x="48" y="48" width="323" height="456" fill="#10375C" fill-opacity="0.3"/>
</g>
<rect x="34" y="423" width="255" height="72" fill="#FF5722"/>
<path d="M97.5559 462.931C97.6879 462.931 97.8019 462.982 97.8979 463.084L98.8519 464.119C98.3239 464.773 97.6729 465.274 96.8989 465.622C96.1309 465.97 95.2069 466.144 94.1269 466.144C93.1609 466.144 92.2909 465.979 91.5169 465.649C90.7489 465.319 90.0919 464.86 89.5459 464.272C88.9999 463.684 88.5799 462.982 88.2859 462.166C87.9979 461.35 87.8539 460.459 87.8539 459.493C87.8539 458.515 88.0159 457.621 88.3399 456.811C88.6639 455.995 89.1199 455.293 89.7079 454.705C90.2959 454.117 90.9979 453.661 91.8139 453.337C92.6359 453.007 93.5419 452.842 94.5319 452.842C95.4979 452.842 96.3409 452.998 97.0609 453.31C97.7869 453.616 98.4079 454.024 98.9239 454.534L98.1139 455.659C98.0659 455.731 98.0029 455.794 97.9249 455.848C97.8529 455.902 97.7509 455.929 97.6189 455.929C97.4809 455.929 97.3399 455.875 97.1959 455.767C97.0519 455.659 96.8689 455.542 96.6469 455.416C96.4249 455.29 96.1429 455.173 95.8009 455.065C95.4649 454.957 95.0359 454.903 94.5139 454.903C93.9019 454.903 93.3379 455.011 92.8219 455.227C92.3119 455.437 91.8709 455.74 91.4989 456.136C91.1329 456.532 90.8449 457.015 90.6349 457.585C90.4309 458.149 90.3289 458.785 90.3289 459.493C90.3289 460.225 90.4309 460.876 90.6349 461.446C90.8449 462.016 91.1269 462.496 91.4809 462.886C91.8349 463.276 92.2519 463.576 92.7319 463.786C93.2119 463.99 93.7279 464.092 94.2799 464.092C94.6099 464.092 94.9069 464.074 95.1709 464.038C95.4409 464.002 95.6869 463.945 95.9089 463.867C96.1369 463.789 96.3499 463.69 96.5479 463.57C96.7519 463.444 96.9529 463.291 97.1509 463.111C97.2109 463.057 97.2739 463.015 97.3399 462.985C97.4059 462.949 97.4779 462.931 97.5559 462.931ZM100.56 466V452.626H102.783V457.765C103.143 457.423 103.539 457.147 103.971 456.937C104.403 456.727 104.91 456.622 105.492 456.622C105.996 456.622 106.443 456.709 106.833 456.883C107.223 457.051 107.547 457.291 107.805 457.603C108.069 457.909 108.267 458.278 108.399 458.71C108.537 459.136 108.606 459.607 108.606 460.123V466H106.383V460.123C106.383 459.559 106.251 459.124 105.987 458.818C105.729 458.506 105.339 458.35 104.817 458.35C104.433 458.35 104.073 458.437 103.737 458.611C103.401 458.785 103.083 459.022 102.783 459.322V466H100.56ZM114.607 456.622C115.189 456.622 115.723 456.715 116.209 456.901C116.701 457.087 117.124 457.36 117.478 457.72C117.832 458.074 118.108 458.512 118.306 459.034C118.504 459.55 118.603 460.141 118.603 460.807C118.603 460.975 118.594 461.116 118.576 461.23C118.564 461.338 118.537 461.425 118.495 461.491C118.459 461.551 118.408 461.596 118.342 461.626C118.276 461.65 118.192 461.662 118.09 461.662H112.384C112.45 462.61 112.705 463.306 113.149 463.75C113.593 464.194 114.181 464.416 114.913 464.416C115.273 464.416 115.582 464.374 115.84 464.29C116.104 464.206 116.332 464.113 116.524 464.011C116.722 463.909 116.893 463.816 117.037 463.732C117.187 463.648 117.331 463.606 117.469 463.606C117.559 463.606 117.637 463.624 117.703 463.66C117.769 463.696 117.826 463.747 117.874 463.813L118.522 464.623C118.276 464.911 118 465.154 117.694 465.352C117.388 465.544 117.067 465.7 116.731 465.82C116.401 465.934 116.062 466.015 115.714 466.063C115.372 466.111 115.039 466.135 114.715 466.135C114.073 466.135 113.476 466.03 112.924 465.82C112.372 465.604 111.892 465.289 111.484 464.875C111.076 464.455 110.755 463.939 110.521 463.327C110.287 462.709 110.17 461.995 110.17 461.185C110.17 460.555 110.272 459.964 110.476 459.412C110.68 458.854 110.971 458.371 111.349 457.963C111.733 457.549 112.198 457.222 112.744 456.982C113.296 456.742 113.917 456.622 114.607 456.622ZM114.652 458.215C114.004 458.215 113.497 458.398 113.131 458.764C112.765 459.13 112.531 459.649 112.429 460.321H116.605C116.605 460.033 116.566 459.763 116.488 459.511C116.41 459.253 116.29 459.028 116.128 458.836C115.966 458.644 115.762 458.494 115.516 458.386C115.27 458.272 114.982 458.215 114.652 458.215ZM126.895 458.719C126.829 458.803 126.763 458.869 126.697 458.917C126.637 458.965 126.547 458.989 126.427 458.989C126.313 458.989 126.202 458.956 126.094 458.89C125.986 458.818 125.857 458.74 125.707 458.656C125.557 458.566 125.377 458.488 125.167 458.422C124.963 458.35 124.708 458.314 124.402 458.314C124.012 458.314 123.67 458.386 123.376 458.53C123.082 458.668 122.836 458.869 122.638 459.133C122.446 459.397 122.302 459.718 122.206 460.096C122.11 460.468 122.062 460.891 122.062 461.365C122.062 461.857 122.113 462.295 122.215 462.679C122.323 463.063 122.476 463.387 122.674 463.651C122.872 463.909 123.112 464.107 123.394 464.245C123.676 464.377 123.994 464.443 124.348 464.443C124.702 464.443 124.987 464.401 125.203 464.317C125.425 464.227 125.611 464.131 125.761 464.029C125.911 463.921 126.04 463.825 126.148 463.741C126.262 463.651 126.388 463.606 126.526 463.606C126.706 463.606 126.841 463.675 126.931 463.813L127.57 464.623C127.324 464.911 127.057 465.154 126.769 465.352C126.481 465.544 126.181 465.7 125.869 465.82C125.563 465.934 125.245 466.015 124.915 466.063C124.585 466.111 124.258 466.135 123.934 466.135C123.364 466.135 122.827 466.03 122.323 465.82C121.819 465.604 121.378 465.292 121 464.884C120.628 464.476 120.331 463.978 120.109 463.39C119.893 462.796 119.785 462.121 119.785 461.365C119.785 460.687 119.881 460.06 120.073 459.484C120.271 458.902 120.559 458.401 120.937 457.981C121.315 457.555 121.783 457.222 122.341 456.982C122.899 456.742 123.541 456.622 124.267 456.622C124.957 456.622 125.56 456.733 126.076 456.955C126.598 457.177 127.066 457.495 127.48 457.909L126.895 458.719ZM131.234 452.626V460.285H131.648C131.798 460.285 131.915 460.264 131.999 460.222C132.083 460.18 132.173 460.102 132.269 459.988L134.564 457.153C134.666 457.033 134.774 456.94 134.888 456.874C135.002 456.802 135.152 456.766 135.338 456.766H137.372L134.501 460.195C134.399 460.321 134.294 460.438 134.186 460.546C134.078 460.648 133.961 460.738 133.835 460.816C133.961 460.906 134.072 461.011 134.168 461.131C134.264 461.251 134.36 461.38 134.456 461.518L137.534 466H135.527C135.353 466 135.206 465.97 135.086 465.91C134.966 465.85 134.858 465.748 134.762 465.604L132.413 462.103C132.323 461.965 132.233 461.875 132.143 461.833C132.053 461.791 131.918 461.77 131.738 461.77H131.234V466H129.011V452.626H131.234ZM149.632 466H148.633C148.423 466 148.258 465.97 148.138 465.91C148.018 465.844 147.928 465.715 147.868 465.523L147.67 464.866C147.436 465.076 147.205 465.262 146.977 465.424C146.755 465.58 146.524 465.712 146.284 465.82C146.044 465.928 145.789 466.009 145.519 466.063C145.249 466.117 144.949 466.144 144.619 466.144C144.229 466.144 143.869 466.093 143.539 465.991C143.209 465.883 142.924 465.724 142.684 465.514C142.45 465.304 142.267 465.043 142.135 464.731C142.003 464.419 141.937 464.056 141.937 463.642C141.937 463.294 142.027 462.952 142.207 462.616C142.393 462.274 142.699 461.968 143.125 461.698C143.551 461.422 144.118 461.194 144.826 461.014C145.534 460.834 146.413 460.732 147.463 460.708V460.168C147.463 459.55 147.331 459.094 147.067 458.8C146.809 458.5 146.431 458.35 145.933 458.35C145.573 458.35 145.273 458.392 145.033 458.476C144.793 458.56 144.583 458.656 144.403 458.764C144.229 458.866 144.067 458.959 143.917 459.043C143.767 459.127 143.602 459.169 143.422 459.169C143.272 459.169 143.143 459.13 143.035 459.052C142.927 458.974 142.84 458.878 142.774 458.764L142.369 458.053C143.431 457.081 144.712 456.595 146.212 456.595C146.752 456.595 147.232 456.685 147.652 456.865C148.078 457.039 148.438 457.285 148.732 457.603C149.026 457.915 149.248 458.29 149.398 458.728C149.554 459.166 149.632 459.646 149.632 460.168V466ZM145.312 464.614C145.54 464.614 145.75 464.593 145.942 464.551C146.134 464.509 146.314 464.446 146.482 464.362C146.656 464.278 146.821 464.176 146.977 464.056C147.139 463.93 147.301 463.783 147.463 463.615V462.058C146.815 462.088 146.272 462.145 145.834 462.229C145.402 462.307 145.054 462.409 144.79 462.535C144.526 462.661 144.337 462.808 144.223 462.976C144.115 463.144 144.061 463.327 144.061 463.525C144.061 463.915 144.175 464.194 144.403 464.362C144.637 464.53 144.94 464.614 145.312 464.614ZM156.127 466H154.111L150.439 456.766H152.284C152.446 456.766 152.581 456.805 152.689 456.883C152.803 456.961 152.881 457.06 152.923 457.18L154.705 462.112C154.807 462.4 154.891 462.682 154.957 462.958C155.029 463.234 155.092 463.51 155.146 463.786C155.2 463.51 155.26 463.234 155.326 462.958C155.398 462.682 155.488 462.4 155.596 462.112L157.423 457.18C157.465 457.06 157.54 456.961 157.648 456.883C157.756 456.805 157.885 456.766 158.035 456.766H159.79L156.127 466ZM168.335 466H167.336C167.126 466 166.961 465.97 166.841 465.91C166.721 465.844 166.631 465.715 166.571 465.523L166.373 464.866C166.139 465.076 165.908 465.262 165.68 465.424C165.458 465.58 165.227 465.712 164.987 465.82C164.747 465.928 164.492 466.009 164.222 466.063C163.952 466.117 163.652 466.144 163.322 466.144C162.932 466.144 162.572 466.093 162.242 465.991C161.912 465.883 161.627 465.724 161.387 465.514C161.153 465.304 160.97 465.043 160.838 464.731C160.706 464.419 160.64 464.056 160.64 463.642C160.64 463.294 160.73 462.952 160.91 462.616C161.096 462.274 161.402 461.968 161.828 461.698C162.254 461.422 162.821 461.194 163.529 461.014C164.237 460.834 165.116 460.732 166.166 460.708V460.168C166.166 459.55 166.034 459.094 165.77 458.8C165.512 458.5 165.134 458.35 164.636 458.35C164.276 458.35 163.976 458.392 163.736 458.476C163.496 458.56 163.286 458.656 163.106 458.764C162.932 458.866 162.77 458.959 162.62 459.043C162.47 459.127 162.305 459.169 162.125 459.169C161.975 459.169 161.846 459.13 161.738 459.052C161.63 458.974 161.543 458.878 161.477 458.764L161.072 458.053C162.134 457.081 163.415 456.595 164.915 456.595C165.455 456.595 165.935 456.685 166.355 456.865C166.781 457.039 167.141 457.285 167.435 457.603C167.729 457.915 167.951 458.29 168.101 458.728C168.257 459.166 168.335 459.646 168.335 460.168V466ZM164.015 464.614C164.243 464.614 164.453 464.593 164.645 464.551C164.837 464.509 165.017 464.446 165.185 464.362C165.359 464.278 165.524 464.176 165.68 464.056C165.842 463.93 166.004 463.783 166.166 463.615V462.058C165.518 462.088 164.975 462.145 164.537 462.229C164.105 462.307 163.757 462.409 163.493 462.535C163.229 462.661 163.04 462.808 162.926 462.976C162.818 463.144 162.764 463.327 162.764 463.525C162.764 463.915 162.878 464.194 163.106 464.362C163.34 464.53 163.643 464.614 164.015 464.614ZM172.888 456.766V466H170.665V456.766H172.888ZM173.221 454.075C173.221 454.267 173.182 454.447 173.104 454.615C173.026 454.783 172.921 454.93 172.789 455.056C172.663 455.182 172.513 455.284 172.339 455.362C172.165 455.434 171.979 455.47 171.781 455.47C171.589 455.47 171.406 455.434 171.232 455.362C171.064 455.284 170.917 455.182 170.791 455.056C170.665 454.93 170.563 454.783 170.485 454.615C170.413 454.447 170.377 454.267 170.377 454.075C170.377 453.877 170.413 453.691 170.485 453.517C170.563 453.343 170.665 453.193 170.791 453.067C170.917 452.941 171.064 452.842 171.232 452.77C171.406 452.692 171.589 452.653 171.781 452.653C171.979 452.653 172.165 452.692 172.339 452.77C172.513 452.842 172.663 452.941 172.789 453.067C172.921 453.193 173.026 453.343 173.104 453.517C173.182 453.691 173.221 453.877 173.221 454.075ZM175.435 466V452.626H177.658V457.9C178.024 457.51 178.438 457.201 178.9 456.973C179.362 456.739 179.902 456.622 180.52 456.622C181.024 456.622 181.483 456.727 181.897 456.937C182.317 457.141 182.677 457.441 182.977 457.837C183.283 458.233 183.517 458.722 183.679 459.304C183.847 459.886 183.931 460.555 183.931 461.311C183.931 462.001 183.838 462.64 183.652 463.228C183.466 463.816 183.199 464.326 182.851 464.758C182.509 465.19 182.092 465.529 181.6 465.775C181.114 466.015 180.568 466.135 179.962 466.135C179.68 466.135 179.422 466.105 179.188 466.045C178.954 465.991 178.741 465.913 178.549 465.811C178.357 465.709 178.177 465.586 178.009 465.442C177.847 465.292 177.691 465.127 177.541 464.947L177.442 465.568C177.406 465.724 177.343 465.835 177.253 465.901C177.169 465.967 177.052 466 176.902 466H175.435ZM179.755 458.35C179.293 458.35 178.897 458.449 178.567 458.647C178.243 458.839 177.94 459.112 177.658 459.466V463.606C177.91 463.918 178.183 464.137 178.477 464.263C178.777 464.383 179.101 464.443 179.449 464.443C179.785 464.443 180.088 464.38 180.358 464.254C180.628 464.128 180.856 463.936 181.042 463.678C181.234 463.42 181.381 463.096 181.483 462.706C181.585 462.31 181.636 461.845 181.636 461.311C181.636 460.771 181.591 460.315 181.501 459.943C181.417 459.565 181.294 459.259 181.132 459.025C180.97 458.791 180.772 458.62 180.538 458.512C180.31 458.404 180.049 458.35 179.755 458.35ZM188.04 456.766V466H185.817V456.766H188.04ZM188.373 454.075C188.373 454.267 188.334 454.447 188.256 454.615C188.178 454.783 188.073 454.93 187.941 455.056C187.815 455.182 187.665 455.284 187.491 455.362C187.317 455.434 187.131 455.47 186.933 455.47C186.741 455.47 186.558 455.434 186.384 455.362C186.216 455.284 186.069 455.182 185.943 455.056C185.817 454.93 185.715 454.783 185.637 454.615C185.565 454.447 185.529 454.267 185.529 454.075C185.529 453.877 185.565 453.691 185.637 453.517C185.715 453.343 185.817 453.193 185.943 453.067C186.069 452.941 186.216 452.842 186.384 452.77C186.558 452.692 186.741 452.653 186.933 452.653C187.131 452.653 187.317 452.692 187.491 452.77C187.665 452.842 187.815 452.941 187.941 453.067C188.073 453.193 188.178 453.343 188.256 453.517C188.334 453.691 188.373 453.877 188.373 454.075ZM192.927 452.626V466H190.704V452.626H192.927ZM197.814 456.766V466H195.591V456.766H197.814ZM198.147 454.075C198.147 454.267 198.108 454.447 198.03 454.615C197.952 454.783 197.847 454.93 197.715 455.056C197.589 455.182 197.439 455.284 197.265 455.362C197.091 455.434 196.905 455.47 196.707 455.47C196.515 455.47 196.332 455.434 196.158 455.362C195.99 455.284 195.843 455.182 195.717 455.056C195.591 454.93 195.489 454.783 195.411 454.615C195.339 454.447 195.303 454.267 195.303 454.075C195.303 453.877 195.339 453.691 195.411 453.517C195.489 453.343 195.591 453.193 195.717 453.067C195.843 452.941 195.99 452.842 196.158 452.77C196.332 452.692 196.515 452.653 196.707 452.653C196.905 452.653 197.091 452.692 197.265 452.77C197.439 452.842 197.589 452.941 197.715 453.067C197.847 453.193 197.952 453.343 198.03 453.517C198.108 453.691 198.147 453.877 198.147 454.075ZM203.367 466.144C202.569 466.144 201.954 465.919 201.522 465.469C201.09 465.013 200.874 464.386 200.874 463.588V458.431H199.938C199.818 458.431 199.713 458.392 199.623 458.314C199.539 458.236 199.497 458.119 199.497 457.963V457.081L200.982 456.838L201.45 454.318C201.474 454.198 201.528 454.105 201.612 454.039C201.702 453.973 201.813 453.94 201.945 453.94H203.097V456.847H205.527V458.431H203.097V463.435C203.097 463.723 203.169 463.948 203.313 464.11C203.457 464.272 203.649 464.353 203.889 464.353C204.027 464.353 204.141 464.338 204.231 464.308C204.327 464.272 204.408 464.236 204.474 464.2C204.546 464.164 204.609 464.131 204.663 464.101C204.717 464.065 204.771 464.047 204.825 464.047C204.891 464.047 204.945 464.065 204.987 464.101C205.029 464.131 205.074 464.179 205.122 464.245L205.788 465.325C205.464 465.595 205.092 465.799 204.672 465.937C204.252 466.075 203.817 466.144 203.367 466.144ZM210.57 468.538C210.504 468.694 210.417 468.811 210.309 468.889C210.207 468.973 210.048 469.015 209.832 469.015H208.176L209.904 465.316L206.169 456.766H208.113C208.293 456.766 208.431 456.808 208.527 456.892C208.623 456.976 208.695 457.072 208.743 457.18L210.714 461.968C210.78 462.124 210.837 462.286 210.885 462.454C210.933 462.622 210.975 462.79 211.011 462.958C211.059 462.784 211.11 462.616 211.164 462.454C211.224 462.292 211.287 462.127 211.353 461.959L213.207 457.18C213.255 457.06 213.333 456.961 213.441 456.883C213.555 456.805 213.681 456.766 213.819 456.766H215.601L210.57 468.538Z" fill="white"/>
<path d="M257.533 458.993C257.533 459.287 257.427 459.553 257.213 459.767L250.28 466.433C249.853 466.833 249.187 466.833 248.76 466.407C248.36 465.98 248.36 465.313 248.787 464.887L254.92 458.993L248.787 453.1C248.36 452.7 248.36 452.007 248.76 451.58C249.16 451.153 249.853 451.153 250.28 451.553L257.213 458.22C257.427 458.433 257.533 458.7 257.533 458.993Z" fill="white"/>
<path d="M107.564 245.228C107.672 245.228 107.765 245.27 107.843 245.354L108.599 246.182C108.071 246.806 107.426 247.289 106.664 247.631C105.908 247.973 104.996 248.144 103.928 248.144C102.992 248.144 102.143 247.982 101.381 247.658C100.625 247.334 99.9773 246.881 99.4373 246.299C98.9033 245.717 98.4893 245.021 98.1953 244.211C97.9013 243.401 97.7543 242.51 97.7543 241.538C97.7543 240.566 97.9073 239.675 98.2133 238.865C98.5253 238.055 98.9603 237.359 99.5183 236.777C100.076 236.195 100.742 235.742 101.516 235.418C102.296 235.094 103.157 234.932 104.099 234.932C105.017 234.932 105.833 235.082 106.547 235.382C107.261 235.682 107.882 236.081 108.41 236.579L107.78 237.47C107.738 237.536 107.684 237.59 107.618 237.632C107.558 237.674 107.477 237.695 107.375 237.695C107.261 237.695 107.126 237.638 106.97 237.524C106.82 237.41 106.619 237.284 106.367 237.146C106.121 237.002 105.815 236.873 105.449 236.759C105.083 236.645 104.627 236.588 104.081 236.588C103.439 236.588 102.851 236.702 102.317 236.93C101.783 237.152 101.321 237.476 100.931 237.902C100.547 238.322 100.247 238.841 100.031 239.459C99.8213 240.071 99.7163 240.764 99.7163 241.538C99.7163 242.324 99.8273 243.023 100.049 243.635C100.271 244.247 100.577 244.766 100.967 245.192C101.357 245.618 101.816 245.942 102.344 246.164C102.872 246.386 103.442 246.497 104.054 246.497C104.426 246.497 104.759 246.476 105.053 246.434C105.353 246.386 105.626 246.317 105.872 246.227C106.124 246.137 106.361 246.023 106.583 245.885C106.805 245.741 107.024 245.57 107.24 245.372C107.288 245.33 107.339 245.297 107.393 245.273C107.447 245.243 107.504 245.228 107.564 245.228ZM113.887 238.712C114.559 238.712 115.165 238.823 115.705 239.045C116.251 239.261 116.713 239.576 117.091 239.99C117.475 240.398 117.769 240.893 117.973 241.475C118.177 242.051 118.279 242.699 118.279 243.419C118.279 244.139 118.177 244.79 117.973 245.372C117.769 245.954 117.475 246.449 117.091 246.857C116.713 247.265 116.251 247.58 115.705 247.802C115.165 248.018 114.559 248.126 113.887 248.126C113.209 248.126 112.597 248.018 112.051 247.802C111.511 247.58 111.049 247.265 110.665 246.857C110.281 246.449 109.984 245.954 109.774 245.372C109.57 244.79 109.468 244.139 109.468 243.419C109.468 242.699 109.57 242.051 109.774 241.475C109.984 240.893 110.281 240.398 110.665 239.99C111.049 239.576 111.511 239.261 112.051 239.045C112.597 238.823 113.209 238.712 113.887 238.712ZM113.887 246.758C114.751 246.758 115.396 246.467 115.822 245.885C116.248 245.303 116.461 244.484 116.461 243.428C116.461 242.372 116.248 241.553 115.822 240.971C115.396 240.383 114.751 240.089 113.887 240.089C113.011 240.089 112.357 240.383 111.925 240.971C111.499 241.553 111.286 242.372 111.286 243.428C111.286 244.484 111.499 245.303 111.925 245.885C112.357 246.467 113.011 246.758 113.887 246.758ZM120.238 248V238.856H121.291C121.537 238.856 121.69 238.973 121.75 239.207L121.876 240.08C122.212 239.678 122.584 239.351 122.992 239.099C123.406 238.841 123.889 238.712 124.441 238.712C125.047 238.712 125.539 238.88 125.917 239.216C126.295 239.546 126.571 239.996 126.745 240.566C126.877 240.242 127.048 239.963 127.258 239.729C127.468 239.495 127.702 239.303 127.96 239.153C128.218 239.003 128.491 238.892 128.779 238.82C129.073 238.748 129.37 238.712 129.67 238.712C130.156 238.712 130.588 238.79 130.966 238.946C131.35 239.096 131.674 239.318 131.938 239.612C132.202 239.906 132.403 240.269 132.541 240.701C132.679 241.133 132.748 241.625 132.748 242.177V248H130.984V242.177C130.984 241.493 130.834 240.977 130.534 240.629C130.24 240.281 129.808 240.107 129.238 240.107C128.986 240.107 128.746 240.152 128.518 240.242C128.29 240.326 128.089 240.455 127.915 240.629C127.747 240.803 127.612 241.019 127.51 241.277C127.414 241.535 127.366 241.835 127.366 242.177V248H125.602V242.177C125.602 241.469 125.461 240.947 125.179 240.611C124.897 240.275 124.483 240.107 123.937 240.107C123.559 240.107 123.208 240.206 122.884 240.404C122.56 240.602 122.263 240.872 121.993 241.214V248H120.238ZM135.571 248V240.296L134.617 240.179C134.479 240.149 134.365 240.101 134.275 240.035C134.191 239.963 134.149 239.861 134.149 239.729V239H135.571V238.172C135.571 237.65 135.646 237.185 135.796 236.777C135.946 236.369 136.159 236.024 136.435 235.742C136.717 235.454 137.053 235.238 137.443 235.094C137.839 234.944 138.283 234.869 138.775 234.869C139.189 234.869 139.57 234.929 139.918 235.049L139.882 235.931C139.876 236.009 139.852 236.069 139.81 236.111C139.768 236.147 139.711 236.174 139.639 236.192C139.573 236.21 139.489 236.222 139.387 236.228C139.291 236.228 139.186 236.228 139.072 236.228C138.802 236.228 138.556 236.261 138.334 236.327C138.112 236.393 137.923 236.504 137.767 236.66C137.611 236.816 137.491 237.023 137.407 237.281C137.323 237.533 137.281 237.848 137.281 238.226V239H139.846V240.278H137.335V248H135.571ZM144.93 238.712C145.602 238.712 146.208 238.823 146.748 239.045C147.294 239.261 147.756 239.576 148.134 239.99C148.518 240.398 148.812 240.893 149.016 241.475C149.22 242.051 149.322 242.699 149.322 243.419C149.322 244.139 149.22 244.79 149.016 245.372C148.812 245.954 148.518 246.449 148.134 246.857C147.756 247.265 147.294 247.58 146.748 247.802C146.208 248.018 145.602 248.126 144.93 248.126C144.252 248.126 143.64 248.018 143.094 247.802C142.554 247.58 142.092 247.265 141.708 246.857C141.324 246.449 141.027 245.954 140.817 245.372C140.613 244.79 140.511 244.139 140.511 243.419C140.511 242.699 140.613 242.051 140.817 241.475C141.027 240.893 141.324 240.398 141.708 239.99C142.092 239.576 142.554 239.261 143.094 239.045C143.64 238.823 144.252 238.712 144.93 238.712ZM144.93 246.758C145.794 246.758 146.439 246.467 146.865 245.885C147.291 245.303 147.504 244.484 147.504 243.428C147.504 242.372 147.291 241.553 146.865 240.971C146.439 240.383 145.794 240.089 144.93 240.089C144.054 240.089 143.4 240.383 142.968 240.971C142.542 241.553 142.329 242.372 142.329 243.428C142.329 244.484 142.542 245.303 142.968 245.885C143.4 246.467 144.054 246.758 144.93 246.758ZM152.937 240.611C153.231 240.011 153.585 239.54 153.999 239.198C154.413 238.856 154.911 238.685 155.493 238.685C155.691 238.685 155.877 238.709 156.051 238.757C156.231 238.799 156.387 238.865 156.519 238.955L156.402 240.278C156.36 240.44 156.261 240.521 156.105 240.521C156.021 240.521 155.895 240.506 155.727 240.476C155.559 240.44 155.379 240.422 155.187 240.422C154.905 240.422 154.656 240.464 154.44 240.548C154.224 240.626 154.029 240.746 153.855 240.908C153.687 241.064 153.537 241.259 153.405 241.493C153.273 241.721 153.15 241.982 153.036 242.276V248H151.281V238.856H152.289C152.481 238.856 152.61 238.892 152.676 238.964C152.748 239.03 152.799 239.15 152.829 239.324L152.937 240.611ZM160.735 248.144C159.997 248.144 159.427 247.937 159.025 247.523C158.629 247.109 158.431 246.518 158.431 245.75V240.278H157.369C157.267 240.278 157.18 240.248 157.108 240.188C157.042 240.122 157.009 240.026 157.009 239.9V239.189L158.494 238.982L158.89 236.255C158.914 236.153 158.959 236.075 159.025 236.021C159.097 235.961 159.187 235.931 159.295 235.931H160.186V239H162.778V240.278H160.186V245.633C160.186 245.993 160.273 246.263 160.447 246.443C160.627 246.617 160.855 246.704 161.131 246.704C161.293 246.704 161.431 246.683 161.545 246.641C161.665 246.599 161.767 246.554 161.851 246.506C161.935 246.452 162.007 246.404 162.067 246.362C162.127 246.32 162.181 246.299 162.229 246.299C162.289 246.299 162.334 246.314 162.364 246.344C162.4 246.368 162.436 246.41 162.472 246.47L162.994 247.316C162.706 247.58 162.364 247.784 161.968 247.928C161.572 248.072 161.161 248.144 160.735 248.144ZM169.308 243.941C168.594 243.965 167.988 244.022 167.49 244.112C166.992 244.196 166.587 244.31 166.275 244.454C165.963 244.598 165.738 244.769 165.6 244.967C165.462 245.159 165.393 245.375 165.393 245.615C165.393 245.843 165.429 246.041 165.501 246.209C165.579 246.371 165.681 246.506 165.807 246.614C165.939 246.716 166.092 246.791 166.266 246.839C166.44 246.887 166.629 246.911 166.833 246.911C167.103 246.911 167.349 246.884 167.571 246.83C167.799 246.776 168.012 246.701 168.21 246.605C168.408 246.503 168.597 246.38 168.777 246.236C168.957 246.092 169.134 245.927 169.308 245.741V243.941ZM164.16 240.134C164.67 239.648 165.222 239.285 165.816 239.045C166.416 238.805 167.073 238.685 167.787 238.685C168.309 238.685 168.771 238.772 169.173 238.946C169.575 239.114 169.914 239.351 170.19 239.657C170.466 239.963 170.673 240.329 170.811 240.755C170.955 241.181 171.027 241.652 171.027 242.168V248H170.244C170.07 248 169.938 247.973 169.848 247.919C169.758 247.859 169.686 247.751 169.632 247.595L169.443 246.794C169.209 247.01 168.978 247.202 168.75 247.37C168.522 247.532 168.282 247.673 168.03 247.793C167.784 247.907 167.52 247.994 167.238 248.054C166.956 248.114 166.644 248.144 166.302 248.144C165.942 248.144 165.603 248.096 165.285 248C164.973 247.898 164.7 247.745 164.466 247.541C164.232 247.337 164.046 247.082 163.908 246.776C163.776 246.47 163.71 246.113 163.71 245.705C163.71 245.345 163.806 245 163.998 244.67C164.196 244.334 164.514 244.034 164.952 243.77C165.396 243.506 165.972 243.29 166.68 243.122C167.394 242.954 168.27 242.858 169.308 242.834V242.168C169.308 241.478 169.161 240.962 168.867 240.62C168.573 240.278 168.141 240.107 167.571 240.107C167.187 240.107 166.863 240.155 166.599 240.251C166.341 240.347 166.116 240.455 165.924 240.575C165.738 240.689 165.573 240.794 165.429 240.89C165.291 240.986 165.147 241.034 164.997 241.034C164.877 241.034 164.772 241.001 164.682 240.935C164.598 240.869 164.529 240.791 164.475 240.701L164.16 240.134ZM175.132 245.75C175.42 246.128 175.732 246.392 176.068 246.542C176.404 246.692 176.77 246.767 177.166 246.767C177.982 246.767 178.609 246.476 179.047 245.894C179.491 245.312 179.713 244.433 179.713 243.257C179.713 242.171 179.518 241.376 179.128 240.872C178.738 240.362 178.186 240.107 177.472 240.107C176.968 240.107 176.53 240.221 176.158 240.449C175.792 240.677 175.45 241.001 175.132 241.421V245.75ZM175.132 240.116C175.51 239.696 175.939 239.357 176.419 239.099C176.899 238.841 177.445 238.712 178.057 238.712C178.591 238.712 179.071 238.817 179.497 239.027C179.929 239.231 180.295 239.528 180.595 239.918C180.895 240.302 181.126 240.77 181.288 241.322C181.45 241.874 181.531 242.498 181.531 243.194C181.531 243.932 181.438 244.604 181.252 245.21C181.072 245.816 180.811 246.335 180.469 246.767C180.133 247.199 179.722 247.535 179.236 247.775C178.75 248.009 178.204 248.126 177.598 248.126C177.304 248.126 177.034 248.096 176.788 248.036C176.542 247.982 176.314 247.901 176.104 247.793C175.9 247.685 175.711 247.553 175.537 247.397C175.363 247.241 175.198 247.064 175.042 246.866L174.961 247.631C174.913 247.877 174.763 248 174.511 248H173.377V234.716H175.132V240.116ZM185.284 234.716V248H183.52V234.716H185.284ZM193.848 242.411C193.848 242.063 193.797 241.742 193.695 241.448C193.599 241.154 193.455 240.899 193.263 240.683C193.071 240.467 192.837 240.299 192.561 240.179C192.285 240.059 191.967 239.999 191.607 239.999C190.869 239.999 190.287 240.212 189.861 240.638C189.441 241.064 189.174 241.655 189.06 242.411H193.848ZM195.297 246.695C195.081 246.947 194.832 247.166 194.55 247.352C194.268 247.532 193.968 247.679 193.65 247.793C193.332 247.907 193.002 247.991 192.66 248.045C192.324 248.099 191.991 248.126 191.661 248.126C191.031 248.126 190.446 248.021 189.906 247.811C189.372 247.595 188.907 247.283 188.511 246.875C188.121 246.461 187.815 245.951 187.593 245.345C187.377 244.733 187.269 244.031 187.269 243.239C187.269 242.603 187.368 242.012 187.566 241.466C187.764 240.914 188.046 240.434 188.412 240.026C188.784 239.618 189.237 239.297 189.771 239.063C190.305 238.829 190.905 238.712 191.571 238.712C192.129 238.712 192.642 238.805 193.11 238.991C193.584 239.171 193.992 239.435 194.334 239.783C194.676 240.131 194.943 240.56 195.135 241.07C195.333 241.58 195.432 242.162 195.432 242.816C195.432 243.086 195.402 243.269 195.342 243.365C195.282 243.455 195.171 243.5 195.009 243.5H189.015C189.033 244.046 189.111 244.523 189.249 244.931C189.387 245.333 189.576 245.669 189.816 245.939C190.062 246.209 190.353 246.41 190.689 246.542C191.025 246.674 191.4 246.74 191.814 246.74C192.204 246.74 192.54 246.695 192.822 246.605C193.11 246.515 193.356 246.419 193.56 246.317C193.77 246.209 193.944 246.11 194.082 246.02C194.226 245.93 194.352 245.885 194.46 245.885C194.604 245.885 194.715 245.939 194.793 246.047L195.297 246.695ZM207.262 240.431C207.214 240.509 207.163 240.566 207.109 240.602C207.055 240.632 206.986 240.647 206.902 240.647C206.806 240.647 206.698 240.614 206.578 240.548C206.464 240.482 206.323 240.41 206.155 240.332C205.993 240.254 205.801 240.182 205.579 240.116C205.357 240.05 205.093 240.017 204.787 240.017C204.535 240.017 204.304 240.05 204.094 240.116C203.89 240.176 203.716 240.263 203.572 240.377C203.428 240.485 203.317 240.617 203.239 240.773C203.161 240.923 203.122 241.085 203.122 241.259C203.122 241.487 203.188 241.676 203.32 241.826C203.458 241.976 203.635 242.105 203.851 242.213C204.073 242.321 204.322 242.42 204.598 242.51C204.88 242.594 205.165 242.684 205.453 242.78C205.747 242.876 206.032 242.987 206.308 243.113C206.59 243.233 206.839 243.386 207.055 243.572C207.277 243.752 207.454 243.971 207.586 244.229C207.724 244.487 207.793 244.802 207.793 245.174C207.793 245.6 207.715 245.996 207.559 246.362C207.409 246.722 207.184 247.034 206.884 247.298C206.59 247.562 206.224 247.769 205.786 247.919C205.348 248.069 204.847 248.144 204.283 248.144C203.653 248.144 203.071 248.039 202.537 247.829C202.003 247.619 201.556 247.352 201.196 247.028L201.61 246.353C201.658 246.269 201.718 246.206 201.79 246.164C201.862 246.116 201.958 246.092 202.078 246.092C202.192 246.092 202.309 246.134 202.429 246.218C202.549 246.302 202.693 246.395 202.861 246.497C203.029 246.593 203.233 246.683 203.473 246.767C203.713 246.845 204.013 246.884 204.373 246.884C204.673 246.884 204.934 246.848 205.156 246.776C205.378 246.698 205.561 246.596 205.705 246.47C205.855 246.338 205.966 246.188 206.038 246.02C206.11 245.852 206.146 245.675 206.146 245.489C206.146 245.249 206.077 245.051 205.939 244.895C205.807 244.733 205.63 244.595 205.408 244.481C205.192 244.367 204.943 244.268 204.661 244.184C204.379 244.1 204.091 244.01 203.797 243.914C203.503 243.818 203.215 243.707 202.933 243.581C202.651 243.455 202.399 243.296 202.177 243.104C201.961 242.912 201.784 242.678 201.646 242.402C201.514 242.126 201.448 241.79 201.448 241.394C201.448 241.04 201.52 240.701 201.664 240.377C201.814 240.053 202.027 239.768 202.303 239.522C202.585 239.276 202.93 239.081 203.338 238.937C203.752 238.787 204.223 238.712 204.751 238.712C205.357 238.712 205.903 238.808 206.389 239C206.881 239.192 207.301 239.456 207.649 239.792L207.262 240.431ZM211.448 245.75C211.736 246.128 212.045 246.392 212.375 246.542C212.711 246.692 213.086 246.767 213.5 246.767C214.304 246.767 214.925 246.479 215.363 245.903C215.807 245.321 216.029 244.475 216.029 243.365C216.029 242.783 215.978 242.288 215.876 241.88C215.78 241.466 215.636 241.13 215.444 240.872C215.258 240.608 215.027 240.416 214.751 240.296C214.475 240.17 214.163 240.107 213.815 240.107C213.305 240.107 212.861 240.221 212.483 240.449C212.111 240.677 211.766 241.001 211.448 241.421V245.75ZM211.358 240.224C211.55 239.996 211.754 239.789 211.97 239.603C212.192 239.411 212.429 239.249 212.681 239.117C212.933 238.979 213.2 238.874 213.482 238.802C213.77 238.724 214.076 238.685 214.4 238.685C214.922 238.685 215.393 238.787 215.813 238.991C216.239 239.195 216.602 239.495 216.902 239.891C217.202 240.287 217.433 240.776 217.595 241.358C217.763 241.94 217.847 242.609 217.847 243.365C217.847 244.043 217.754 244.673 217.568 245.255C217.388 245.831 217.127 246.332 216.785 246.758C216.449 247.184 216.035 247.52 215.543 247.766C215.057 248.006 214.508 248.126 213.896 248.126C213.35 248.126 212.882 248.036 212.492 247.856C212.102 247.676 211.754 247.424 211.448 247.1V251.069H209.693V238.856H210.746C210.992 238.856 211.145 238.973 211.205 239.207L211.358 240.224ZM224.732 243.941C224.018 243.965 223.412 244.022 222.914 244.112C222.416 244.196 222.011 244.31 221.699 244.454C221.387 244.598 221.162 244.769 221.024 244.967C220.886 245.159 220.817 245.375 220.817 245.615C220.817 245.843 220.853 246.041 220.925 246.209C221.003 246.371 221.105 246.506 221.231 246.614C221.363 246.716 221.516 246.791 221.69 246.839C221.864 246.887 222.053 246.911 222.257 246.911C222.527 246.911 222.773 246.884 222.995 246.83C223.223 246.776 223.436 246.701 223.634 246.605C223.832 246.503 224.021 246.38 224.201 246.236C224.381 246.092 224.558 245.927 224.732 245.741V243.941ZM219.584 240.134C220.094 239.648 220.646 239.285 221.24 239.045C221.84 238.805 222.497 238.685 223.211 238.685C223.733 238.685 224.195 238.772 224.597 238.946C224.999 239.114 225.338 239.351 225.614 239.657C225.89 239.963 226.097 240.329 226.235 240.755C226.379 241.181 226.451 241.652 226.451 242.168V248H225.668C225.494 248 225.362 247.973 225.272 247.919C225.182 247.859 225.11 247.751 225.056 247.595L224.867 246.794C224.633 247.01 224.402 247.202 224.174 247.37C223.946 247.532 223.706 247.673 223.454 247.793C223.208 247.907 222.944 247.994 222.662 248.054C222.38 248.114 222.068 248.144 221.726 248.144C221.366 248.144 221.027 248.096 220.709 248C220.397 247.898 220.124 247.745 219.89 247.541C219.656 247.337 219.47 247.082 219.332 246.776C219.2 246.47 219.134 246.113 219.134 245.705C219.134 245.345 219.23 245 219.422 244.67C219.62 244.334 219.938 244.034 220.376 243.77C220.82 243.506 221.396 243.29 222.104 243.122C222.818 242.954 223.694 242.858 224.732 242.834V242.168C224.732 241.478 224.585 240.962 224.291 240.62C223.997 240.278 223.565 240.107 222.995 240.107C222.611 240.107 222.287 240.155 222.023 240.251C221.765 240.347 221.54 240.455 221.348 240.575C221.162 240.689 220.997 240.794 220.853 240.89C220.715 240.986 220.571 241.034 220.421 241.034C220.301 241.034 220.196 241.001 220.106 240.935C220.022 240.869 219.953 240.791 219.899 240.701L219.584 240.134ZM235.208 240.566C235.154 240.632 235.1 240.686 235.046 240.728C234.998 240.764 234.926 240.782 234.83 240.782C234.734 240.782 234.632 240.746 234.524 240.674C234.422 240.596 234.29 240.515 234.128 240.431C233.972 240.341 233.78 240.26 233.552 240.188C233.33 240.11 233.054 240.071 232.724 240.071C232.292 240.071 231.911 240.149 231.581 240.305C231.251 240.461 230.975 240.683 230.753 240.971C230.537 241.259 230.372 241.61 230.258 242.024C230.144 242.438 230.087 242.903 230.087 243.419C230.087 243.953 230.147 244.43 230.267 244.85C230.387 245.264 230.558 245.615 230.78 245.903C231.002 246.185 231.272 246.401 231.59 246.551C231.908 246.695 232.262 246.767 232.652 246.767C233.03 246.767 233.342 246.722 233.588 246.632C233.834 246.536 234.038 246.434 234.2 246.326C234.362 246.218 234.497 246.119 234.605 246.029C234.713 245.933 234.824 245.885 234.938 245.885C235.082 245.885 235.193 245.939 235.271 246.047L235.775 246.695C235.565 246.953 235.328 247.172 235.064 247.352C234.806 247.532 234.53 247.679 234.236 247.793C233.942 247.907 233.633 247.991 233.309 248.045C232.991 248.099 232.667 248.126 232.337 248.126C231.767 248.126 231.233 248.021 230.735 247.811C230.243 247.601 229.814 247.295 229.448 246.893C229.088 246.491 228.803 245.999 228.593 245.417C228.383 244.829 228.278 244.163 228.278 243.419C228.278 242.741 228.371 242.114 228.557 241.538C228.749 240.962 229.028 240.467 229.394 240.053C229.766 239.633 230.222 239.306 230.762 239.072C231.302 238.832 231.92 238.712 232.616 238.712C233.27 238.712 233.846 238.817 234.344 239.027C234.842 239.237 235.286 239.534 235.676 239.918L235.208 240.566ZM243.312 242.411C243.312 242.063 243.261 241.742 243.159 241.448C243.063 241.154 242.919 240.899 242.727 240.683C242.535 240.467 242.301 240.299 242.025 240.179C241.749 240.059 241.431 239.999 241.071 239.999C240.333 239.999 239.751 240.212 239.325 240.638C238.905 241.064 238.638 241.655 238.524 242.411H243.312ZM244.761 246.695C244.545 246.947 244.296 247.166 244.014 247.352C243.732 247.532 243.432 247.679 243.114 247.793C242.796 247.907 242.466 247.991 242.124 248.045C241.788 248.099 241.455 248.126 241.125 248.126C240.495 248.126 239.91 248.021 239.37 247.811C238.836 247.595 238.371 247.283 237.975 246.875C237.585 246.461 237.279 245.951 237.057 245.345C236.841 244.733 236.733 244.031 236.733 243.239C236.733 242.603 236.832 242.012 237.03 241.466C237.228 240.914 237.51 240.434 237.876 240.026C238.248 239.618 238.701 239.297 239.235 239.063C239.769 238.829 240.369 238.712 241.035 238.712C241.593 238.712 242.106 238.805 242.574 238.991C243.048 239.171 243.456 239.435 243.798 239.783C244.14 240.131 244.407 240.56 244.599 241.07C244.797 241.58 244.896 242.162 244.896 242.816C244.896 243.086 244.866 243.269 244.806 243.365C244.746 243.455 244.635 243.5 244.473 243.5H238.479C238.497 244.046 238.575 244.523 238.713 244.931C238.851 245.333 239.04 245.669 239.28 245.939C239.526 246.209 239.817 246.41 240.153 246.542C240.489 246.674 240.864 246.74 241.278 246.74C241.668 246.74 242.004 246.695 242.286 246.605C242.574 246.515 242.82 246.419 243.024 246.317C243.234 246.209 243.408 246.11 243.546 246.02C243.69 245.93 243.816 245.885 243.924 245.885C244.068 245.885 244.179 245.939 244.257 246.047L244.761 246.695ZM247.575 248C247.413 248 247.263 247.97 247.125 247.91C246.993 247.85 246.876 247.769 246.774 247.667C246.678 247.559 246.603 247.433 246.549 247.289C246.495 247.145 246.468 246.989 246.468 246.821C246.468 246.677 246.495 246.542 246.549 246.416C246.603 246.284 246.678 246.17 246.774 246.074C246.876 245.978 246.996 245.903 247.134 245.849C247.272 245.789 247.425 245.759 247.593 245.759C247.785 245.759 247.953 245.795 248.097 245.867C248.247 245.933 248.37 246.029 248.466 246.155C248.568 246.275 248.643 246.416 248.691 246.578C248.739 246.74 248.763 246.914 248.763 247.1C248.763 247.37 248.724 247.655 248.646 247.955C248.568 248.255 248.454 248.552 248.304 248.846C248.154 249.14 247.968 249.425 247.746 249.701C247.524 249.977 247.272 250.232 246.99 250.466L246.693 250.187C246.603 250.103 246.558 250.01 246.558 249.908C246.558 249.866 246.57 249.821 246.594 249.773C246.624 249.731 246.66 249.689 246.702 249.647C246.762 249.581 246.84 249.494 246.936 249.386C247.032 249.278 247.125 249.152 247.215 249.008C247.311 248.87 247.398 248.714 247.476 248.54C247.56 248.372 247.62 248.192 247.656 248H247.575ZM257.735 236.633V240.962H262.919V242.519H257.735V248H255.809V235.076H263.819V236.633H257.735ZM272.564 238.856V248H271.511C271.271 248 271.115 247.883 271.043 247.649L270.917 246.731C270.719 246.941 270.512 247.133 270.296 247.307C270.08 247.481 269.849 247.631 269.603 247.757C269.357 247.877 269.096 247.97 268.82 248.036C268.544 248.108 268.247 248.144 267.929 248.144C267.425 248.144 266.981 248.06 266.597 247.892C266.219 247.724 265.901 247.49 265.643 247.19C265.385 246.884 265.19 246.518 265.058 246.092C264.926 245.666 264.86 245.195 264.86 244.679V238.856H266.624V244.679C266.624 245.333 266.774 245.843 267.074 246.209C267.374 246.569 267.833 246.749 268.451 246.749C268.901 246.749 269.321 246.644 269.711 246.434C270.101 246.218 270.467 245.924 270.809 245.552V238.856H272.564ZM276.813 234.716V248H275.049V234.716H276.813ZM281.12 234.716V248H279.356V234.716H281.12ZM293.57 240.431C293.522 240.509 293.471 240.566 293.417 240.602C293.363 240.632 293.294 240.647 293.21 240.647C293.114 240.647 293.006 240.614 292.886 240.548C292.772 240.482 292.631 240.41 292.463 240.332C292.301 240.254 292.109 240.182 291.887 240.116C291.665 240.05 291.401 240.017 291.095 240.017C290.843 240.017 290.612 240.05 290.402 240.116C290.198 240.176 290.024 240.263 289.88 240.377C289.736 240.485 289.625 240.617 289.547 240.773C289.469 240.923 289.43 241.085 289.43 241.259C289.43 241.487 289.496 241.676 289.628 241.826C289.766 241.976 289.943 242.105 290.159 242.213C290.381 242.321 290.63 242.42 290.906 242.51C291.188 242.594 291.473 242.684 291.761 242.78C292.055 242.876 292.34 242.987 292.616 243.113C292.898 243.233 293.147 243.386 293.363 243.572C293.585 243.752 293.762 243.971 293.894 244.229C294.032 244.487 294.101 244.802 294.101 245.174C294.101 245.6 294.023 245.996 293.867 246.362C293.717 246.722 293.492 247.034 293.192 247.298C292.898 247.562 292.532 247.769 292.094 247.919C291.656 248.069 291.155 248.144 290.591 248.144C289.961 248.144 289.379 248.039 288.845 247.829C288.311 247.619 287.864 247.352 287.504 247.028L287.918 246.353C287.966 246.269 288.026 246.206 288.098 246.164C288.17 246.116 288.266 246.092 288.386 246.092C288.5 246.092 288.617 246.134 288.737 246.218C288.857 246.302 289.001 246.395 289.169 246.497C289.337 246.593 289.541 246.683 289.781 246.767C290.021 246.845 290.321 246.884 290.681 246.884C290.981 246.884 291.242 246.848 291.464 246.776C291.686 246.698 291.869 246.596 292.013 246.47C292.163 246.338 292.274 246.188 292.346 246.02C292.418 245.852 292.454 245.675 292.454 245.489C292.454 245.249 292.385 245.051 292.247 244.895C292.115 244.733 291.938 244.595 291.716 244.481C291.5 244.367 291.251 244.268 290.969 244.184C290.687 244.1 290.399 244.01 290.105 243.914C289.811 243.818 289.523 243.707 289.241 243.581C288.959 243.455 288.707 243.296 288.485 243.104C288.269 242.912 288.092 242.678 287.954 242.402C287.822 242.126 287.756 241.79 287.756 241.394C287.756 241.04 287.828 240.701 287.972 240.377C288.122 240.053 288.335 239.768 288.611 239.522C288.893 239.276 289.238 239.081 289.646 238.937C290.06 238.787 290.531 238.712 291.059 238.712C291.665 238.712 292.211 238.808 292.697 239C293.189 239.192 293.609 239.456 293.957 239.792L293.57 240.431ZM297.757 245.75C298.045 246.128 298.354 246.392 298.684 246.542C299.02 246.692 299.395 246.767 299.809 246.767C300.613 246.767 301.234 246.479 301.672 245.903C302.116 245.321 302.338 244.475 302.338 243.365C302.338 242.783 302.287 242.288 302.185 241.88C302.089 241.466 301.945 241.13 301.753 240.872C301.567 240.608 301.336 240.416 301.06 240.296C300.784 240.17 300.472 240.107 300.124 240.107C299.614 240.107 299.17 240.221 298.792 240.449C298.42 240.677 298.075 241.001 297.757 241.421V245.75ZM297.667 240.224C297.859 239.996 298.063 239.789 298.279 239.603C298.501 239.411 298.738 239.249 298.99 239.117C299.242 238.979 299.509 238.874 299.791 238.802C300.079 238.724 300.385 238.685 300.709 238.685C301.231 238.685 301.702 238.787 302.122 238.991C302.548 239.195 302.911 239.495 303.211 239.891C303.511 240.287 303.742 240.776 303.904 241.358C304.072 241.94 304.156 242.609 304.156 243.365C304.156 244.043 304.063 244.673 303.877 245.255C303.697 245.831 303.436 246.332 303.094 246.758C302.758 247.184 302.344 247.52 301.852 247.766C301.366 248.006 300.817 248.126 300.205 248.126C299.659 248.126 299.191 248.036 298.801 247.856C298.411 247.676 298.063 247.424 297.757 247.1V251.069H296.002V238.856H297.055C297.301 238.856 297.454 238.973 297.514 239.207L297.667 240.224ZM312.184 242.411C312.184 242.063 312.133 241.742 312.031 241.448C311.935 241.154 311.791 240.899 311.599 240.683C311.407 240.467 311.173 240.299 310.897 240.179C310.621 240.059 310.303 239.999 309.943 239.999C309.205 239.999 308.623 240.212 308.197 240.638C307.777 241.064 307.51 241.655 307.396 242.411H312.184ZM313.633 246.695C313.417 246.947 313.168 247.166 312.886 247.352C312.604 247.532 312.304 247.679 311.986 247.793C311.668 247.907 311.338 247.991 310.996 248.045C310.66 248.099 310.327 248.126 309.997 248.126C309.367 248.126 308.782 248.021 308.242 247.811C307.708 247.595 307.243 247.283 306.847 246.875C306.457 246.461 306.151 245.951 305.929 245.345C305.713 244.733 305.605 244.031 305.605 243.239C305.605 242.603 305.704 242.012 305.902 241.466C306.1 240.914 306.382 240.434 306.748 240.026C307.12 239.618 307.573 239.297 308.107 239.063C308.641 238.829 309.241 238.712 309.907 238.712C310.465 238.712 310.978 238.805 311.446 238.991C311.92 239.171 312.328 239.435 312.67 239.783C313.012 240.131 313.279 240.56 313.471 241.07C313.669 241.58 313.768 242.162 313.768 242.816C313.768 243.086 313.738 243.269 313.678 243.365C313.618 243.455 313.507 243.5 313.345 243.5H307.351C307.369 244.046 307.447 244.523 307.585 244.931C307.723 245.333 307.912 245.669 308.152 245.939C308.398 246.209 308.689 246.41 309.025 246.542C309.361 246.674 309.736 246.74 310.15 246.74C310.54 246.74 310.876 246.695 311.158 246.605C311.446 246.515 311.692 246.419 311.896 246.317C312.106 246.209 312.28 246.11 312.418 246.02C312.562 245.93 312.688 245.885 312.796 245.885C312.94 245.885 313.051 245.939 313.129 246.047L313.633 246.695ZM321.711 242.411C321.711 242.063 321.66 241.742 321.558 241.448C321.462 241.154 321.318 240.899 321.126 240.683C320.934 240.467 320.7 240.299 320.424 240.179C320.148 240.059 319.83 239.999 319.47 239.999C318.732 239.999 318.15 240.212 317.724 240.638C317.304 241.064 317.037 241.655 316.923 242.411H321.711ZM323.16 246.695C322.944 246.947 322.695 247.166 322.413 247.352C322.131 247.532 321.831 247.679 321.513 247.793C321.195 247.907 320.865 247.991 320.523 248.045C320.187 248.099 319.854 248.126 319.524 248.126C318.894 248.126 318.309 248.021 317.769 247.811C317.235 247.595 316.77 247.283 316.374 246.875C315.984 246.461 315.678 245.951 315.456 245.345C315.24 244.733 315.132 244.031 315.132 243.239C315.132 242.603 315.231 242.012 315.429 241.466C315.627 240.914 315.909 240.434 316.275 240.026C316.647 239.618 317.1 239.297 317.634 239.063C318.168 238.829 318.768 238.712 319.434 238.712C319.992 238.712 320.505 238.805 320.973 238.991C321.447 239.171 321.855 239.435 322.197 239.783C322.539 240.131 322.806 240.56 322.998 241.07C323.196 241.58 323.295 242.162 323.295 242.816C323.295 243.086 323.265 243.269 323.205 243.365C323.145 243.455 323.034 243.5 322.872 243.5H316.878C316.896 244.046 316.974 244.523 317.112 244.931C317.25 245.333 317.439 245.669 317.679 245.939C317.925 246.209 318.216 246.41 318.552 246.542C318.888 246.674 319.263 246.74 319.677 246.74C320.067 246.74 320.403 246.695 320.685 246.605C320.973 246.515 321.219 246.419 321.423 246.317C321.633 246.209 321.807 246.11 321.945 246.02C322.089 245.93 322.215 245.885 322.323 245.885C322.467 245.885 322.578 245.939 322.656 246.047L323.16 246.695ZM331.076 241.07C330.788 240.692 330.476 240.428 330.14 240.278C329.81 240.128 329.438 240.053 329.024 240.053C328.22 240.053 327.596 240.344 327.152 240.926C326.714 241.502 326.495 242.345 326.495 243.455C326.495 244.037 326.543 244.535 326.639 244.949C326.741 245.357 326.885 245.693 327.071 245.957C327.263 246.215 327.497 246.407 327.773 246.533C328.049 246.653 328.361 246.713 328.709 246.713C329.219 246.713 329.66 246.599 330.032 246.371C330.404 246.143 330.752 245.822 331.076 245.408V241.07ZM332.84 234.716V248H331.778C331.532 248 331.379 247.883 331.319 247.649L331.166 246.596C330.776 247.058 330.332 247.43 329.834 247.712C329.342 247.988 328.772 248.126 328.124 248.126C327.602 248.126 327.128 248.024 326.702 247.82C326.282 247.616 325.922 247.319 325.622 246.929C325.322 246.533 325.091 246.044 324.929 245.462C324.767 244.88 324.686 244.211 324.686 243.455C324.686 242.777 324.776 242.147 324.956 241.565C325.136 240.983 325.397 240.479 325.739 240.053C326.081 239.627 326.495 239.294 326.981 239.054C327.467 238.808 328.016 238.685 328.628 238.685C329.18 238.685 329.648 238.775 330.032 238.955C330.422 239.135 330.77 239.39 331.076 239.72V234.716H332.84ZM134.554 266.856L131.611 276H130.207C130.039 276 129.925 275.889 129.865 275.667L127.939 269.709C127.891 269.559 127.849 269.412 127.813 269.268C127.777 269.118 127.744 268.968 127.714 268.818C127.66 269.13 127.585 269.433 127.489 269.727L125.536 275.667C125.476 275.889 125.347 276 125.149 276H123.817L120.865 266.856H122.251C122.389 266.856 122.503 266.889 122.593 266.955C122.689 267.021 122.752 267.105 122.782 267.207L124.429 272.823C124.483 273.051 124.531 273.273 124.573 273.489C124.615 273.705 124.654 273.921 124.69 274.137C124.744 273.921 124.801 273.705 124.861 273.489C124.927 273.273 124.993 273.051 125.059 272.823L126.886 267.171C126.916 267.069 126.973 266.988 127.057 266.928C127.141 266.862 127.243 266.829 127.363 266.829H128.128C128.26 266.829 128.368 266.862 128.452 266.928C128.542 266.988 128.602 267.069 128.632 267.171L130.414 272.823C130.48 273.051 130.543 273.276 130.603 273.498C130.663 273.714 130.717 273.933 130.765 274.155C130.801 273.939 130.843 273.723 130.891 273.507C130.939 273.285 130.993 273.057 131.053 272.823L132.727 267.207C132.757 267.105 132.817 267.021 132.907 266.955C133.003 266.889 133.111 266.856 133.231 266.856H134.554ZM137.877 266.856V276H136.122V266.856H137.877ZM138.21 264.03C138.21 264.192 138.177 264.348 138.111 264.498C138.045 264.642 137.955 264.771 137.841 264.885C137.733 264.993 137.604 265.08 137.454 265.146C137.304 265.206 137.148 265.236 136.986 265.236C136.824 265.236 136.671 265.206 136.527 265.146C136.383 265.08 136.254 264.993 136.14 264.885C136.032 264.771 135.945 264.642 135.879 264.498C135.819 264.348 135.789 264.192 135.789 264.03C135.789 263.862 135.819 263.706 135.879 263.562C135.945 263.412 136.032 263.283 136.14 263.175C136.254 263.061 136.383 262.974 136.527 262.914C136.671 262.848 136.824 262.815 136.986 262.815C137.148 262.815 137.304 262.848 137.454 262.914C137.604 262.974 137.733 263.061 137.841 263.175C137.955 263.283 138.045 263.412 138.111 263.562C138.177 263.706 138.21 263.862 138.21 264.03ZM141.03 276V268.296L140.076 268.179C139.938 268.149 139.824 268.101 139.734 268.035C139.65 267.963 139.608 267.861 139.608 267.729V267H141.03V266.559C141.03 266.001 141.117 265.488 141.291 265.02C141.471 264.546 141.738 264.138 142.092 263.796C142.452 263.454 142.896 263.19 143.424 263.004C143.958 262.812 144.582 262.716 145.296 262.716C145.524 262.716 145.764 262.731 146.016 262.761C146.268 262.791 146.481 262.836 146.655 262.896L146.592 263.814C146.58 263.934 146.505 263.997 146.367 264.003C146.229 264.009 146.037 264.012 145.791 264.012C145.245 264.012 144.78 264.066 144.396 264.174C144.012 264.282 143.697 264.444 143.451 264.66C143.205 264.876 143.025 265.149 142.911 265.479C142.797 265.803 142.74 266.181 142.74 266.613V267H148.302V276H146.538V268.278H142.794V276H141.03ZM151.633 276C151.471 276 151.321 275.97 151.183 275.91C151.051 275.85 150.934 275.769 150.832 275.667C150.736 275.559 150.661 275.433 150.607 275.289C150.553 275.145 150.526 274.989 150.526 274.821C150.526 274.677 150.553 274.542 150.607 274.416C150.661 274.284 150.736 274.17 150.832 274.074C150.934 273.978 151.054 273.903 151.192 273.849C151.33 273.789 151.483 273.759 151.651 273.759C151.843 273.759 152.011 273.795 152.155 273.867C152.305 273.933 152.428 274.029 152.524 274.155C152.626 274.275 152.701 274.416 152.749 274.578C152.797 274.74 152.821 274.914 152.821 275.1C152.821 275.37 152.782 275.655 152.704 275.955C152.626 276.255 152.512 276.552 152.362 276.846C152.212 277.14 152.026 277.425 151.804 277.701C151.582 277.977 151.33 278.232 151.048 278.466L150.751 278.187C150.661 278.103 150.616 278.01 150.616 277.908C150.616 277.866 150.628 277.821 150.652 277.773C150.682 277.731 150.718 277.689 150.76 277.647C150.82 277.581 150.898 277.494 150.994 277.386C151.09 277.278 151.183 277.152 151.273 277.008C151.369 276.87 151.456 276.714 151.534 276.54C151.618 276.372 151.678 276.192 151.714 276H151.633ZM161.793 264.633V268.962H166.977V270.519H161.793V276H159.867V263.076H167.877V264.633H161.793ZM170.568 268.611C170.862 268.011 171.216 267.54 171.63 267.198C172.044 266.856 172.542 266.685 173.124 266.685C173.322 266.685 173.508 266.709 173.682 266.757C173.862 266.799 174.018 266.865 174.15 266.955L174.033 268.278C173.991 268.44 173.892 268.521 173.736 268.521C173.652 268.521 173.526 268.506 173.358 268.476C173.19 268.44 173.01 268.422 172.818 268.422C172.536 268.422 172.287 268.464 172.071 268.548C171.855 268.626 171.66 268.746 171.486 268.908C171.318 269.064 171.168 269.259 171.036 269.493C170.904 269.721 170.781 269.982 170.667 270.276V276H168.912V266.856H169.92C170.112 266.856 170.241 266.892 170.307 266.964C170.379 267.03 170.43 267.15 170.46 267.324L170.568 268.611ZM181.227 270.411C181.227 270.063 181.176 269.742 181.074 269.448C180.978 269.154 180.834 268.899 180.642 268.683C180.45 268.467 180.216 268.299 179.94 268.179C179.664 268.059 179.346 267.999 178.986 267.999C178.248 267.999 177.666 268.212 177.24 268.638C176.82 269.064 176.553 269.655 176.439 270.411H181.227ZM182.676 274.695C182.46 274.947 182.211 275.166 181.929 275.352C181.647 275.532 181.347 275.679 181.029 275.793C180.711 275.907 180.381 275.991 180.039 276.045C179.703 276.099 179.37 276.126 179.04 276.126C178.41 276.126 177.825 276.021 177.285 275.811C176.751 275.595 176.286 275.283 175.89 274.875C175.5 274.461 175.194 273.951 174.972 273.345C174.756 272.733 174.648 272.031 174.648 271.239C174.648 270.603 174.747 270.012 174.945 269.466C175.143 268.914 175.425 268.434 175.791 268.026C176.163 267.618 176.616 267.297 177.15 267.063C177.684 266.829 178.284 266.712 178.95 266.712C179.508 266.712 180.021 266.805 180.489 266.991C180.963 267.171 181.371 267.435 181.713 267.783C182.055 268.131 182.322 268.56 182.514 269.07C182.712 269.58 182.811 270.162 182.811 270.816C182.811 271.086 182.781 271.269 182.721 271.365C182.661 271.455 182.55 271.5 182.388 271.5H176.394C176.412 272.046 176.49 272.523 176.628 272.931C176.766 273.333 176.955 273.669 177.195 273.939C177.441 274.209 177.732 274.41 178.068 274.542C178.404 274.674 178.779 274.74 179.193 274.74C179.583 274.74 179.919 274.695 180.201 274.605C180.489 274.515 180.735 274.419 180.939 274.317C181.149 274.209 181.323 274.11 181.461 274.02C181.605 273.93 181.731 273.885 181.839 273.885C181.983 273.885 182.094 273.939 182.172 274.047L182.676 274.695ZM190.754 270.411C190.754 270.063 190.703 269.742 190.601 269.448C190.505 269.154 190.361 268.899 190.169 268.683C189.977 268.467 189.743 268.299 189.467 268.179C189.191 268.059 188.873 267.999 188.513 267.999C187.775 267.999 187.193 268.212 186.767 268.638C186.347 269.064 186.08 269.655 185.966 270.411H190.754ZM192.203 274.695C191.987 274.947 191.738 275.166 191.456 275.352C191.174 275.532 190.874 275.679 190.556 275.793C190.238 275.907 189.908 275.991 189.566 276.045C189.23 276.099 188.897 276.126 188.567 276.126C187.937 276.126 187.352 276.021 186.812 275.811C186.278 275.595 185.813 275.283 185.417 274.875C185.027 274.461 184.721 273.951 184.499 273.345C184.283 272.733 184.175 272.031 184.175 271.239C184.175 270.603 184.274 270.012 184.472 269.466C184.67 268.914 184.952 268.434 185.318 268.026C185.69 267.618 186.143 267.297 186.677 267.063C187.211 266.829 187.811 266.712 188.477 266.712C189.035 266.712 189.548 266.805 190.016 266.991C190.49 267.171 190.898 267.435 191.24 267.783C191.582 268.131 191.849 268.56 192.041 269.07C192.239 269.58 192.338 270.162 192.338 270.816C192.338 271.086 192.308 271.269 192.248 271.365C192.188 271.455 192.077 271.5 191.915 271.5H185.921C185.939 272.046 186.017 272.523 186.155 272.931C186.293 273.333 186.482 273.669 186.722 273.939C186.968 274.209 187.259 274.41 187.595 274.542C187.931 274.674 188.306 274.74 188.72 274.74C189.11 274.74 189.446 274.695 189.728 274.605C190.016 274.515 190.262 274.419 190.466 274.317C190.676 274.209 190.85 274.11 190.988 274.02C191.132 273.93 191.258 273.885 191.366 273.885C191.51 273.885 191.621 273.939 191.699 274.047L192.203 274.695ZM205.185 268.566C205.131 268.632 205.077 268.686 205.023 268.728C204.975 268.764 204.903 268.782 204.807 268.782C204.711 268.782 204.609 268.746 204.501 268.674C204.399 268.596 204.267 268.515 204.105 268.431C203.949 268.341 203.757 268.26 203.529 268.188C203.307 268.11 203.031 268.071 202.701 268.071C202.269 268.071 201.888 268.149 201.558 268.305C201.228 268.461 200.952 268.683 200.73 268.971C200.514 269.259 200.349 269.61 200.235 270.024C200.121 270.438 200.064 270.903 200.064 271.419C200.064 271.953 200.124 272.43 200.244 272.85C200.364 273.264 200.535 273.615 200.757 273.903C200.979 274.185 201.249 274.401 201.567 274.551C201.885 274.695 202.239 274.767 202.629 274.767C203.007 274.767 203.319 274.722 203.565 274.632C203.811 274.536 204.015 274.434 204.177 274.326C204.339 274.218 204.474 274.119 204.582 274.029C204.69 273.933 204.801 273.885 204.915 273.885C205.059 273.885 205.17 273.939 205.248 274.047L205.752 274.695C205.542 274.953 205.305 275.172 205.041 275.352C204.783 275.532 204.507 275.679 204.213 275.793C203.919 275.907 203.61 275.991 203.286 276.045C202.968 276.099 202.644 276.126 202.314 276.126C201.744 276.126 201.21 276.021 200.712 275.811C200.22 275.601 199.791 275.295 199.425 274.893C199.065 274.491 198.78 273.999 198.57 273.417C198.36 272.829 198.255 272.163 198.255 271.419C198.255 270.741 198.348 270.114 198.534 269.538C198.726 268.962 199.005 268.467 199.371 268.053C199.743 267.633 200.199 267.306 200.739 267.072C201.279 266.832 201.897 266.712 202.593 266.712C203.247 266.712 203.823 266.817 204.321 267.027C204.819 267.237 205.263 267.534 205.653 267.918L205.185 268.566ZM211.129 266.712C211.801 266.712 212.407 266.823 212.947 267.045C213.493 267.261 213.955 267.576 214.333 267.99C214.717 268.398 215.011 268.893 215.215 269.475C215.419 270.051 215.521 270.699 215.521 271.419C215.521 272.139 215.419 272.79 215.215 273.372C215.011 273.954 214.717 274.449 214.333 274.857C213.955 275.265 213.493 275.58 212.947 275.802C212.407 276.018 211.801 276.126 211.129 276.126C210.451 276.126 209.839 276.018 209.293 275.802C208.753 275.58 208.291 275.265 207.907 274.857C207.523 274.449 207.226 273.954 207.016 273.372C206.812 272.79 206.71 272.139 206.71 271.419C206.71 270.699 206.812 270.051 207.016 269.475C207.226 268.893 207.523 268.398 207.907 267.99C208.291 267.576 208.753 267.261 209.293 267.045C209.839 266.823 210.451 266.712 211.129 266.712ZM211.129 274.758C211.993 274.758 212.638 274.467 213.064 273.885C213.49 273.303 213.703 272.484 213.703 271.428C213.703 270.372 213.49 269.553 213.064 268.971C212.638 268.383 211.993 268.089 211.129 268.089C210.253 268.089 209.599 268.383 209.167 268.971C208.741 269.553 208.528 270.372 208.528 271.428C208.528 272.484 208.741 273.303 209.167 273.885C209.599 274.467 210.253 274.758 211.129 274.758ZM217.872 276V268.296L216.918 268.179C216.78 268.149 216.666 268.101 216.576 268.035C216.492 267.963 216.45 267.861 216.45 267.729V267H217.872V266.316C217.872 265.794 217.947 265.329 218.097 264.921C218.247 264.513 218.46 264.168 218.736 263.886C219.018 263.598 219.354 263.382 219.744 263.238C220.14 263.088 220.584 263.013 221.076 263.013C221.49 263.013 221.871 263.073 222.219 263.193L222.183 264.084C222.177 264.156 222.153 264.213 222.111 264.255C222.069 264.291 222.012 264.318 221.94 264.336C221.874 264.354 221.79 264.366 221.688 264.372C221.592 264.372 221.487 264.372 221.373 264.372C221.103 264.372 220.857 264.405 220.635 264.471C220.413 264.537 220.224 264.648 220.068 264.804C219.912 264.96 219.792 265.167 219.708 265.425C219.624 265.677 219.582 265.992 219.582 266.37V267H223.578V266.064C223.578 265.542 223.653 265.077 223.803 264.669C223.953 264.261 224.166 263.916 224.442 263.634C224.724 263.346 225.063 263.13 225.459 262.986C225.855 262.836 226.299 262.761 226.791 262.761C227.193 262.761 227.574 262.821 227.934 262.941L227.889 263.823C227.883 263.901 227.859 263.961 227.817 264.003C227.781 264.039 227.727 264.066 227.655 264.084C227.583 264.102 227.499 264.114 227.403 264.12C227.307 264.12 227.199 264.12 227.079 264.12C226.809 264.12 226.563 264.153 226.341 264.219C226.119 264.285 225.93 264.396 225.774 264.552C225.618 264.708 225.498 264.915 225.414 265.173C225.33 265.425 225.288 265.74 225.288 266.118V267H227.853V268.278H225.342V276H223.578V268.278H219.636V276H217.872ZM235.103 270.411C235.103 270.063 235.052 269.742 234.95 269.448C234.854 269.154 234.71 268.899 234.518 268.683C234.326 268.467 234.092 268.299 233.816 268.179C233.54 268.059 233.222 267.999 232.862 267.999C232.124 267.999 231.542 268.212 231.116 268.638C230.696 269.064 230.429 269.655 230.315 270.411H235.103ZM236.552 274.695C236.336 274.947 236.087 275.166 235.805 275.352C235.523 275.532 235.223 275.679 234.905 275.793C234.587 275.907 234.257 275.991 233.915 276.045C233.579 276.099 233.246 276.126 232.916 276.126C232.286 276.126 231.701 276.021 231.161 275.811C230.627 275.595 230.162 275.283 229.766 274.875C229.376 274.461 229.07 273.951 228.848 273.345C228.632 272.733 228.524 272.031 228.524 271.239C228.524 270.603 228.623 270.012 228.821 269.466C229.019 268.914 229.301 268.434 229.667 268.026C230.039 267.618 230.492 267.297 231.026 267.063C231.56 266.829 232.16 266.712 232.826 266.712C233.384 266.712 233.897 266.805 234.365 266.991C234.839 267.171 235.247 267.435 235.589 267.783C235.931 268.131 236.198 268.56 236.39 269.07C236.588 269.58 236.687 270.162 236.687 270.816C236.687 271.086 236.657 271.269 236.597 271.365C236.537 271.455 236.426 271.5 236.264 271.5H230.27C230.288 272.046 230.366 272.523 230.504 272.931C230.642 273.333 230.831 273.669 231.071 273.939C231.317 274.209 231.608 274.41 231.944 274.542C232.28 274.674 232.655 274.74 233.069 274.74C233.459 274.74 233.795 274.695 234.077 274.605C234.365 274.515 234.611 274.419 234.815 274.317C235.025 274.209 235.199 274.11 235.337 274.02C235.481 273.93 235.607 273.885 235.715 273.885C235.859 273.885 235.97 273.939 236.048 274.047L236.552 274.695ZM246.214 269.718C245.62 270.048 245.176 270.444 244.882 270.906C244.594 271.362 244.45 271.854 244.45 272.382C244.45 272.754 244.516 273.087 244.648 273.381C244.786 273.669 244.966 273.912 245.188 274.11C245.416 274.308 245.674 274.458 245.962 274.56C246.256 274.662 246.556 274.713 246.862 274.713C247.498 274.713 248.071 274.602 248.581 274.38C249.091 274.152 249.544 273.849 249.94 273.471L246.214 269.718ZM254.629 276H252.919C252.727 276 252.574 275.979 252.46 275.937C252.352 275.889 252.229 275.793 252.091 275.649L250.894 274.443C250.33 274.971 249.682 275.388 248.95 275.694C248.224 275.994 247.426 276.144 246.556 276.144C246.07 276.144 245.593 276.063 245.125 275.901C244.663 275.733 244.249 275.493 243.883 275.181C243.517 274.869 243.22 274.491 242.992 274.047C242.77 273.597 242.659 273.09 242.659 272.526C242.659 272.112 242.728 271.719 242.866 271.347C243.004 270.969 243.196 270.624 243.442 270.312C243.688 269.994 243.979 269.709 244.315 269.457C244.657 269.205 245.026 268.989 245.422 268.809C245.068 268.347 244.807 267.9 244.639 267.468C244.477 267.03 244.396 266.583 244.396 266.127C244.396 265.689 244.477 265.275 244.639 264.885C244.801 264.495 245.032 264.156 245.332 263.868C245.632 263.58 245.998 263.352 246.43 263.184C246.868 263.016 247.36 262.932 247.906 262.932C248.392 262.932 248.833 263.01 249.229 263.166C249.631 263.316 249.976 263.52 250.264 263.778C250.552 264.036 250.777 264.333 250.939 264.669C251.107 265.005 251.203 265.356 251.227 265.722L250.129 265.947C249.907 265.995 249.745 265.896 249.643 265.65C249.595 265.494 249.526 265.335 249.436 265.173C249.352 265.011 249.238 264.867 249.094 264.741C248.956 264.609 248.788 264.501 248.59 264.417C248.392 264.333 248.164 264.291 247.906 264.291C247.618 264.291 247.357 264.339 247.123 264.435C246.895 264.531 246.7 264.663 246.538 264.831C246.376 264.993 246.25 265.185 246.16 265.407C246.076 265.629 246.034 265.866 246.034 266.118C246.034 266.316 246.058 266.511 246.106 266.703C246.154 266.889 246.226 267.078 246.322 267.27C246.424 267.456 246.553 267.648 246.709 267.846C246.865 268.038 247.051 268.245 247.267 268.467L250.912 272.202C251.134 271.806 251.311 271.389 251.443 270.951C251.575 270.513 251.662 270.075 251.704 269.637C251.716 269.517 251.752 269.421 251.812 269.349C251.878 269.277 251.971 269.241 252.091 269.241H253.18C253.174 269.961 253.063 270.663 252.847 271.347C252.631 272.025 252.325 272.655 251.929 273.237L254.629 276ZM267.593 265.182C267.533 265.284 267.47 265.359 267.404 265.407C267.338 265.455 267.254 265.479 267.152 265.479C267.044 265.479 266.921 265.431 266.783 265.335C266.645 265.233 266.471 265.122 266.261 265.002C266.057 264.876 265.811 264.765 265.523 264.669C265.235 264.567 264.89 264.516 264.488 264.516C264.11 264.516 263.777 264.567 263.489 264.669C263.207 264.765 262.97 264.9 262.778 265.074C262.586 265.242 262.439 265.443 262.337 265.677C262.241 265.905 262.193 266.154 262.193 266.424C262.193 266.772 262.28 267.06 262.454 267.288C262.634 267.516 262.868 267.711 263.156 267.873C263.444 268.035 263.771 268.176 264.137 268.296C264.503 268.416 264.878 268.542 265.262 268.674C265.646 268.8 266.021 268.947 266.387 269.115C266.753 269.283 267.08 269.496 267.368 269.754C267.656 270.006 267.887 270.318 268.061 270.69C268.241 271.056 268.331 271.506 268.331 272.04C268.331 272.61 268.232 273.144 268.034 273.642C267.842 274.14 267.56 274.575 267.188 274.947C266.816 275.319 266.357 275.613 265.811 275.829C265.271 276.039 264.656 276.144 263.966 276.144C263.552 276.144 263.15 276.102 262.76 276.018C262.37 275.94 262.001 275.829 261.653 275.685C261.305 275.535 260.978 275.358 260.672 275.154C260.372 274.944 260.102 274.71 259.862 274.452L260.411 273.534C260.465 273.462 260.528 273.402 260.6 273.354C260.678 273.306 260.765 273.282 260.861 273.282C260.987 273.282 261.131 273.348 261.293 273.48C261.461 273.612 261.665 273.759 261.905 273.921C262.151 274.077 262.442 274.221 262.778 274.353C263.12 274.485 263.534 274.551 264.02 274.551C264.416 274.551 264.77 274.5 265.082 274.398C265.394 274.29 265.655 274.14 265.865 273.948C266.081 273.75 266.246 273.513 266.36 273.237C266.474 272.961 266.531 272.655 266.531 272.319C266.531 271.941 266.444 271.632 266.27 271.392C266.096 271.152 265.865 270.951 265.577 270.789C265.289 270.627 264.962 270.489 264.596 270.375C264.23 270.261 263.855 270.144 263.471 270.024C263.087 269.898 262.712 269.754 262.346 269.592C261.98 269.43 261.653 269.22 261.365 268.962C261.077 268.698 260.846 268.371 260.672 267.981C260.498 267.585 260.411 267.099 260.411 266.523C260.411 266.061 260.501 265.614 260.681 265.182C260.861 264.75 261.122 264.369 261.464 264.039C261.812 263.703 262.238 263.436 262.742 263.238C263.246 263.034 263.822 262.932 264.47 262.932C265.196 262.932 265.862 263.049 266.468 263.283C267.08 263.511 267.611 263.841 268.061 264.273L267.593 265.182ZM271.791 268.125C271.989 267.915 272.196 267.723 272.412 267.549C272.628 267.375 272.856 267.228 273.096 267.108C273.342 266.982 273.603 266.886 273.879 266.82C274.161 266.748 274.461 266.712 274.779 266.712C275.283 266.712 275.724 266.796 276.102 266.964C276.486 267.132 276.807 267.369 277.065 267.675C277.323 267.975 277.518 268.338 277.65 268.764C277.782 269.19 277.848 269.661 277.848 270.177V276H276.084V270.177C276.084 269.523 275.934 269.016 275.634 268.656C275.334 268.29 274.875 268.107 274.257 268.107C273.807 268.107 273.384 268.215 272.988 268.431C272.598 268.641 272.235 268.929 271.899 269.295V276H270.144V266.856H271.197C271.443 266.856 271.596 266.973 271.656 267.207L271.791 268.125ZM285.13 271.941C284.416 271.965 283.81 272.022 283.312 272.112C282.814 272.196 282.409 272.31 282.097 272.454C281.785 272.598 281.56 272.769 281.422 272.967C281.284 273.159 281.215 273.375 281.215 273.615C281.215 273.843 281.251 274.041 281.323 274.209C281.401 274.371 281.503 274.506 281.629 274.614C281.761 274.716 281.914 274.791 282.088 274.839C282.262 274.887 282.451 274.911 282.655 274.911C282.925 274.911 283.171 274.884 283.393 274.83C283.621 274.776 283.834 274.701 284.032 274.605C284.23 274.503 284.419 274.38 284.599 274.236C284.779 274.092 284.956 273.927 285.13 273.741V271.941ZM279.982 268.134C280.492 267.648 281.044 267.285 281.638 267.045C282.238 266.805 282.895 266.685 283.609 266.685C284.131 266.685 284.593 266.772 284.995 266.946C285.397 267.114 285.736 267.351 286.012 267.657C286.288 267.963 286.495 268.329 286.633 268.755C286.777 269.181 286.849 269.652 286.849 270.168V276H286.066C285.892 276 285.76 275.973 285.67 275.919C285.58 275.859 285.508 275.751 285.454 275.595L285.265 274.794C285.031 275.01 284.8 275.202 284.572 275.37C284.344 275.532 284.104 275.673 283.852 275.793C283.606 275.907 283.342 275.994 283.06 276.054C282.778 276.114 282.466 276.144 282.124 276.144C281.764 276.144 281.425 276.096 281.107 276C280.795 275.898 280.522 275.745 280.288 275.541C280.054 275.337 279.868 275.082 279.73 274.776C279.598 274.47 279.532 274.113 279.532 273.705C279.532 273.345 279.628 273 279.82 272.67C280.018 272.334 280.336 272.034 280.774 271.77C281.218 271.506 281.794 271.29 282.502 271.122C283.216 270.954 284.092 270.858 285.13 270.834V270.168C285.13 269.478 284.983 268.962 284.689 268.62C284.395 268.278 283.963 268.107 283.393 268.107C283.009 268.107 282.685 268.155 282.421 268.251C282.163 268.347 281.938 268.455 281.746 268.575C281.56 268.689 281.395 268.794 281.251 268.89C281.113 268.986 280.969 269.034 280.819 269.034C280.699 269.034 280.594 269.001 280.504 268.935C280.42 268.869 280.351 268.791 280.297 268.701L279.982 268.134ZM295.607 268.566C295.553 268.632 295.499 268.686 295.445 268.728C295.397 268.764 295.325 268.782 295.229 268.782C295.133 268.782 295.031 268.746 294.923 268.674C294.821 268.596 294.689 268.515 294.527 268.431C294.371 268.341 294.179 268.26 293.951 268.188C293.729 268.11 293.453 268.071 293.123 268.071C292.691 268.071 292.31 268.149 291.98 268.305C291.65 268.461 291.374 268.683 291.152 268.971C290.936 269.259 290.771 269.61 290.657 270.024C290.543 270.438 290.486 270.903 290.486 271.419C290.486 271.953 290.546 272.43 290.666 272.85C290.786 273.264 290.957 273.615 291.179 273.903C291.401 274.185 291.671 274.401 291.989 274.551C292.307 274.695 292.661 274.767 293.051 274.767C293.429 274.767 293.741 274.722 293.987 274.632C294.233 274.536 294.437 274.434 294.599 274.326C294.761 274.218 294.896 274.119 295.004 274.029C295.112 273.933 295.223 273.885 295.337 273.885C295.481 273.885 295.592 273.939 295.67 274.047L296.174 274.695C295.964 274.953 295.727 275.172 295.463 275.352C295.205 275.532 294.929 275.679 294.635 275.793C294.341 275.907 294.032 275.991 293.708 276.045C293.39 276.099 293.066 276.126 292.736 276.126C292.166 276.126 291.632 276.021 291.134 275.811C290.642 275.601 290.213 275.295 289.847 274.893C289.487 274.491 289.202 273.999 288.992 273.417C288.782 272.829 288.677 272.163 288.677 271.419C288.677 270.741 288.77 270.114 288.956 269.538C289.148 268.962 289.427 268.467 289.793 268.053C290.165 267.633 290.621 267.306 291.161 267.072C291.701 266.832 292.319 266.712 293.015 266.712C293.669 266.712 294.245 266.817 294.743 267.027C295.241 267.237 295.685 267.534 296.075 267.918L295.607 268.566ZM299.567 262.716V270.483H299.981C300.107 270.483 300.212 270.465 300.296 270.429C300.38 270.393 300.467 270.321 300.557 270.213L303.293 267.198C303.377 267.084 303.47 267 303.572 266.946C303.674 266.886 303.803 266.856 303.959 266.856H305.561L302.33 270.393C302.156 270.615 301.97 270.786 301.772 270.906C301.886 270.984 301.985 271.074 302.069 271.176C302.159 271.278 302.246 271.389 302.33 271.509L305.768 276H304.193C304.049 276 303.923 275.976 303.815 275.928C303.713 275.88 303.62 275.793 303.536 275.667L300.71 271.995C300.62 271.857 300.53 271.77 300.44 271.734C300.35 271.692 300.215 271.671 300.035 271.671H299.567V276H297.812V262.716H299.567ZM160.765 299.941C160.051 299.965 159.445 300.022 158.947 300.112C158.449 300.196 158.044 300.31 157.732 300.454C157.42 300.598 157.195 300.769 157.057 300.967C156.919 301.159 156.85 301.375 156.85 301.615C156.85 301.843 156.886 302.041 156.958 302.209C157.036 302.371 157.138 302.506 157.264 302.614C157.396 302.716 157.549 302.791 157.723 302.839C157.897 302.887 158.086 302.911 158.29 302.911C158.56 302.911 158.806 302.884 159.028 302.83C159.256 302.776 159.469 302.701 159.667 302.605C159.865 302.503 160.054 302.38 160.234 302.236C160.414 302.092 160.591 301.927 160.765 301.741V299.941ZM155.617 296.134C156.127 295.648 156.679 295.285 157.273 295.045C157.873 294.805 158.53 294.685 159.244 294.685C159.766 294.685 160.228 294.772 160.63 294.946C161.032 295.114 161.371 295.351 161.647 295.657C161.923 295.963 162.13 296.329 162.268 296.755C162.412 297.181 162.484 297.652 162.484 298.168V304H161.701C161.527 304 161.395 303.973 161.305 303.919C161.215 303.859 161.143 303.751 161.089 303.595L160.9 302.794C160.666 303.01 160.435 303.202 160.207 303.37C159.979 303.532 159.739 303.673 159.487 303.793C159.241 303.907 158.977 303.994 158.695 304.054C158.413 304.114 158.101 304.144 157.759 304.144C157.399 304.144 157.06 304.096 156.742 304C156.43 303.898 156.157 303.745 155.923 303.541C155.689 303.337 155.503 303.082 155.365 302.776C155.233 302.47 155.167 302.113 155.167 301.705C155.167 301.345 155.263 301 155.455 300.67C155.653 300.334 155.971 300.034 156.409 299.77C156.853 299.506 157.429 299.29 158.137 299.122C158.851 298.954 159.727 298.858 160.765 298.834V298.168C160.765 297.478 160.618 296.962 160.324 296.62C160.03 296.278 159.598 296.107 159.028 296.107C158.644 296.107 158.32 296.155 158.056 296.251C157.798 296.347 157.573 296.455 157.381 296.575C157.195 296.689 157.03 296.794 156.886 296.89C156.748 296.986 156.604 297.034 156.454 297.034C156.334 297.034 156.229 297.001 156.139 296.935C156.055 296.869 155.986 296.791 155.932 296.701L155.617 296.134ZM166.481 296.125C166.679 295.915 166.886 295.723 167.102 295.549C167.318 295.375 167.546 295.228 167.786 295.108C168.032 294.982 168.293 294.886 168.569 294.82C168.851 294.748 169.151 294.712 169.469 294.712C169.973 294.712 170.414 294.796 170.792 294.964C171.176 295.132 171.497 295.369 171.755 295.675C172.013 295.975 172.208 296.338 172.34 296.764C172.472 297.19 172.538 297.661 172.538 298.177V304H170.774V298.177C170.774 297.523 170.624 297.016 170.324 296.656C170.024 296.29 169.565 296.107 168.947 296.107C168.497 296.107 168.074 296.215 167.678 296.431C167.288 296.641 166.925 296.929 166.589 297.295V304H164.834V294.856H165.887C166.133 294.856 166.286 294.973 166.346 295.207L166.481 296.125ZM180.801 297.07C180.513 296.692 180.201 296.428 179.865 296.278C179.535 296.128 179.163 296.053 178.749 296.053C177.945 296.053 177.321 296.344 176.877 296.926C176.439 297.502 176.22 298.345 176.22 299.455C176.22 300.037 176.268 300.535 176.364 300.949C176.466 301.357 176.61 301.693 176.796 301.957C176.988 302.215 177.222 302.407 177.498 302.533C177.774 302.653 178.086 302.713 178.434 302.713C178.944 302.713 179.385 302.599 179.757 302.371C180.129 302.143 180.477 301.822 180.801 301.408V297.07ZM182.565 290.716V304H181.503C181.257 304 181.104 303.883 181.044 303.649L180.891 302.596C180.501 303.058 180.057 303.43 179.559 303.712C179.067 303.988 178.497 304.126 177.849 304.126C177.327 304.126 176.853 304.024 176.427 303.82C176.007 303.616 175.647 303.319 175.347 302.929C175.047 302.533 174.816 302.044 174.654 301.462C174.492 300.88 174.411 300.211 174.411 299.455C174.411 298.777 174.501 298.147 174.681 297.565C174.861 296.983 175.122 296.479 175.464 296.053C175.806 295.627 176.22 295.294 176.706 295.054C177.192 294.808 177.741 294.685 178.353 294.685C178.905 294.685 179.373 294.775 179.757 294.955C180.147 295.135 180.495 295.39 180.801 295.72V290.716H182.565ZM189.566 304V294.856H190.619C190.865 294.856 191.018 294.973 191.078 295.207L191.204 296.08C191.54 295.678 191.912 295.351 192.32 295.099C192.734 294.841 193.217 294.712 193.769 294.712C194.375 294.712 194.867 294.88 195.245 295.216C195.623 295.546 195.899 295.996 196.073 296.566C196.205 296.242 196.376 295.963 196.586 295.729C196.796 295.495 197.03 295.303 197.288 295.153C197.546 295.003 197.819 294.892 198.107 294.82C198.401 294.748 198.698 294.712 198.998 294.712C199.484 294.712 199.916 294.79 200.294 294.946C200.678 295.096 201.002 295.318 201.266 295.612C201.53 295.906 201.731 296.269 201.869 296.701C202.007 297.133 202.076 297.625 202.076 298.177V304H200.312V298.177C200.312 297.493 200.162 296.977 199.862 296.629C199.568 296.281 199.136 296.107 198.566 296.107C198.314 296.107 198.074 296.152 197.846 296.242C197.618 296.326 197.417 296.455 197.243 296.629C197.075 296.803 196.94 297.019 196.838 297.277C196.742 297.535 196.694 297.835 196.694 298.177V304H194.93V298.177C194.93 297.469 194.789 296.947 194.507 296.611C194.225 296.275 193.811 296.107 193.265 296.107C192.887 296.107 192.536 296.206 192.212 296.404C191.888 296.602 191.591 296.872 191.321 297.214V304H189.566ZM209.351 299.941C208.637 299.965 208.031 300.022 207.533 300.112C207.035 300.196 206.63 300.31 206.318 300.454C206.006 300.598 205.781 300.769 205.643 300.967C205.505 301.159 205.436 301.375 205.436 301.615C205.436 301.843 205.472 302.041 205.544 302.209C205.622 302.371 205.724 302.506 205.85 302.614C205.982 302.716 206.135 302.791 206.309 302.839C206.483 302.887 206.672 302.911 206.876 302.911C207.146 302.911 207.392 302.884 207.614 302.83C207.842 302.776 208.055 302.701 208.253 302.605C208.451 302.503 208.64 302.38 208.82 302.236C209 302.092 209.177 301.927 209.351 301.741V299.941ZM204.203 296.134C204.713 295.648 205.265 295.285 205.859 295.045C206.459 294.805 207.116 294.685 207.83 294.685C208.352 294.685 208.814 294.772 209.216 294.946C209.618 295.114 209.957 295.351 210.233 295.657C210.509 295.963 210.716 296.329 210.854 296.755C210.998 297.181 211.07 297.652 211.07 298.168V304H210.287C210.113 304 209.981 303.973 209.891 303.919C209.801 303.859 209.729 303.751 209.675 303.595L209.486 302.794C209.252 303.01 209.021 303.202 208.793 303.37C208.565 303.532 208.325 303.673 208.073 303.793C207.827 303.907 207.563 303.994 207.281 304.054C206.999 304.114 206.687 304.144 206.345 304.144C205.985 304.144 205.646 304.096 205.328 304C205.016 303.898 204.743 303.745 204.509 303.541C204.275 303.337 204.089 303.082 203.951 302.776C203.819 302.47 203.753 302.113 203.753 301.705C203.753 301.345 203.849 301 204.041 300.67C204.239 300.334 204.557 300.034 204.995 299.77C205.439 299.506 206.015 299.29 206.723 299.122C207.437 298.954 208.313 298.858 209.351 298.834V298.168C209.351 297.478 209.204 296.962 208.91 296.62C208.616 296.278 208.184 296.107 207.614 296.107C207.23 296.107 206.906 296.155 206.642 296.251C206.384 296.347 206.159 296.455 205.967 296.575C205.781 296.689 205.616 296.794 205.472 296.89C205.334 296.986 205.19 297.034 205.04 297.034C204.92 297.034 204.815 297.001 204.725 296.935C204.641 296.869 204.572 296.791 204.518 296.701L204.203 296.134ZM215.067 296.125C215.265 295.915 215.472 295.723 215.688 295.549C215.904 295.375 216.132 295.228 216.372 295.108C216.618 294.982 216.879 294.886 217.155 294.82C217.437 294.748 217.737 294.712 218.055 294.712C218.559 294.712 219 294.796 219.378 294.964C219.762 295.132 220.083 295.369 220.341 295.675C220.599 295.975 220.794 296.338 220.926 296.764C221.058 297.19 221.124 297.661 221.124 298.177V304H219.36V298.177C219.36 297.523 219.21 297.016 218.91 296.656C218.61 296.29 218.151 296.107 217.533 296.107C217.083 296.107 216.66 296.215 216.264 296.431C215.874 296.641 215.511 296.929 215.175 297.295V304H213.42V294.856H214.473C214.719 294.856 214.872 294.973 214.932 295.207L215.067 296.125ZM231.255 294.856L226.179 306.655C226.125 306.787 226.053 306.889 225.963 306.961C225.873 307.033 225.741 307.069 225.567 307.069H224.262L225.936 303.424L222.183 294.856H223.713C223.863 294.856 223.98 294.892 224.064 294.964C224.148 295.036 224.208 295.117 224.244 295.207L226.566 300.697C226.614 300.835 226.659 300.976 226.701 301.12C226.749 301.258 226.788 301.396 226.818 301.534C226.86 301.39 226.905 301.249 226.953 301.111C227.001 300.967 227.052 300.826 227.106 300.688L229.347 295.207C229.389 295.105 229.455 295.021 229.545 294.955C229.635 294.889 229.737 294.856 229.851 294.856H231.255ZM236.711 304V294.856H237.764C238.01 294.856 238.163 294.973 238.223 295.207L238.349 296.08C238.685 295.678 239.057 295.351 239.465 295.099C239.879 294.841 240.362 294.712 240.914 294.712C241.52 294.712 242.012 294.88 242.39 295.216C242.768 295.546 243.044 295.996 243.218 296.566C243.35 296.242 243.521 295.963 243.731 295.729C243.941 295.495 244.175 295.303 244.433 295.153C244.691 295.003 244.964 294.892 245.252 294.82C245.546 294.748 245.843 294.712 246.143 294.712C246.629 294.712 247.061 294.79 247.439 294.946C247.823 295.096 248.147 295.318 248.411 295.612C248.675 295.906 248.876 296.269 249.014 296.701C249.152 297.133 249.221 297.625 249.221 298.177V304H247.457V298.177C247.457 297.493 247.307 296.977 247.007 296.629C246.713 296.281 246.281 296.107 245.711 296.107C245.459 296.107 245.219 296.152 244.991 296.242C244.763 296.326 244.562 296.455 244.388 296.629C244.22 296.803 244.085 297.019 243.983 297.277C243.887 297.535 243.839 297.835 243.839 298.177V304H242.075V298.177C242.075 297.469 241.934 296.947 241.652 296.611C241.37 296.275 240.956 296.107 240.41 296.107C240.032 296.107 239.681 296.206 239.357 296.404C239.033 296.602 238.736 296.872 238.466 297.214V304H236.711ZM255.479 294.712C256.151 294.712 256.757 294.823 257.297 295.045C257.843 295.261 258.305 295.576 258.683 295.99C259.067 296.398 259.361 296.893 259.565 297.475C259.769 298.051 259.871 298.699 259.871 299.419C259.871 300.139 259.769 300.79 259.565 301.372C259.361 301.954 259.067 302.449 258.683 302.857C258.305 303.265 257.843 303.58 257.297 303.802C256.757 304.018 256.151 304.126 255.479 304.126C254.801 304.126 254.189 304.018 253.643 303.802C253.103 303.58 252.641 303.265 252.257 302.857C251.873 302.449 251.576 301.954 251.366 301.372C251.162 300.79 251.06 300.139 251.06 299.419C251.06 298.699 251.162 298.051 251.366 297.475C251.576 296.893 251.873 296.398 252.257 295.99C252.641 295.576 253.103 295.261 253.643 295.045C254.189 294.823 254.801 294.712 255.479 294.712ZM255.479 302.758C256.343 302.758 256.988 302.467 257.414 301.885C257.84 301.303 258.053 300.484 258.053 299.428C258.053 298.372 257.84 297.553 257.414 296.971C256.988 296.383 256.343 296.089 255.479 296.089C254.603 296.089 253.949 296.383 253.517 296.971C253.091 297.553 252.878 298.372 252.878 299.428C252.878 300.484 253.091 301.303 253.517 301.885C253.949 302.467 254.603 302.758 255.479 302.758ZM263.486 296.611C263.78 296.011 264.134 295.54 264.548 295.198C264.962 294.856 265.46 294.685 266.042 294.685C266.24 294.685 266.426 294.709 266.6 294.757C266.78 294.799 266.936 294.865 267.068 294.955L266.951 296.278C266.909 296.44 266.81 296.521 266.654 296.521C266.57 296.521 266.444 296.506 266.276 296.476C266.108 296.44 265.928 296.422 265.736 296.422C265.454 296.422 265.205 296.464 264.989 296.548C264.773 296.626 264.578 296.746 264.404 296.908C264.236 297.064 264.086 297.259 263.954 297.493C263.822 297.721 263.699 297.982 263.585 298.276V304H261.83V294.856H262.838C263.03 294.856 263.159 294.892 263.225 294.964C263.297 295.03 263.348 295.15 263.378 295.324L263.486 296.611ZM274.144 298.411C274.144 298.063 274.093 297.742 273.991 297.448C273.895 297.154 273.751 296.899 273.559 296.683C273.367 296.467 273.133 296.299 272.857 296.179C272.581 296.059 272.263 295.999 271.903 295.999C271.165 295.999 270.583 296.212 270.157 296.638C269.737 297.064 269.47 297.655 269.356 298.411H274.144ZM275.593 302.695C275.377 302.947 275.128 303.166 274.846 303.352C274.564 303.532 274.264 303.679 273.946 303.793C273.628 303.907 273.298 303.991 272.956 304.045C272.62 304.099 272.287 304.126 271.957 304.126C271.327 304.126 270.742 304.021 270.202 303.811C269.668 303.595 269.203 303.283 268.807 302.875C268.417 302.461 268.111 301.951 267.889 301.345C267.673 300.733 267.565 300.031 267.565 299.239C267.565 298.603 267.664 298.012 267.862 297.466C268.06 296.914 268.342 296.434 268.708 296.026C269.08 295.618 269.533 295.297 270.067 295.063C270.601 294.829 271.201 294.712 271.867 294.712C272.425 294.712 272.938 294.805 273.406 294.991C273.88 295.171 274.288 295.435 274.63 295.783C274.972 296.131 275.239 296.56 275.431 297.07C275.629 297.58 275.728 298.162 275.728 298.816C275.728 299.086 275.698 299.269 275.638 299.365C275.578 299.455 275.467 299.5 275.305 299.5H269.311C269.329 300.046 269.407 300.523 269.545 300.931C269.683 301.333 269.872 301.669 270.112 301.939C270.358 302.209 270.649 302.41 270.985 302.542C271.321 302.674 271.696 302.74 272.11 302.74C272.5 302.74 272.836 302.695 273.118 302.605C273.406 302.515 273.652 302.419 273.856 302.317C274.066 302.209 274.24 302.11 274.378 302.02C274.522 301.93 274.648 301.885 274.756 301.885C274.9 301.885 275.011 301.939 275.089 302.047L275.593 302.695Z" fill="white"/>
<path d="M110.76 202.944C111.507 202.923 112.04 202.752 112.36 202.432C112.68 202.112 112.861 201.739 112.904 201.312C112.947 200.864 112.968 200.096 112.968 199.008V185.184C112.968 184.288 113 183.52 113.064 182.88L110.76 183.008V181.6C113.747 181.557 116.125 181.536 117.896 181.536C121.075 181.536 123.475 182.091 125.096 183.2C126.739 184.309 127.56 185.941 127.56 188.096C127.56 189.333 127.229 190.517 126.568 191.648C125.928 192.779 124.808 193.717 123.208 194.464C121.629 195.211 119.528 195.584 116.904 195.584C116.413 195.584 116.029 195.573 115.752 195.552V200.192C115.752 201.323 115.72 202.165 115.656 202.72L118.6 202.56V204H110.76V202.944ZM117.832 194.336C119.048 194.336 120.157 194.101 121.16 193.632C122.184 193.141 122.984 192.448 123.56 191.552C124.157 190.635 124.456 189.568 124.456 188.352C124.456 186.432 123.869 185.024 122.696 184.128C121.523 183.232 119.901 182.784 117.832 182.784C117.107 182.784 116.595 182.933 116.296 183.232C116.019 183.531 115.859 183.893 115.816 184.32C115.773 184.725 115.752 185.483 115.752 186.592V194.24C116.285 194.304 116.979 194.336 117.832 194.336ZM129.814 203.04C130.433 203.04 130.87 202.891 131.126 202.592C131.404 202.272 131.564 201.877 131.606 201.408C131.67 200.917 131.702 200.16 131.702 199.136V191.84C131.702 190.944 131.745 190.251 131.83 189.76L129.558 189.856V188.544H130.55C131.361 188.544 131.948 188.48 132.31 188.352C132.673 188.203 133.014 187.979 133.334 187.68H134.262C134.348 188.512 134.401 189.568 134.422 190.848C134.956 189.973 135.713 189.195 136.694 188.512C137.697 187.829 138.732 187.488 139.798 187.488C140.438 187.488 140.972 187.659 141.398 188C141.825 188.341 142.038 188.843 142.038 189.504C142.038 189.845 141.9 190.187 141.622 190.528C141.366 190.869 140.993 191.04 140.502 191.04C140.033 191.04 139.649 190.869 139.35 190.528C139.052 190.165 138.934 189.739 138.998 189.248C138.188 189.227 137.366 189.536 136.534 190.176C135.724 190.816 135.03 191.669 134.454 192.736L134.486 200.608C134.486 201.568 134.444 202.293 134.358 202.784L136.374 202.688V204H129.814V203.04ZM146.826 184.512C146.378 184.512 145.983 184.331 145.642 183.968C145.301 183.584 145.13 183.136 145.13 182.624C145.13 182.112 145.301 181.664 145.642 181.28C146.005 180.896 146.41 180.704 146.858 180.704C147.349 180.704 147.754 180.896 148.074 181.28C148.415 181.643 148.586 182.091 148.586 182.624C148.586 183.136 148.405 183.584 148.042 183.968C147.701 184.331 147.295 184.512 146.826 184.512ZM143.658 203.04C144.277 203.04 144.714 202.891 144.97 202.592C145.247 202.272 145.407 201.877 145.45 201.408C145.514 200.917 145.546 200.16 145.546 199.136V191.84C145.546 191.221 145.589 190.528 145.674 189.76L143.402 189.888V188.544C144.661 188.544 145.557 188.469 146.09 188.32C146.645 188.171 147.071 187.957 147.37 187.68H148.298V200.608C148.298 201.568 148.255 202.293 148.17 202.784L150.186 202.688V204H143.658V203.04ZM154.162 193.664C153.309 191.701 152.861 190.219 152.818 189.216L151.442 189.312V188H157.33V188.96C156.391 188.96 155.922 189.355 155.922 190.144C155.922 190.72 156.146 191.509 156.594 192.512L159.058 198.144C159.335 198.805 159.655 199.595 160.018 200.512H160.05C160.114 200.299 160.199 200.064 160.306 199.808L160.786 198.432L163.346 191.424C163.559 190.805 163.879 190.069 164.306 189.216L162.258 189.312V188H167.314V188.96C166.866 188.96 166.482 189.12 166.162 189.44C165.842 189.739 165.543 190.165 165.266 190.72C165.01 191.275 164.658 192.128 164.21 193.28L160.018 204.096H158.738L154.162 193.664ZM172.982 204.512C171.424 204.512 170.23 204.16 169.398 203.456C168.587 202.752 168.182 201.835 168.182 200.704C168.182 199.467 168.672 198.421 169.654 197.568C170.656 196.715 171.904 196.085 173.398 195.68C174.912 195.253 176.427 195.051 177.942 195.072V193.088C177.942 191.701 177.739 190.624 177.334 189.856C176.928 189.067 176.064 188.672 174.742 188.672C174.08 188.672 173.451 188.811 172.854 189.088C172.256 189.365 171.819 189.781 171.542 190.336C171.819 190.635 171.958 191.04 171.958 191.552C171.958 191.872 171.84 192.181 171.606 192.48C171.371 192.757 171.03 192.896 170.582 192.896C170.134 192.896 169.782 192.757 169.526 192.48C169.27 192.181 169.142 191.797 169.142 191.328C169.142 190.624 169.408 189.984 169.942 189.408C170.496 188.811 171.254 188.341 172.214 188C173.195 187.659 174.283 187.488 175.478 187.488C177.27 187.488 178.592 187.968 179.446 188.928C180.299 189.867 180.715 191.36 180.694 193.408L180.662 200.608C180.662 201.291 180.619 202.016 180.534 202.784L182.806 202.656V204H178.23C178.166 203.68 178.091 203.072 178.006 202.176C176.448 203.733 174.774 204.512 172.982 204.512ZM173.718 202.688C174.528 202.688 175.264 202.539 175.926 202.24C176.587 201.92 177.259 201.44 177.942 200.8C177.92 200.48 177.91 199.936 177.91 199.168L177.942 196.16C176.192 196.224 174.635 196.587 173.27 197.248C171.904 197.888 171.222 198.88 171.222 200.224C171.222 201.013 171.456 201.621 171.926 202.048C172.395 202.475 172.992 202.688 173.718 202.688ZM190.799 204.512C187.876 204.512 186.426 202.549 186.447 198.624L186.511 189.344L184.047 189.376V188C185.071 187.979 185.935 187.52 186.639 186.624C187.364 185.707 187.898 184.672 188.239 183.52H189.327V188H194.703V189.248L189.327 189.312C189.306 192.576 189.284 194.837 189.263 196.096C189.263 197.355 189.263 198.059 189.263 198.208C189.263 199.723 189.444 200.853 189.807 201.6C190.17 202.325 190.799 202.688 191.695 202.688C192.25 202.688 192.794 202.517 193.327 202.176C193.882 201.835 194.362 201.365 194.767 200.768L195.631 201.472C194.799 202.709 193.978 203.531 193.167 203.936C192.356 204.32 191.567 204.512 190.799 204.512ZM204.902 204.512C203.43 204.512 202.097 204.171 200.902 203.488C199.729 202.784 198.801 201.792 198.118 200.512C197.435 199.211 197.094 197.717 197.094 196.032C197.094 194.539 197.435 193.141 198.118 191.84C198.801 190.517 199.75 189.461 200.966 188.672C202.203 187.883 203.601 187.488 205.158 187.488C206.374 187.488 207.473 187.755 208.454 188.288C209.435 188.821 210.214 189.621 210.79 190.688C211.366 191.733 211.654 193.024 211.654 194.56L200.39 194.752C200.369 197.312 200.785 199.307 201.638 200.736C202.513 202.165 203.857 202.88 205.67 202.88C206.651 202.88 207.654 202.624 208.678 202.112C209.723 201.6 210.523 200.971 211.078 200.224L211.846 200.864C211.035 202.101 209.979 203.019 208.678 203.616C207.398 204.213 206.139 204.512 204.902 204.512ZM208.646 193.408C208.646 192.128 208.358 191.029 207.782 190.112C207.206 189.195 206.342 188.736 205.19 188.736C202.545 188.736 200.977 190.293 200.486 193.408H208.646ZM230.748 204.512C229.745 204.512 228.732 204.373 227.708 204.096C226.705 203.819 225.82 203.413 225.052 202.88L225.212 204.256H223.548L223.356 197.44H224.604C224.711 199.275 225.34 200.693 226.492 201.696C227.644 202.677 229.105 203.168 230.876 203.168C232.177 203.168 233.265 202.816 234.14 202.112C235.036 201.387 235.484 200.405 235.484 199.168C235.484 198.251 235.228 197.472 234.716 196.832C234.225 196.171 233.607 195.627 232.86 195.2C232.135 194.752 231.143 194.24 229.884 193.664C228.455 192.981 227.313 192.384 226.46 191.872C225.628 191.36 224.913 190.688 224.316 189.856C223.719 189.003 223.42 187.957 223.42 186.72C223.42 185.867 223.612 185.013 223.996 184.16C224.401 183.307 225.084 182.581 226.044 181.984C227.025 181.387 228.316 181.088 229.916 181.088C230.876 181.088 231.836 181.216 232.796 181.472C233.777 181.707 234.673 182.123 235.484 182.72L235.356 181.344H236.988V188.384H235.836C235.729 186.699 235.185 185.28 234.204 184.128C233.244 182.955 231.889 182.368 230.14 182.368C228.86 182.368 227.857 182.731 227.132 183.456C226.407 184.16 226.044 185.045 226.044 186.112C226.044 186.965 226.289 187.701 226.78 188.32C227.271 188.939 227.868 189.451 228.572 189.856C229.276 190.261 230.268 190.763 231.548 191.36C232.999 192.021 234.161 192.619 235.036 193.152C235.932 193.685 236.689 194.389 237.308 195.264C237.927 196.117 238.236 197.173 238.236 198.432C238.236 199.627 237.937 200.683 237.34 201.6C236.764 202.517 235.911 203.232 234.78 203.744C233.649 204.256 232.305 204.512 230.748 204.512ZM240.589 211.2C241.207 211.2 241.645 211.04 241.901 210.72C242.178 210.421 242.338 210.037 242.381 209.568C242.423 209.12 242.455 208.363 242.477 207.296L242.541 191.84C242.541 190.944 242.583 190.251 242.669 189.76L240.397 189.888V188.544C241.655 188.544 242.519 188.48 242.989 188.352C243.458 188.203 243.842 187.979 244.141 187.68H245.101C245.186 188.725 245.229 189.301 245.229 189.408C245.869 188.832 246.637 188.373 247.533 188.032C248.429 187.669 249.314 187.488 250.189 187.488C251.447 187.488 252.61 187.819 253.677 188.48C254.743 189.12 255.597 190.048 256.237 191.264C256.898 192.459 257.229 193.845 257.229 195.424C257.229 197.195 256.855 198.773 256.109 200.16C255.362 201.525 254.359 202.592 253.101 203.36C251.863 204.128 250.519 204.512 249.069 204.512C247.597 204.512 246.317 204.16 245.229 203.456V208.768C245.229 209.728 245.186 210.453 245.101 210.944L247.117 210.848V212.16H240.589V211.2ZM249.005 203.232C250.007 203.232 250.871 202.923 251.597 202.304C252.343 201.685 252.919 200.821 253.325 199.712C253.73 198.603 253.933 197.344 253.933 195.936C253.933 194.016 253.517 192.395 252.685 191.072C251.874 189.728 250.658 189.056 249.037 189.056C248.333 189.056 247.65 189.227 246.989 189.568C246.327 189.909 245.751 190.336 245.261 190.848C245.282 190.997 245.293 191.648 245.293 192.8L245.261 201.984C246.349 202.816 247.597 203.232 249.005 203.232ZM264.451 204.512C262.893 204.512 261.699 204.16 260.867 203.456C260.056 202.752 259.651 201.835 259.651 200.704C259.651 199.467 260.141 198.421 261.123 197.568C262.125 196.715 263.373 196.085 264.867 195.68C266.381 195.253 267.896 195.051 269.411 195.072V193.088C269.411 191.701 269.208 190.624 268.803 189.856C268.397 189.067 267.533 188.672 266.211 188.672C265.549 188.672 264.92 188.811 264.323 189.088C263.725 189.365 263.288 189.781 263.011 190.336C263.288 190.635 263.427 191.04 263.427 191.552C263.427 191.872 263.309 192.181 263.075 192.48C262.84 192.757 262.499 192.896 262.051 192.896C261.603 192.896 261.251 192.757 260.995 192.48C260.739 192.181 260.611 191.797 260.611 191.328C260.611 190.624 260.877 189.984 261.411 189.408C261.965 188.811 262.723 188.341 263.683 188C264.664 187.659 265.752 187.488 266.947 187.488C268.739 187.488 270.061 187.968 270.915 188.928C271.768 189.867 272.184 191.36 272.163 193.408L272.131 200.608C272.131 201.291 272.088 202.016 272.003 202.784L274.275 202.656V204H269.699C269.635 203.68 269.56 203.072 269.475 202.176C267.917 203.733 266.243 204.512 264.451 204.512ZM265.187 202.688C265.997 202.688 266.733 202.539 267.395 202.24C268.056 201.92 268.728 201.44 269.411 200.8C269.389 200.48 269.379 199.936 269.379 199.168L269.411 196.16C267.661 196.224 266.104 196.587 264.739 197.248C263.373 197.888 262.691 198.88 262.691 200.224C262.691 201.013 262.925 201.621 263.395 202.048C263.864 202.475 264.461 202.688 265.187 202.688ZM284.279 204.512C282.828 204.512 281.495 204.181 280.279 203.52C279.084 202.859 278.135 201.909 277.431 200.672C276.727 199.435 276.375 197.973 276.375 196.288C276.375 194.795 276.727 193.376 277.431 192.032C278.156 190.667 279.148 189.568 280.407 188.736C281.687 187.904 283.127 187.488 284.727 187.488C285.879 187.488 286.903 187.669 287.799 188.032C288.695 188.395 289.388 188.875 289.879 189.472C290.391 190.069 290.647 190.72 290.647 191.424C290.647 191.915 290.508 192.32 290.231 192.64C289.953 192.96 289.569 193.12 289.079 193.12C288.609 193.12 288.257 192.971 288.023 192.672C287.788 192.352 287.671 192.021 287.671 191.68C287.671 191.147 287.831 190.72 288.151 190.4C287.916 189.739 287.457 189.291 286.775 189.056C286.113 188.8 285.452 188.672 284.791 188.672C283.809 188.672 282.924 188.939 282.135 189.472C281.367 190.005 280.759 190.784 280.311 191.808C279.863 192.832 279.639 194.059 279.639 195.488C279.639 196.917 279.863 198.187 280.311 199.296C280.78 200.405 281.431 201.28 282.263 201.92C283.095 202.539 284.055 202.848 285.143 202.848C286.103 202.848 287.041 202.592 287.959 202.08C288.897 201.547 289.633 200.885 290.167 200.096L290.999 200.736C290.209 201.973 289.185 202.912 287.927 203.552C286.689 204.192 285.473 204.512 284.279 204.512ZM301.09 204.512C299.618 204.512 298.284 204.171 297.09 203.488C295.916 202.784 294.988 201.792 294.306 200.512C293.623 199.211 293.282 197.717 293.282 196.032C293.282 194.539 293.623 193.141 294.306 191.84C294.988 190.517 295.938 189.461 297.154 188.672C298.391 187.883 299.788 187.488 301.345 187.488C302.562 187.488 303.66 187.755 304.642 188.288C305.623 188.821 306.402 189.621 306.978 190.688C307.554 191.733 307.842 193.024 307.842 194.56L296.578 194.752C296.556 197.312 296.972 199.307 297.826 200.736C298.7 202.165 300.044 202.88 301.858 202.88C302.839 202.88 303.842 202.624 304.866 202.112C305.911 201.6 306.711 200.971 307.266 200.224L308.034 200.864C307.223 202.101 306.167 203.019 304.866 203.616C303.586 204.213 302.327 204.512 301.09 204.512ZM304.834 193.408C304.834 192.128 304.546 191.029 303.97 190.112C303.394 189.195 302.53 188.736 301.378 188.736C298.732 188.736 297.164 190.293 296.674 193.408H304.834Z" fill="white"/>
<g opacity="0.2">
<mask id="mask0" mask-type="alpha" maskUnits="userSpaceOnUse" x="278" y="44" width="90" height="90">
<rect x="278.5" y="44.5" width="89" height="89" fill="#C4C4C4" stroke="white"/>
</mask>
<g mask="url(#mask0)">
<path d="M230.499 81.6896L314.383 181.658" stroke="white" stroke-width="2"/>
<path d="M239.692 73.9762L323.575 173.945" stroke="white" stroke-width="2"/>
<path d="M248.884 66.2628L332.768 166.232" stroke="white" stroke-width="2"/>
<path d="M258.077 58.5493L341.961 158.518" stroke="white" stroke-width="2"/>
<path d="M267.269 50.8358L351.153 150.805" stroke="white" stroke-width="2"/>
<path d="M276.462 43.1224L360.346 143.091" stroke="white" stroke-width="2"/>
<path d="M285.654 35.4089L369.538 135.378" stroke="white" stroke-width="2"/>
<path d="M294.847 27.6955L378.731 127.664" stroke="white" stroke-width="2"/>
<path d="M304.039 19.9821L387.923 119.951" stroke="white" stroke-width="2"/>
<path d="M313.232 12.2686L397.116 112.237" stroke="white" stroke-width="2"/>
<path d="M322.424 4.55511L406.308 104.524" stroke="white" stroke-width="2"/>
<path d="M331.617 -3.15833L415.501 96.8105" stroke="white" stroke-width="2"/>
</g>
</g>
<defs>
<filter id="filter0_f" x="0" y="0" width="419" height="552" filterUnits="userSpaceOnUse" color-interpolation-filters="sRGB">
<feFlood flood-opacity="0" result="BackgroundImageFix"/>
<feBlend mode="normal" in="SourceGraphic" in2="BackgroundImageFix" result="shape"/>
<feGaussianBlur stdDeviation="24" result="effect1_foregroundBlur"/>
</filter>
</defs>
</svg>
